<?xml version="1.0" encoding="utf-8"?>
<!-- Generator: Adobe Illustrator 23.0.5, SVG Export Plug-In . SVG Version: 6.00 Build 0)  -->
<svg version="1.1" id="Layer_1" xmlns="http://www.w3.org/2000/svg" xmlns:xlink="http://www.w3.org/1999/xlink" x="0px" y="0px"
	 viewBox="0 0 393 83.1" style="enable-background:new 0 0 393 83.1;" xml:space="preserve">
<style type="text/css">
	.st0{opacity:0.7;}
	.st1{fill:#0000FF;}
	.st2{fill:#FFFFFF;}
	.st3{fill:#FF0000;}
	.st4{opacity:0.56;}
	.st5{fill:url(#SVGID_1_);}
	.st6{fill:url(#SVGID_2_);}
	.st7{fill:url(#SVGID_3_);}
	.st8{fill:url(#SVGID_4_);}
	.st9{fill:url(#SVGID_5_);}
	.st10{fill:url(#SVGID_6_);}
	.st11{fill:url(#SVGID_7_);}
	.st12{fill:url(#SVGID_8_);}
	.st13{fill:url(#SVGID_9_);}
	.st14{fill:url(#SVGID_10_);}
	.st15{fill:url(#SVGID_11_);}
	.st16{fill:url(#SVGID_12_);}
	.st17{fill:url(#SVGID_13_);}
	.st18{fill:url(#SVGID_14_);}
</style>
<title>frenchie</title>
<g class="st0">
	<rect class="st1" width="131" height="83.1"/>
	<rect x="131" class="st2" width="131" height="83.1"/>
	<rect x="262" class="st3" width="131" height="83.1"/>
</g>
<polygon points="49.6,45.4 49.4,43.5 49.4,42.9 49.6,42.4 51.4,43.4 53.4,43.4 53.4,45.4 51.4,45.4 "/>
<path d="M51.4,43.4L51.4,43.4L51.4,43.4z"/>
<path d="M50.3,43.9L50.3,43.9L50.3,43.9z"/>
<path d="M50.3,43.9L50.3,43.9L50.3,43.9z"/>
<polygon points="102,29 101.9,28.1 102.5,26.3 103.9,26.3 105.9,26.3 105.9,28.4 101.9,28.4 103.9,28.4 102.2,29.4 "/>
<path d="M103.9,28.3C103.9,28.3,103.9,28.4,103.9,28.3L103.9,28.3z"/>
<polygon points="209,28.9 209,28 209.6,26.3 211.1,26.3 213.1,26.3 213.1,28.4 209.1,28.4 211.1,28.4 209.3,29.4 "/>
<path d="M211,28.3C211,28.3,211.1,28.4,211,28.3C211.1,28.3,211.1,28.3,211,28.3z"/>
<polygon points="308.6,28.9 308.6,28 309.1,26.3 310.6,26.3 312.6,26.3 312.6,28.4 308.6,28.4 310.6,28.4 308.9,29.4 "/>
<path d="M310.6,28.3C310.6,28.3,310.6,28.4,310.6,28.3L310.6,28.3z"/>
<g class="st4">
	<path d="M212,48c0.5-0.4,0.7-1.1,0.7-1.7c0-0.9,0-1.7,0.1-2.6c0.2-1.7,0.2-2.3,0.3-2.5l0.1-0.2v-0.4c0-0.6-0.3-1.2-0.6-1.6
		c0.7-0.4,1.2-1.2,1.2-2.1c0-0.3,0-0.8-0.2-2.7s-0.3-2.4-0.3-2.7c-0.2-1.1-1.1-2.3-3-2.3c-0.9,0-2.2,0-3.9,0.1c-1.7,0-3,0.1-3.8,0.1
		c-0.9,0-2.1,0-3.9-0.1c-1.8,0-3.1-0.1-4-0.1c-1,0-1.6,0.5-1.8,0.8c-0.1,0.1-0.1,0.2-0.2,0.2c-0.4-0.6-1.1-1-2.1-1
		c-0.4,0-1,0-1.7,0.1c-0.7,0-1.2,0.1-1.5,0.1s-0.9,0-1.5-0.1c-0.8,0-1.4-0.1-1.7-0.1c-0.9,0-1.7,0.5-2.1,1.2
		c-0.4-0.7-1.2-1.2-2.2-1.2c-0.4,0-0.9,0-1.7,0.1c-0.7,0-1.1,0.1-1.5,0.1c-0.3,0-0.8,0-1.5-0.1c-0.7,0-1.3-0.1-1.7-0.1
		c-1.4,0-2.4,1.1-2.4,2.5c0,0.9,0,2.2,0.1,3.9c0,1,0.1,1.9,0.1,2.6c-0.6,0-1.5,0-2.8,0c-1.3,0-2.2,0-2.8,0c0-0.7,0.1-1.6,0.2-2.6
		c0.1-1.8,0.2-3.2,0.2-4.1c0-1.3-1-2.3-2.3-2.3c-0.4,0-1,0-1.8,0.1c-0.7,0-1.2,0.1-1.6,0.1c-0.3,0-0.9,0-1.5-0.1
		c-0.8,0-1.4-0.1-1.7-0.1c-1.4,0-2.4,1-2.4,2.4c0,0,0,0,0,0.1c-2.4-2-5.5-3-9.2-3c-4.1,0-7.5,1.5-10.1,4.6c-1.1,1.2-1.9,2.6-2.5,4
		c0.1-2.4,0.1-4.2,0.1-5.5c0-1.7-1.2-2.5-2.3-2.5c-0.7,0-1.8,0-3.3,0.1c-1.4,0.1-2.4,0.1-3.1,0.1c-1.1,0-2.4,0.8-2.4,2.7
		c0,1.3,0.1,3.2,0.2,5.7c0,0.5,0.1,1,0.1,1.4l-6.5-8.8c-0.3-0.4-1-1.4-2.3-1.4c-0.5,0-1,0.1-1.8,0.2c-0.6,0.1-1,0.2-1.2,0.2
		c-0.9,0.1-1.7,0.1-2.3,0.1c-1.2,0-2,0.6-2.4,1.3c-0.4-0.8-1.3-1.5-2.7-1.5c-0.9,0-2.2,0-3.9,0.1c-1.7,0-3,0.1-3.8,0.1
		c-0.9,0-2.1,0-3.9-0.1c-1.8,0-3.1-0.1-4-0.1c-1,0-1.6,0.5-1.8,0.8c-0.4,0.5-0.7,1.1-0.6,1.8v0.2c0,0.5,0.1,1,0.1,1.5
		c-0.6-0.8-1.3-1.6-2.2-2.2c-2-1.4-4.6-2.2-7.7-2.2c-1.3,0-3,0-5.2,0.1c-5,0.1-5.4,0.2-5.7,0.2c-0.6,0.1-1,0.3-1.4,0.6
		c-0.5-0.7-1.4-1.1-2.4-1.1s-2.4,0.1-4.4,0.2c-1.8,0.1-3.2,0.2-4.1,0.2c-0.9,0-2.2,0-3.9-0.1c-1.8,0-3.1-0.1-4-0.1
		c-1,0-1.5,0.4-1.9,0.7c-0.4,0.5-0.7,1.1-0.6,1.9V32c0,0.3,0.1,2.2,0.3,5.9c0.1,2.3,0.2,4.2,0.2,5.7c0,1.3,0,3.2-0.1,5.8
		S42,54,42,55.3c0,1.2,0.8,2.2,2,2.5c0.5,0.1,1.6,0.3,4.7,0.3c0.1,0,0.2,0,0.2,0v0.1l1.5-0.1c2.6-0.2,2.9-1.9,2.9-2.4v-0.1v-0.2
		c0-0.2-0.1-1-0.2-2.5c-0.1-1.6-0.2-3.1-0.2-4.4c0.1,0,0.2,0,0.3,0c2.5,0,4.3,0.1,5.5,0.2c0.5,0,0.9,0.1,1,0.1L60,47v1.8v-1.9v1.9
		c1,0,1.9-0.6,2.2-1.4c0,0.6-0.1,1.3-0.1,2.1C62,52,61.9,54,61.9,55.3c0,1.2,0.8,2.2,2.1,2.5c0.3,0.1,0.9,0.1,3.4,0.1
		c1.5,0,2.6,0,3.4-0.1l0.7-0.1l0.2-0.1c0.7-0.2,1.5-1,1.5-2.2c0-0.9-0.1-2.1-0.2-3.8c-0.1-0.7-0.1-1.4-0.2-1.9
		c0.8,1.8,1.4,3.3,1.7,4.2s0.6,1.6,0.8,2.1l0.1,0.1c0.2,0.4,0.5,0.9,1.1,1.2c0.4,0.2,0.7,0.3,1.2,0.3c0.6,0.1,1.7,0.1,3.4,0.1
		c2.5,0,3.3-0.1,3.7-0.1c0.4-0.1,0.8-0.2,1.1-0.4c0.4,0.3,0.9,0.4,1.5,0.4c0.9,0,2.2,0,4,0s3.1,0,4,0c5.3,0,6.8,0.1,7.2,0.2
		s0.6,0.1,0.8,0.1c0.9,0,1.7-0.4,2.3-1.3c0.4,0.6,1.2,1,2,1h6.1c1.2,0,2.5-0.9,2.5-2.6c0-1.4,0-3.4-0.1-6.2c0-0.3,0-0.5,0-0.8
		c0.1,0.2,0.3,0.4,0.4,0.5c2.9,3.9,4.8,6.4,5.7,7.6c0.7,0.9,1.5,1.4,2.4,1.4c0.3,0,0.7,0,1.2,0.1c0.7,0.1,1.2,0.1,1.5,0.1
		s0.8,0,1.4,0c0.5,0,0.9,0,1.2,0c1.5,0,2.5-1,2.5-2.5v-5.8c0.6,1.7,1.6,3.2,2.8,4.5c2.7,2.9,6.1,4.4,10.4,4.4c3.5,0,6.5-1.1,8.9-3.3
		v0.1c0,1.3,0.9,2.3,2.2,2.5c0.4,0.1,1.1,0.1,3.3,0.1c2.6,0,3.3-0.1,3.7-0.1c1.3-0.2,2.1-1.3,2.1-2.6c0-0.9,0-2.3-0.1-4.2
		c0-1.2-0.1-2.1-0.1-2.9c0.6,0,1.4,0,2.7,0c1.2,0,2.1,0,2.6,0c0,0.8-0.1,1.8-0.1,3c-0.1,1.9-0.1,3.3-0.1,4.3c0,1.2,0.8,2.2,2.1,2.4
		c0.4,0.1,0.9,0.2,3.7,0.2c1.4,0,2.4,0,3.2-0.1c0.5,0,1-0.1,1.5-0.4c0.2-0.1,0.4-0.3,0.6-0.6c0.4,0.5,0.9,0.9,1.7,1
		c0.4,0.1,1.2,0.2,3.7,0.2c1.4,0,2.5-0.1,3.3-0.2c0.5-0.1,0.8-0.1,1.2-0.3c0.2-0.1,0.6-0.4,0.9-0.9c0.4,0.7,1.2,1.2,2.2,1.2
		c0.9,0,2.2,0,4,0s3.1,0,4,0c5.3,0,6.8,0.1,7.2,0.2c0.4,0.1,0.6,0.1,0.8,0.1c0.9,0,1.8-0.5,2.3-1.3c0.3-0.5,0.5-1.2,0.8-3.3
		c0.2-1.5,0.3-2.5,0.3-3.1C214.3,48.9,213.2,48,212,48z M62.2,39.3c0.1,0,0.3,0,0.4-0.1c0,0.3,0,0.6,0,0.9
		C62.5,39.8,62.3,39.5,62.2,39.3z M73.9,41.2c-0.3,0-0.6,0-0.8,0c0-0.3,0-0.5,0-0.7c0-0.9,0-1.5,0-2c1.5,0,2.1,0.3,2.3,0.4
		c0.1,0.1,0.4,0.2,0.4,1.2C75.8,40.7,75.8,41.2,73.9,41.2z M83.3,47c1-0.8,1.7-1.7,2.2-2.5c0,1.2-0.1,2.9-0.2,5c0,0.5-0.1,1-0.1,1.4
		c-0.1-0.3-0.3-0.5-0.4-0.8C84.2,48.8,83.7,47.8,83.3,47z M105.7,38.9c0,0.2,0,0.4,0,0.6c-0.1-0.2-0.2-0.3-0.3-0.4
		C105.6,39,105.6,38.9,105.7,38.9z M105.7,46.3c0-0.9,0-1.7,0.1-2.6c0-0.3,0.1-0.5,0.1-0.7c0,0.4,0,0.8,0,1.1c0,1,0,2.4-0.1,4.1
		c-0.3-0.1-0.5-0.2-0.8-0.2C105.4,47.5,105.7,46.9,105.7,46.3z M151.7,45.5c-0.8,0-1.3,0.4-2.2,1.1c-0.5,0.4-1,0.7-1.4,1
		c-0.6,0.3-1.3,0.5-2,0.5c-1.1,0-1.9-0.4-2.6-1.2c-0.7-0.9-1-1.9-1-3.2c0-1.3,0.3-2.3,1-3.2c0.7-0.8,1.4-1.2,2.6-1.2
		c0.7,0,1.3,0.2,2,0.5c0.5,0.2,1,0.6,1.5,1c0.8,0.8,1.4,1.2,2.2,1.2c0.6,0,1.2-0.2,1.7-0.7c0.3-0.3,0.6-0.7,1.6-2.3
		c0.1,2.1,0.1,3.8,0.1,4.9c0,1,0,2.5-0.1,4.4c-1-1.4-1.3-1.9-1.5-2.1C153,45.8,152.3,45.5,151.7,45.5z M182.3,55.5
		C182.3,55.5,182.3,55.4,182.3,55.5h0.9H182.3z"/>
	<path d="M349.5,43l-0.1-0.1c-0.1-0.1-0.9-1.1-2.4-3c-0.8-1-0.8-1.4-0.8-1.4s0,0,0.2-0.1c0.3-0.2,0.7-0.3,1.1-0.3c0.1,0,0.1,0,0.2,0
		c0.4,0.1,0.6,0.1,0.8,0.1c1.3,0,2.3-1,2.3-2.3c0-0.4-0.1-0.7-0.3-1.1c-1.3-2.7-1.8-3.9-2-4.5c-0.6-1.6-1.9-1.7-2.3-1.7
		c-0.1,0-0.3,0-0.5,0h-0.1c-2.7,0.4-5,1.3-6.8,2.6c-1.4,1-2.4,2.2-3,3.5c-0.6-1.3-1.6-2.5-2.8-3.4c-2-1.4-4.6-2.2-7.7-2.2
		c-1.3,0-3,0-5.2,0.1c-5,0.1-5.4,0.2-5.7,0.2c-1,0.2-1.6,0.7-1.9,1.3c-0.4-0.8-1.3-1.5-2.7-1.5c-0.9,0-2.2,0-3.9,0.1
		c-1.7,0-3,0.1-3.8,0.1c-0.9,0-2.1,0-3.9-0.1c-1.8,0-3.1-0.1-4-0.1s-1.4,0.4-1.7,0.7c-0.4-0.4-1.1-0.7-1.8-0.7c-0.7,0-1.7,0-3,0.1
		s-2.2,0.1-2.8,0.1H284l-0.3,0.1c-0.5,0.2-1.5,0.7-1.5,2.4c0,0.9,0,2.2,0,3.9c0,1.6,0,2.9,0,3.7c0,0.2-0.3,1-1.5,3.4
		c-0.1,0.3-0.3,0.5-0.4,0.8c-1.2-2.5-1.5-3.3-1.6-3.6c0-0.9,0.1-2.3,0.2-4c0.1-2,0.2-3.4,0.2-4.4c0-1.4-1-2.4-2.4-2.4
		c-0.7,0-1.7,0-3.1-0.1c-1.5-0.1-2.5-0.1-3.3-0.1c-1.1,0-2.4,0.8-2.4,2.7c0,0.9,0,2.3-0.1,4.1c0,0.1,0,0.1,0,0.1
		c-0.6-1.1-1.3-2.1-2.2-3.1c-2.8-2.9-6.3-4.4-10.5-4.4s-7.7,1.5-10.5,4.4c-2.7,2.9-4.1,6.4-4.1,10.6c0,1.6,0.2,3.1,0.6,4.5
		c-0.1,0-0.3,0-0.4,0c-1.1,0-2.7,0.1-4.8,0.2c-1.4,0.1-2.5,0.1-3.4,0.1c0-0.5,0-1.2,0-1.9v-4.6c0.2-4.4,0.3-7.7,0.5-9.9v-0.3
		c0-0.7-0.2-1.3-0.6-1.8c-0.4-0.4-1-0.7-1.6-0.7c-0.4,0-1,0-1.8,0.1c-0.7,0-1.3,0.1-1.6,0.1c-0.3,0-0.8,0-1.5-0.1
		c-0.7,0-1.3-0.1-1.7-0.1c-1.7,0-2.5,1.2-2.5,2.4c0,1.4,0,3.4,0.1,6.2c0.1,2.7,0.1,4.7,0.1,6c0,1.3,0,3.2-0.1,5.7
		c0,2.6-0.1,4.5-0.1,5.8c0,1.3,0.9,2.3,2.2,2.5h0.1h0.1c0.9,0.1,1.6,0.1,2.1,0.1h0.3l5.2,0.1l3.9,0.1c1.6,0,3,0.1,4,0.1
		c0.7,0,1,0,1.4-0.2c0.5-0.2,1.4-0.7,1.7-2c0.2-1.1,0.4-2.3,0.4-3.7c0.4,0.6,0.9,1.3,1.5,1.8c2.8,2.9,6.3,4.4,10.5,4.4
		s7.7-1.5,10.5-4.4c2.3-2.5,3.7-5.5,4-9c0.4,0.9,0.9,1.9,1.5,3.2c1.3,2.6,2.7,5.3,4,7.9c0.6,1.1,1.5,1.4,1.9,1.5
		c0.3,0.1,0.7,0.1,3.1,0.1c1.3,0,2.3,0,3-0.1c0.5,0,1-0.1,1.4-0.4c0.5-0.3,0.7-0.8,0.9-1.1c1.7-3.3,3-5.8,4-7.5
		c1.3-2.7,2.2-4.5,2.7-5.8c0,0.2,0,0.4,0,0.6c0,1.3-0.1,3.2-0.2,5.8c-0.1,2.7-0.2,4.7-0.2,6c0,1.5,1.1,2.5,2.6,2.5c0.9,0,2.2,0,4,0
		s3.1,0,4,0c5.3,0,6.8,0.1,7.2,0.2c0.4,0.1,0.6,0.1,0.8,0.1c0.9,0,1.7-0.5,2.3-1.3c0.4,0.5,0.9,0.9,1.6,1c0.3,0.1,0.9,0.1,3.4,0.1
		c1.5,0,2.6,0,3.4-0.1l0.7-0.1l0.2-0.1c0.7-0.2,1.5-1,1.5-2.2c0-0.9-0.1-2.1-0.2-3.8c-0.1-0.7-0.1-1.4-0.2-1.9
		c0.8,1.8,1.4,3.3,1.7,4.2c0.3,0.9,0.8,2.1,0.8,2.1v0.1c0.2,0.4,0.5,0.9,1.1,1.2c0.4,0.2,0.7,0.3,1.2,0.3c0.6,0.1,1.7,0.1,3.4,0.1
		c2.5,0,3.3-0.1,3.7-0.1c0.9-0.1,1.4-0.6,1.7-1.1c0.9,1.4,1.6,2,2.6,2c0.1,0,0.3,0,0.5,0c2.9-0.5,5.4-1.6,7.4-3.3
		c2.5-2.1,3.7-4.7,3.7-7.6C351.1,46.3,350.6,44.6,349.5,43z M257.9,46.8c-0.8,0.9-1.6,1.3-2.7,1.3c-1.2,0-2.1-0.4-2.8-1.2
		c-0.7-0.8-1.1-1.9-1.1-3.2c0-1.2,0.4-2.2,1.2-3.1c0.8-0.9,1.6-1.3,2.7-1.3c1.2,0,2,0.4,2.8,1.2c0.7,0.9,1.1,1.9,1.1,3.2
		C259,44.9,258.7,45.9,257.9,46.8z M312.5,38.8c0,0.3,0,0.6,0,0.8c-0.1-0.2-0.2-0.4-0.4-0.6C312.3,39,312.4,38.9,312.5,38.8z
		 M312.3,46.3c0-0.9,0-1.7,0.1-2.6c0-0.3,0.1-0.6,0.1-0.8c0,0.3,0,0.6,0,1c0,1,0,2.5-0.1,4.3c-0.3-0.1-0.5-0.2-0.8-0.2
		C312.1,47.5,312.3,46.9,312.3,46.3z M323.9,41.2c-0.3,0-0.6,0-0.8,0c0-0.3,0-0.5,0-0.7c0-0.9,0-1.5,0-2c1.5,0,2.1,0.3,2.3,0.4
		c0.1,0.1,0.4,0.2,0.4,1.2C325.7,40.7,325.7,41.2,323.9,41.2z M339,48.5c-0.1,0.1-0.8,0.3-2.9,0.8c-0.6,0.1-1,0.4-1.4,0.8
		c-0.6-1.3-1.1-2.3-1.5-3.1c1.2-1,2-2,2.5-3.1c0.2-0.4,0.3-0.8,0.5-1.2c0.1,0.2,0.3,0.5,0.4,0.7c0.1,0.2,0.2,0.4,2.4,2.8
		c0.7,0.8,0.7,1.2,0.7,1.3C339.7,47.8,339.7,48.1,339,48.5z"/>
</g>
<g>
	<path d="M211.9,41.8c0.5-0.4,0.7-1.1,0.7-1.7c0-0.9,0-1.7,0.1-2.6c0.2-1.7,0.2-2.3,0.3-2.5l0.1-0.2v-0.4c0-0.6-0.3-1.2-0.6-1.6
		c0.7-0.4,1.2-1.2,1.2-2.1c0-0.3,0-0.8-0.2-2.7c-0.2-1.9-0.3-2.4-0.3-2.7c-0.2-1.1-1.1-2.3-3-2.3c-0.9,0-2.2,0-3.9,0.1
		c-1.7,0-3,0.1-3.8,0.1c-0.9,0-2.1,0-3.9-0.1c-1.8,0-3.1-0.1-4-0.1c-1,0-1.6,0.5-1.8,0.8c-0.1,0.1-0.1,0.2-0.2,0.2
		c-0.4-0.6-1.1-1-2.1-1c-0.4,0-1,0-1.7,0.1c-0.7,0-1.2,0.1-1.5,0.1s-0.9,0-1.5-0.1c-0.8,0-1.4-0.1-1.7-0.1c-0.9,0-1.7,0.5-2.1,1.2
		c-0.4-0.7-1.2-1.2-2.2-1.2c-0.4,0-0.9,0-1.7,0.1c-0.7,0-1.1,0.1-1.5,0.1c-0.3,0-0.8,0-1.5-0.1c-0.7,0-1.3-0.1-1.7-0.1
		c-1.4,0-2.4,1.1-2.4,2.5c0,0.9,0,2.2,0.1,3.9c0,1,0.1,1.9,0.1,2.6c-0.6,0-1.5,0-2.8,0c-1.3,0-2.2,0-2.8,0c0-0.7,0.1-1.6,0.2-2.6
		c0.1-1.8,0.2-3.2,0.2-4.1c0-1.3-1-2.3-2.3-2.3c-0.4,0-1,0-1.8,0.1c-0.7,0-1.2,0.1-1.6,0.1c-0.3,0-0.9,0-1.5-0.1
		c-0.8,0-1.4-0.1-1.7-0.1c-1.4,0-2.4,1-2.4,2.4c0,0,0,0,0,0.1c-2.4-2-5.5-3-9.2-3c-4.1,0-7.5,1.5-10.1,4.6c-1.1,1.2-1.9,2.6-2.5,4
		c0.1-2.4,0.1-4.2,0.1-5.5c0-1.7-1.2-2.5-2.3-2.5c-0.7,0-1.8,0-3.3,0.1c-1.4,0.1-2.4,0.1-3.1,0.1c-1.1,0-2.4,0.8-2.4,2.7
		c0,1.3,0.1,3.2,0.2,5.7c0,0.5,0.1,1,0.1,1.4l-6.5-8.8c-0.3-0.4-1-1.4-2.3-1.4c-0.5,0-1,0.1-1.8,0.2c-0.6,0.1-1,0.2-1.2,0.2
		c-0.9,0.1-1.7,0.1-2.3,0.1c-1.2,0-2,0.6-2.4,1.3c-0.4-0.8-1.3-1.5-2.7-1.5c-0.9,0-2.2,0-3.9,0.1c-1.7,0-3,0.1-3.8,0.1
		c-0.9,0-2.1,0-3.9-0.1c-1.8,0-3.1-0.1-4-0.1c-1,0-1.6,0.5-1.8,0.8c-0.4,0.5-0.7,1.1-0.6,1.8v0.2c0,0.5,0.1,1,0.1,1.5
		c-0.6-0.8-1.3-1.6-2.2-2.2c-2-1.4-4.6-2.2-7.7-2.2c-1.3,0-3,0-5.2,0.1c-5,0.1-5.4,0.2-5.7,0.2c-0.6,0.1-1,0.3-1.4,0.6
		c-0.5-0.7-1.4-1.1-2.4-1.1s-2.4,0.1-4.4,0.2c-1.8,0.1-3.2,0.2-4.1,0.2c-0.9,0-2.2,0-3.9-0.1c-1.8,0-3.1-0.1-4-0.1
		c-1,0-1.5,0.4-1.9,0.7c-0.4,0.5-0.7,1.1-0.6,1.9v0.1c0,0.3,0.1,2.2,0.3,5.9c0.1,2.3,0.2,4.2,0.2,5.7c0,1.3,0,3.2-0.1,5.8
		s-0.1,4.6-0.1,5.9c0,1.2,0.8,2.2,2,2.5c0.5,0.1,1.6,0.3,4.7,0.3c0.1,0,0.2,0,0.2,0v0.1l1.5-0.1c2.6-0.2,2.9-1.9,2.9-2.4v-0.1v-0.2
		c0-0.2-0.1-1-0.2-2.5c-0.1-1.6-0.2-3.1-0.2-4.4c0.1,0,0.2,0,0.3,0c2.5,0,4.3,0.1,5.5,0.2c0.5,0,0.9,0.1,1,0.1l0.3-1.8v1.8v-1.9v1.9
		c1,0,1.9-0.6,2.2-1.4c0,0.6-0.1,1.3-0.1,2.1c-0.1,2.6-0.2,4.6-0.2,5.9c0,1.2,0.8,2.2,2.1,2.5c0.3,0.1,0.9,0.1,3.4,0.1
		c1.5,0,2.6,0,3.4-0.1l0.7-0.1l0.2-0.1c0.7-0.2,1.5-1,1.5-2.2c0-0.9-0.1-2.1-0.2-3.8c-0.1-0.7-0.1-1.4-0.2-1.9
		c0.8,1.8,1.4,3.3,1.7,4.2s0.6,1.6,0.8,2.1l0.1,0.1c0.2,0.4,0.5,0.9,1.1,1.2c0.4,0.2,0.7,0.3,1.2,0.3c0.6,0.1,1.7,0.1,3.4,0.1
		c2.5,0,3.3-0.1,3.7-0.1c0.4-0.1,0.8-0.2,1.1-0.4c0.4,0.3,0.9,0.4,1.5,0.4c0.9,0,2.2,0,4,0s3.1,0,4,0c5.3,0,6.8,0.1,7.2,0.2
		c0.4,0.1,0.6,0.1,0.8,0.1c0.9,0,1.7-0.4,2.3-1.3c0.4,0.6,1.2,1,2,1h6.1c1.2,0,2.5-0.9,2.5-2.6c0-1.4,0-3.4-0.1-6.2
		c0-0.3,0-0.5,0-0.8c0.1,0.2,0.3,0.4,0.4,0.5c2.9,3.9,4.8,6.4,5.7,7.6c0.7,0.9,1.5,1.4,2.4,1.4c0.3,0,0.7,0,1.2,0.1
		c0.7,0.1,1.2,0.1,1.5,0.1s0.8,0,1.4,0c0.5,0,0.9,0,1.2,0c1.5,0,2.5-1,2.5-2.5v-5.8c0.6,1.7,1.6,3.2,2.8,4.5
		c2.7,2.9,6.1,4.4,10.4,4.4c3.5,0,6.5-1.1,8.9-3.3v0.1c0,1.3,0.9,2.3,2.2,2.5c0.4,0.1,1.1,0.1,3.3,0.1c2.6,0,3.3-0.1,3.7-0.1
		c1.3-0.2,2.1-1.3,2.1-2.6c0-0.9,0-2.3-0.1-4.2c0-1.2-0.1-2.1-0.1-2.9c0.6,0,1.4,0,2.7,0c1.2,0,2.1,0,2.6,0c0,0.8-0.1,1.8-0.1,3
		c-0.1,1.9-0.1,3.3-0.1,4.3c0,1.2,0.8,2.2,2.1,2.4c0.4,0.1,0.9,0.2,3.7,0.2c1.4,0,2.4,0,3.2-0.1c0.5,0,1-0.1,1.5-0.4
		c0.2-0.1,0.4-0.3,0.6-0.6c0.4,0.5,0.9,0.9,1.7,1c0.4,0.1,1.2,0.2,3.7,0.2c1.4,0,2.5-0.1,3.3-0.2c0.5-0.1,0.8-0.1,1.2-0.3
		c0.2-0.1,0.6-0.4,0.9-0.9c0.4,0.7,1.2,1.2,2.2,1.2c0.9,0,2.2,0,4,0s3.1,0,4,0c5.3,0,6.8,0.1,7.2,0.2c0.4,0.1,0.6,0.1,0.8,0.1
		c0.9,0,1.8-0.5,2.3-1.3c0.3-0.5,0.5-1.2,0.8-3.3c0.2-1.5,0.3-2.5,0.3-3.1C214.1,42.7,213,41.8,211.9,41.8z M62,33.1
		c0.1,0,0.3,0,0.4-0.1c0,0.3,0,0.6,0,0.9C62.3,33.6,62.2,33.3,62,33.1z M73.8,35c-0.3,0-0.6,0-0.8,0c0-0.3,0-0.5,0-0.7
		c0-0.9,0-1.5,0-2c1.5,0,2.1,0.3,2.3,0.4c0.1,0.1,0.4,0.2,0.4,1.2C75.6,34.5,75.6,35,73.8,35z M83.2,40.8c1-0.8,1.7-1.7,2.2-2.5
		c0,1.2-0.1,2.9-0.2,5c0,0.5-0.1,1-0.1,1.4c-0.1-0.3-0.3-0.5-0.4-0.8C84,42.6,83.5,41.6,83.2,40.8z M105.6,32.7c0,0.2,0,0.4,0,0.6
		c-0.1-0.2-0.2-0.3-0.3-0.4C105.4,32.8,105.5,32.7,105.6,32.7z M105.5,40.1c0-0.9,0-1.7,0.1-2.6c0-0.3,0.1-0.5,0.1-0.7
		c0,0.4,0,0.8,0,1.1c0,1,0,2.4-0.1,4.1c-0.3-0.1-0.5-0.2-0.8-0.2C105.2,41.3,105.5,40.7,105.5,40.1z M151.5,39.3
		c-0.8,0-1.3,0.4-2.2,1.1c-0.5,0.4-1,0.7-1.4,1c-0.6,0.3-1.3,0.5-2,0.5c-1.1,0-1.9-0.4-2.6-1.2c-0.7-0.9-1-1.9-1-3.2
		c0-1.3,0.3-2.3,1-3.2c0.7-0.8,1.4-1.2,2.6-1.2c0.7,0,1.3,0.2,2,0.5c0.5,0.2,1,0.6,1.5,1c0.8,0.8,1.4,1.2,2.2,1.2
		c0.6,0,1.2-0.2,1.7-0.7c0.3-0.3,0.6-0.7,1.6-2.3c0.1,2.1,0.1,3.8,0.1,4.9c0,1,0,2.5-0.1,4.4c-1-1.4-1.3-1.9-1.5-2.1
		C152.8,39.6,152.2,39.3,151.5,39.3z M182.2,49.3L182.2,49.3h0.9H182.2z"/>
	<path d="M349.4,36.8l-0.1-0.1c-0.1-0.1-0.9-1.1-2.4-3c-0.8-1-0.8-1.4-0.8-1.4s0,0,0.2-0.1c0.3-0.2,0.7-0.3,1.1-0.3
		c0.1,0,0.1,0,0.2,0c0.4,0.1,0.6,0.1,0.8,0.1c1.3,0,2.3-1,2.3-2.3c0-0.4-0.1-0.7-0.3-1.1c-1.3-2.7-1.8-3.9-2-4.5
		c-0.6-1.6-1.9-1.7-2.3-1.7c-0.1,0-0.3,0-0.5,0h-0.1c-2.7,0.4-5,1.3-6.8,2.6c-1.4,1-2.4,2.2-3,3.5c-0.6-1.3-1.6-2.5-2.8-3.4
		c-2-1.4-4.6-2.2-7.7-2.2c-1.3,0-3,0-5.2,0.1c-5,0.1-5.4,0.2-5.7,0.2c-1,0.2-1.6,0.7-1.9,1.3c-0.4-0.8-1.3-1.5-2.7-1.5
		c-0.9,0-2.2,0-3.9,0.1c-1.7,0-3,0.1-3.8,0.1c-0.9,0-2.1,0-3.9-0.1c-1.8,0-3.1-0.1-4-0.1s-1.4,0.4-1.7,0.7c-0.4-0.4-1.1-0.7-1.8-0.7
		c-0.7,0-1.7,0-3,0.1s-2.2,0.1-2.8,0.1h-0.9l-0.3,0.1c-0.5,0.2-1.5,0.7-1.5,2.4c0,0.9,0,2.2,0,3.9c0,1.6,0,2.9,0,3.7
		c0,0.2-0.3,1-1.5,3.4c-0.1,0.3-0.3,0.5-0.4,0.8c-1.2-2.5-1.5-3.3-1.6-3.6c0-0.9,0.1-2.3,0.2-4c0.1-2,0.2-3.4,0.2-4.4
		c0-1.4-1-2.4-2.4-2.4c-0.7,0-1.7,0-3.1-0.1c-1.5-0.1-2.5-0.1-3.3-0.1c-1.1,0-2.4,0.8-2.4,2.7c0,0.9,0,2.3-0.1,4.1
		c0,0.1,0,0.1,0,0.1c-0.6-1.1-1.3-2.1-2.2-3.1c-2.8-2.9-6.3-4.4-10.5-4.4s-7.7,1.5-10.5,4.4c-2.7,2.9-4.1,6.4-4.1,10.6
		c0,1.6,0.2,3.1,0.6,4.5c-0.1,0-0.3,0-0.4,0c-1.1,0-2.7,0.1-4.8,0.2c-1.4,0.1-2.5,0.1-3.4,0.1c0-0.5,0-1.2,0-1.9v-4.6
		c0.2-4.4,0.3-7.7,0.5-9.9v-0.3c0-0.7-0.2-1.3-0.6-1.8c-0.4-0.4-1-0.7-1.6-0.7c-0.4,0-1,0-1.8,0.1c-0.7,0-1.3,0.1-1.6,0.1
		c-0.3,0-0.8,0-1.5-0.1c-0.7,0-1.3-0.1-1.7-0.1c-1.7,0-2.5,1.2-2.5,2.4c0,1.4,0,3.4,0.1,6.2c0.1,2.7,0.1,4.7,0.1,6
		c0,1.3,0,3.2-0.1,5.7c0,2.6-0.1,4.5-0.1,5.8c0,1.3,0.9,2.3,2.2,2.5h0.1h0.1c0.9,0.1,1.6,0.1,2.1,0.1h0.3l5.2,0.1l3.9,0.1
		c1.6,0,3,0.1,4,0.1c0.7,0,1,0,1.4-0.2c0.5-0.2,1.4-0.7,1.7-2c0.2-1.1,0.4-2.3,0.4-3.7c0.4,0.6,0.9,1.3,1.5,1.8
		c2.8,2.9,6.3,4.4,10.5,4.4s7.7-1.5,10.5-4.4c2.3-2.5,3.7-5.5,4-9c0.4,0.9,0.9,1.9,1.5,3.2c1.3,2.6,2.7,5.3,4,7.9
		c0.6,1.1,1.5,1.4,1.9,1.5c0.3,0.1,0.7,0.1,3.1,0.1c1.3,0,2.3,0,3-0.1c0.5,0,1-0.1,1.4-0.4c0.5-0.3,0.7-0.8,0.9-1.1
		c1.7-3.3,3-5.8,4-7.5c1.3-2.7,2.2-4.5,2.7-5.8c0,0.2,0,0.4,0,0.6c0,1.3-0.1,3.2-0.2,5.8c-0.1,2.7-0.2,4.7-0.2,6
		c0,1.5,1.1,2.5,2.6,2.5c0.9,0,2.2,0,4,0s3.1,0,4,0c5.3,0,6.8,0.1,7.2,0.2c0.4,0.1,0.6,0.1,0.8,0.1c0.9,0,1.7-0.5,2.3-1.3
		c0.4,0.5,0.9,0.9,1.6,1c0.3,0.1,0.9,0.1,3.4,0.1c1.5,0,2.6,0,3.4-0.1l0.7-0.1l0.2-0.1c0.7-0.2,1.5-1,1.5-2.2c0-0.9-0.1-2.1-0.2-3.8
		c-0.1-0.7-0.1-1.4-0.2-1.9c0.8,1.8,1.4,3.3,1.7,4.2c0.3,0.9,0.8,2.1,0.8,2.1v0.1c0.2,0.4,0.5,0.9,1.1,1.2c0.4,0.2,0.7,0.3,1.2,0.3
		c0.6,0.1,1.7,0.1,3.4,0.1c2.5,0,3.3-0.1,3.7-0.1c0.9-0.1,1.4-0.6,1.7-1.1c0.9,1.4,1.6,2,2.6,2c0.1,0,0.3,0,0.5,0
		c2.9-0.5,5.4-1.6,7.4-3.3c2.5-2.1,3.7-4.7,3.7-7.6C350.9,40.1,350.4,38.4,349.4,36.8z M257.7,40.6c-0.8,0.9-1.6,1.3-2.7,1.3
		c-1.2,0-2.1-0.4-2.8-1.2c-0.7-0.8-1.1-1.9-1.1-3.2c0-1.2,0.4-2.2,1.2-3.1c0.8-0.9,1.6-1.3,2.7-1.3c1.2,0,2,0.4,2.8,1.2
		c0.7,0.9,1.1,1.9,1.1,3.2C258.9,38.7,258.5,39.7,257.7,40.6z M312.3,32.6c0,0.3,0,0.6,0,0.8c-0.1-0.2-0.2-0.4-0.4-0.6
		C312.1,32.8,312.2,32.7,312.3,32.6z M312.2,40.1c0-0.9,0-1.7,0.1-2.6c0-0.3,0.1-0.6,0.1-0.8c0,0.3,0,0.6,0,1c0,1,0,2.5-0.1,4.3
		c-0.3-0.1-0.5-0.2-0.8-0.2C311.9,41.3,312.2,40.7,312.2,40.1z M323.7,35c-0.3,0-0.6,0-0.8,0c0-0.3,0-0.5,0-0.7c0-0.9,0-1.5,0-2
		c1.5,0,2.1,0.3,2.3,0.4c0.1,0.1,0.4,0.2,0.4,1.2C325.6,34.5,325.6,35,323.7,35z M338.9,42.3c-0.1,0.1-0.8,0.3-2.9,0.8
		c-0.6,0.1-1,0.4-1.4,0.8c-0.6-1.3-1.1-2.3-1.5-3.1c1.2-1,2-2,2.5-3.1c0.2-0.4,0.3-0.8,0.5-1.2c0.1,0.2,0.3,0.5,0.4,0.7
		s0.2,0.4,2.4,2.8c0.7,0.8,0.7,1.2,0.7,1.3C339.6,41.6,339.6,41.9,338.9,42.3z"/>
</g>
<g>
	<linearGradient id="SVGID_1_" gradientUnits="userSpaceOnUse" x1="43.7668" y1="37.3" x2="62.2667" y2="37.3">
		<stop  offset="0" style="stop-color:#FF0000"/>
		<stop  offset="1" style="stop-color:#FFF0F0"/>
	</linearGradient>
	<path class="st5" d="M61.6,27.9c0-1-0.1-1.8-0.1-2.3c-0.1-0.5-0.4-0.7-1-0.7c-0.9,0-2.3,0.1-4.2,0.2s-3.3,0.2-4.2,0.2
		s-2.2,0-3.9-0.1s-3.1-0.1-3.9-0.1c-0.4,0-0.5,0.1-0.5,0.4v0.2c0,0.3,0.1,2.2,0.3,5.8c0.1,2.3,0.2,4.3,0.2,5.8c0,1.3,0,3.3-0.1,5.9
		c-0.1,2.6-0.1,4.6-0.1,5.9c0,0.3,0.2,0.5,0.5,0.5c0.6,0.2,2,0.2,4.2,0.2c1.1,0,1.6,0,1.6,0c0.7-0.1,1.1-0.2,1.1-0.5
		c0-0.1-0.1-1-0.2-2.6c-0.1-2.2-0.2-4.1-0.2-5.7c0-0.4,0.3-0.7,0.9-0.8c0.1,0,0.6,0,1.4,0c2.5,0,4.4,0.1,5.7,0.2
		c0.9,0.1,1.3,0.1,1.1,0.1c0.2,0,0.4-0.1,0.5-0.3c0.1-0.3,0.2-1.3,0.2-3.1c0-2.1-0.2-3.1-0.6-3.1c-0.8,0-2,0-3.6,0.1
		s-2.8,0.1-3.6,0.1c-0.5,0-0.8,0-1.1-0.1c-0.6-0.2-0.8-0.8-0.8-1.9c0-0.9,0.2-1.5,0.7-1.7c0.2-0.1,0.8-0.1,2-0.1
		c0.9,0,2.2,0.1,4,0.2s3.1,0.2,4,0.2c0.2,0,0.4-0.1,0.4-0.2c0-0.4-0.1-0.8-0.2-1.5C61.7,28.7,61.6,28.2,61.6,27.9z"/>
	<linearGradient id="SVGID_2_" gradientUnits="userSpaceOnUse" x1="63.7668" y1="37.45" x2="84.7668" y2="37.45">
		<stop  offset="0" style="stop-color:#FF0000"/>
		<stop  offset="1" style="stop-color:#FFF0F0"/>
	</linearGradient>
	<path class="st6" d="M80.7,40.4c0-0.2,0.1-0.3,0.4-0.5c1.3-1,2.2-2,2.7-3s0.7-2.4,0.7-4.1c0-2.6-1-4.5-2.9-5.9
		c-1.7-1.2-3.9-1.8-6.5-1.8c-1.3,0-3,0-5.2,0.1c-3.2,0.1-5,0.1-5.4,0.2s-0.6,0.2-0.6,0.4V26c0.2,2.8,0.3,6.6,0.3,11.6
		c0,1.3-0.1,3.3-0.2,5.9s-0.2,4.5-0.2,5.8c0,0.3,0.2,0.5,0.5,0.5s1.3,0.1,3,0.1c1.5,0,2.5,0,3.2-0.1c0.2,0,0.3,0,0.5,0
		c0.1,0,0.2-0.2,0.2-0.4c0-0.8-0.1-2-0.2-3.6s-0.2-2.8-0.2-3.6c0-0.6,0.1-0.9,0.3-0.9c1.3,0,1.9,0,1.9,0c0.7,0.1,1.2,0.3,1.4,0.7
		c1,2.3,1.7,4,2.1,5.2c0.3,0.9,0.6,1.6,0.8,2c0.1,0.2,0.2,0.3,0.2,0.4c0,0,0.2,0.1,0.4,0.1c0.6,0.1,1.6,0.1,3.1,0.1
		c1.8,0,2.9,0,3.4-0.1c0.2,0,0.4-0.1,0.4-0.2c0-0.3-0.7-1.9-2.1-4.9S80.7,40.4,80.7,40.4z M73.8,37c-0.8,0-1.5-0.1-2.3-0.2
		c-0.4-0.1-0.6-0.1-0.6-0.2c0-0.3,0-0.7,0-1.2s0-0.9,0-1.2c0-1.9,0-3,0.1-3.4c0.1-0.3,0.7-0.5,1.8-0.5c1.5,0,2.7,0.2,3.4,0.6
		c0.9,0.6,1.4,1.5,1.4,3C77.6,36,76.4,37,73.8,37z"/>
	<linearGradient id="SVGID_3_" gradientUnits="userSpaceOnUse" x1="86.6408" y1="37.5" x2="104.8708" y2="37.5">
		<stop  offset="0" style="stop-color:#FF0000"/>
		<stop  offset="1" style="stop-color:#FFF0F0"/>
	</linearGradient>
	<path class="st7" d="M104.6,43.8c-0.6,0-1.5,0.1-2.8,0.2c-1.3,0.1-2.1,0.2-2.8,0.2c-1.7,0-2.6,0-2.6,0c-1.3-0.1-2.1-0.3-2.3-0.8
		c-0.1-0.3-0.2-0.8-0.2-1.7c0-0.7,0-1,0-1.1c0.1-0.2,0.4-0.4,0.8-0.4h1.9c2.4,0,3.9,0,4.6,0.1l1.6,0.2c0.3,0,0.5-0.1,0.5-0.4
		c0-0.9,0-1.9,0.1-2.8c0.2-1.7,0.3-2.6,0.3-2.7c0-0.2-0.1-0.4-0.4-0.4c-0.2,0-0.6,0-0.9,0.1c-0.5,0-0.8,0.1-1,0.1
		c-1.5,0.1-3,0.1-4.5,0.1c-0.2,0-0.5,0-0.8,0s-0.6,0-0.7,0c-0.6,0-0.9-0.1-1.1-0.3c-0.2-0.3-0.4-0.8-0.4-1.6c0-0.8,0-1.2,0.1-1.4
		c0.1-0.3,0.5-0.4,1.1-0.4c2.5,0,5.3,0.1,8.4,0.4c0.2,0,0.3,0,0.4,0c0.2,0,0.4-0.1,0.4-0.4s-0.1-1.1-0.2-2.5s-0.2-2.2-0.3-2.5
		c-0.1-0.5-0.4-0.7-1.1-0.7c-0.9,0-2.1,0-3.9,0.1s-3,0.1-3.9,0.1s-2.2,0-3.9-0.1s-3-0.1-3.9-0.1c-0.3,0-0.5,0.1-0.4,0.4v0.2
		c0.1,1.9,0.2,3.3,0.2,4.2c0.1,3.6,0.2,6.1,0.2,7.5c0,1.3-0.1,3.3-0.2,5.9c-0.1,2.6-0.2,4.6-0.2,5.9c0,0.3,0.2,0.5,0.6,0.5
		c0.9,0,2.2,0,4,0s3.1,0,4,0c4.1,0,6.6,0.1,7.5,0.2c0.2,0,0.4,0.1,0.5,0.1c0.2,0,0.4-0.1,0.6-0.3c0.2-0.3,0.4-1.2,0.6-2.6
		c0.2-1.3,0.3-2.3,0.3-2.8C105,44,104.9,43.8,104.6,43.8z"/>
	<linearGradient id="SVGID_4_" gradientUnits="userSpaceOnUse" x1="107.0668" y1="37.45" x2="130.8668" y2="37.45">
		<stop  offset="0" style="stop-color:#FF0000"/>
		<stop  offset="1" style="stop-color:#FFF0F0"/>
	</linearGradient>
	<path class="st8" d="M130.5,25.2c-0.7,0-1.8,0-3.2,0.1c-1.4,0.1-2.5,0.1-3.2,0.1c-0.2,0-0.4,0.2-0.4,0.7c0,1.2,0.1,3.1,0.2,5.6
		s0.2,4.3,0.2,5.6c0,0.9-0.1,1.4-0.2,1.4c-0.2,0-0.5-0.2-0.8-0.5c-1.2-1.6-2.1-2.7-2.7-3.6l-6.6-9c-0.3-0.4-0.5-0.6-0.7-0.6
		c-0.3,0-0.8,0.1-1.4,0.2c-0.7,0.1-1.2,0.2-1.4,0.2c-1,0.1-1.8,0.1-2.5,0.1c-0.5,0-0.7,0.1-0.7,0.4c0,1.3,0.1,3.3,0.2,6
		s0.2,4.7,0.2,6c0,1.3-0.1,3.2-0.2,5.7s-0.2,4.5-0.2,5.7c0,0.4,0.2,0.5,0.5,0.5h6.1c0.3,0,0.5-0.2,0.5-0.6c0-1.4,0-3.4-0.1-6.1
		S114,38.3,114,37c0-0.2,0-0.3,0.1-0.4c0.1,0.1,0.2,0.1,0.3,0.2c1.7,2.1,2.9,3.7,3.7,4.8c3,3.9,4.9,6.4,5.7,7.6
		c0.3,0.4,0.5,0.6,0.8,0.6s0.8,0,1.4,0.1s1.1,0.1,1.4,0.1c0.3,0,0.7,0,1.3,0s1,0,1.3,0s0.5-0.2,0.5-0.5V37.8c0-1.3,0.1-3.4,0.2-6
		s0.2-4.7,0.2-6C130.9,25.4,130.8,25.2,130.5,25.2z"/>
	<linearGradient id="SVGID_5_" gradientUnits="userSpaceOnUse" x1="133.4668" y1="37.45" x2="154.6668" y2="37.45">
		<stop  offset="0" style="stop-color:#FF0000"/>
		<stop  offset="1" style="stop-color:#FFF0F0"/>
	</linearGradient>
	<path class="st9" d="M151.9,41.5c-0.1-0.1-0.2-0.2-0.4-0.2c-0.1,0-0.3,0.2-0.9,0.7c-0.6,0.5-1.2,0.9-1.8,1.2
		c-0.9,0.4-1.9,0.7-2.9,0.7c-1.7,0-3.1-0.7-4.1-2c-0.9-1.2-1.4-2.7-1.4-4.5c0-1.8,0.5-3.2,1.4-4.4c1-1.3,2.4-1.9,4.1-1.9
		c1,0,2,0.2,2.9,0.7c0.6,0.3,1.2,0.8,1.9,1.3c0.5,0.5,0.8,0.7,0.9,0.7c0.1,0,0.3,0,0.4-0.1c0.2-0.2,0.7-1,1.5-2.4s1.2-2.3,1.2-2.5
		s-0.1-0.4-0.4-0.7c-2.2-2.3-5.1-3.5-8.9-3.5c-3.5,0-6.4,1.3-8.6,3.9c-2.2,2.5-3.3,5.5-3.3,9.1c0,3.7,1.1,6.7,3.3,9.1
		c2.3,2.5,5.2,3.7,8.9,3.7c3.6,0,6.4-1.3,8.6-3.8c0.2-0.3,0.4-0.6,0.4-0.7s-0.4-0.8-1.3-2.1C152.5,42.5,152,41.8,151.9,41.5z"/>
	<linearGradient id="SVGID_6_" gradientUnits="userSpaceOnUse" x1="156.5668" y1="37.5" x2="180.2668" y2="37.5">
		<stop  offset="0" style="stop-color:#FF0000"/>
		<stop  offset="1" style="stop-color:#FFF0F0"/>
	</linearGradient>
	<path class="st10" d="M179.8,37.8c0-1.4,0.1-3.4,0.2-6.1s0.2-4.8,0.2-6.1c0-0.3-0.2-0.4-0.5-0.4c-0.4,0-0.9,0-1.6,0.1
		s-1.2,0.1-1.6,0.1s-0.9,0-1.6-0.1s-1.2-0.1-1.6-0.1c-0.3,0-0.4,0.2-0.4,0.5c0,0.9,0,2.1,0.1,3.8s0.1,3,0.1,3.8
		c0,0.4-0.1,0.7-0.4,0.7c-0.4,0.1-1.9,0.1-4.4,0.1c-2.7,0-4.2,0-4.5-0.1c-0.2-0.1-0.3-0.3-0.3-0.7c0-0.9,0.1-2.2,0.2-3.9
		s0.2-3.1,0.2-3.9c0-0.2-0.1-0.3-0.3-0.3c-0.4,0-0.9,0-1.7,0.1s-1.3,0.1-1.7,0.1s-0.9,0-1.6-0.1s-1.3-0.1-1.6-0.1
		c-0.2,0-0.4,0.1-0.4,0.4c0,1.4,0.1,3.4,0.2,6.1s0.2,4.8,0.2,6.1s-0.1,3.2-0.2,5.7s-0.2,4.5-0.2,5.7c0,0.3,0.2,0.5,0.5,0.5
		c0.4,0.1,1.4,0.1,3,0.1c1.8,0,2.9,0,3.3-0.1c0.3-0.1,0.5-0.3,0.5-0.6c0-0.9,0-2.3-0.1-4.1c-0.1-1.8-0.1-3.2-0.1-4.1
		c0-0.5,0.1-0.7,0.4-0.8c0.4-0.1,1.8-0.1,4.3-0.1c2.4,0,3.9,0,4.3,0.1c0.3,0.1,0.4,0.3,0.4,0.8c0,0.9,0,2.3-0.1,4.2
		s-0.1,3.2-0.1,4.2c0,0.2,0.2,0.4,0.5,0.5s1.4,0.1,3.2,0.1c1.3,0,2.3,0,3-0.1c0.3,0,0.4-0.1,0.5-0.1c0.1-0.1,0.2-0.2,0.2-0.5
		c0-1.3-0.1-3.2-0.2-5.7S179.8,39.1,179.8,37.8z"/>
	<linearGradient id="SVGID_7_" gradientUnits="userSpaceOnUse" x1="183.2668" y1="37.5" x2="190.9112" y2="37.5">
		<stop  offset="0" style="stop-color:#FF0000"/>
		<stop  offset="1" style="stop-color:#FFF0F0"/>
	</linearGradient>
	<path class="st11" d="M190.9,25.6c0-0.3-0.2-0.4-0.5-0.4c-0.4,0-0.9,0-1.6,0.1s-1.2,0.1-1.6,0.1s-0.9,0-1.6-0.1s-1.3-0.1-1.6-0.1
		c-0.3,0-0.4,0.1-0.4,0.4c0,1.3,0,3.1,0.1,5.6s0.1,4.4,0.1,5.6c0,1.5-0.1,4.6-0.3,9.4c-0.1,2.3-0.2,3.3-0.2,3.1
		c0,0.3,0.2,0.5,0.5,0.5c0.5,0.1,1.6,0.1,3.3,0.1c1.3,0,2.3,0,3.1-0.1c0.3,0,0.4-0.1,0.5-0.1c0.1-0.1,0.2-0.2,0.2-0.4
		c0-1.4,0-3.5-0.1-6.2c-0.1-2.7-0.1-4.9-0.1-6.2c0-1.3,0.1-3.1,0.2-5.6S190.9,26.8,190.9,25.6z"/>
	<linearGradient id="SVGID_8_" gradientUnits="userSpaceOnUse" x1="193.7408" y1="37.5" x2="211.9708" y2="37.5">
		<stop  offset="0" style="stop-color:#FF0000"/>
		<stop  offset="1" style="stop-color:#FFF0F0"/>
	</linearGradient>
	<path class="st12" d="M211.7,43.8c-0.6,0-1.5,0.1-2.8,0.2c-1.3,0.1-2.1,0.2-2.8,0.2c-1.7,0-2.6,0-2.6,0c-1.3-0.1-2.1-0.3-2.3-0.8
		c-0.1-0.3-0.2-0.8-0.2-1.7c0-0.7,0-1,0-1.1c0.1-0.2,0.4-0.4,0.8-0.4h1.9c2.4,0,3.9,0,4.6,0.1l1.6,0.2c0.3,0,0.5-0.1,0.5-0.4
		c0-0.9,0-1.9,0.1-2.8c0.2-1.7,0.3-2.6,0.3-2.7c0-0.2-0.1-0.4-0.4-0.4c-0.2,0-0.6,0-0.9,0.1c-0.5,0-0.8,0.1-1,0.1
		c-1.5,0.1-3,0.1-4.5,0.1c-0.2,0-0.5,0-0.8,0s-0.6,0-0.7,0c-0.6,0-0.9-0.1-1.1-0.3c-0.2-0.3-0.4-0.8-0.4-1.6c0-0.8,0-1.2,0.1-1.4
		c0.1-0.3,0.5-0.4,1.1-0.4c2.5,0,5.3,0.1,8.4,0.4c0.2,0,0.3,0,0.4,0c0.2,0,0.4-0.1,0.4-0.4s-0.1-1.1-0.2-2.5s-0.2-2.2-0.3-2.5
		c-0.1-0.5-0.4-0.7-1.1-0.7c-0.9,0-2.1,0-3.9,0.1s-3,0.1-3.9,0.1s-2.2,0-3.9-0.1s-3-0.1-3.9-0.1c-0.3,0-0.5,0.1-0.4,0.4v0.2
		c0.1,1.9,0.2,3.3,0.2,4.2c0.1,3.6,0.2,6.1,0.2,7.5c0,1.3-0.1,3.3-0.2,5.9c-0.1,2.6-0.2,4.6-0.2,5.9c0,0.3,0.2,0.5,0.6,0.5
		c0.9,0,2.2,0,4,0s3.1,0,4,0c4.1,0,6.6,0.1,7.5,0.2c0.2,0,0.4,0.1,0.5,0.1c0.2,0,0.4-0.1,0.6-0.3c0.2-0.3,0.4-1.2,0.6-2.6
		c0.2-1.3,0.3-2.3,0.3-2.8C212.1,44,212,43.8,211.7,43.8z"/>
	<linearGradient id="SVGID_9_" gradientUnits="userSpaceOnUse" x1="223.6667" y1="37.8" x2="241.0667" y2="37.8">
		<stop  offset="0" style="stop-color:#FF0000"/>
		<stop  offset="1" style="stop-color:#FFF0F0"/>
	</linearGradient>
	<path class="st13" d="M240.7,44c-1.1,0-2.6,0.1-4.7,0.2c-2.1,0.1-3.7,0.2-4.7,0.2c-0.3,0-0.4,0-0.5,0c-0.2,0-0.3-0.1-0.3-0.3
		c0-0.2,0-0.3,0-0.4c0-0.7,0-1.8,0-3.3v-4.6c0.2-4.4,0.3-7.7,0.5-9.9v-0.2c0-0.2-0.1-0.3-0.2-0.3c-0.4,0-1,0-1.7,0.1
		s-1.3,0.1-1.7,0.1c-0.3,0-0.9,0-1.6-0.1s-1.2-0.1-1.6-0.1s-0.5,0.1-0.5,0.4c0,1.4,0,3.4,0.1,6.1s0.1,4.7,0.1,6.1
		c0,1.3,0,3.2-0.1,5.7s-0.1,4.5-0.1,5.7c0,0.3,0.2,0.5,0.5,0.5c1,0.1,1.7,0.1,2.3,0.1l5.3,0.1c0.5,0,1.8,0,3.9,0.1
		c1.6,0,2.9,0.1,3.9,0.1c0.4,0,0.7,0,0.7,0c0.2-0.1,0.3-0.2,0.4-0.5c0.3-1.5,0.4-3.2,0.4-5.2C241.1,44.1,241,44,240.7,44z"/>
	<linearGradient id="SVGID_10_" gradientUnits="userSpaceOnUse" x1="242.4668" y1="37.45" x2="267.4668" y2="37.45">
		<stop  offset="0" style="stop-color:#FF0000"/>
		<stop  offset="1" style="stop-color:#FFF0F0"/>
	</linearGradient>
	<path class="st14" d="M255,24.5c-3.6,0-6.6,1.3-9,3.8c-2.3,2.5-3.5,5.5-3.5,9.2c0,3.6,1.2,6.7,3.5,9.2c2.4,2.5,5.4,3.8,9,3.8
		s6.7-1.3,9-3.8s3.5-5.5,3.5-9.2c0-3.6-1.2-6.7-3.5-9.2C261.6,25.8,258.6,24.5,255,24.5z M259.2,41.9c-1.2,1.3-2.6,2-4.2,2
		c-1.8,0-3.2-0.6-4.3-1.9c-1-1.2-1.6-2.7-1.6-4.5c0-1.7,0.6-3.2,1.7-4.4c1.1-1.3,2.5-2,4.2-2s3.2,0.6,4.3,1.9
		c1.1,1.2,1.6,2.7,1.6,4.5C260.9,39.2,260.3,40.7,259.2,41.9z"/>
	<linearGradient id="SVGID_11_" gradientUnits="userSpaceOnUse" x1="269.4388" y1="37.5" x2="290.9922" y2="37.5">
		<stop  offset="0" style="stop-color:#FF0000"/>
		<stop  offset="1" style="stop-color:#FFF0F0"/>
	</linearGradient>
	<path class="st15" d="M290.5,25.2c-0.6,0-1.6,0-2.9,0.1s-2.3,0.1-2.9,0.1h-0.6c-0.1,0-0.2,0.2-0.2,0.5c0,0.9,0,2.1,0,3.9s0,3,0,3.9
		c0,0.5-0.6,1.9-1.7,4.2c-0.8,1.7-1.6,3.1-2.2,4.3c-2.4-4.5-3.6-7.1-3.6-7.8c0-0.9,0.1-2.4,0.2-4.3s0.2-3.3,0.2-4.3
		c0-0.2-0.1-0.4-0.4-0.4c-0.7,0-1.8,0-3.2-0.1s-2.5-0.1-3.2-0.1c-0.2,0-0.4,0.2-0.4,0.7c0,0.9,0,2.3-0.1,4.2s0.1,3.2,0.1,4.1
		c0,0.6,1.1,3,3.2,7.2c1.3,2.6,2.7,5.3,4,7.9c0.2,0.3,0.3,0.5,0.6,0.5s1.1,0.1,2.7,0.1c1.3,0,2.2,0,2.8-0.1c0.3,0,0.4,0,0.4-0.1
		s0.1-0.2,0.2-0.4c1.7-3.4,3-5.9,4-7.5c2.3-4.6,3.5-7.3,3.5-8c0-0.9,0-2.3,0-4.1s0-3.2,0-4.1C291.1,25.3,290.9,25.2,290.5,25.2z"/>
	<linearGradient id="SVGID_12_" gradientUnits="userSpaceOnUse" x1="293.3408" y1="37.5" x2="311.5497" y2="37.5">
		<stop  offset="0" style="stop-color:#FF0000"/>
		<stop  offset="1" style="stop-color:#FFF0F0"/>
	</linearGradient>
	<path class="st16" d="M311.3,43.8c-0.6,0-1.5,0.1-2.8,0.2c-1.3,0.1-2.1,0.2-2.8,0.2c-1.7,0-2.6,0-2.6,0c-1.3-0.1-2.1-0.3-2.3-0.8
		c-0.1-0.3-0.2-0.8-0.2-1.7c0-0.7,0-1,0-1.1c0.1-0.2,0.4-0.4,0.8-0.4h1.9c2.4,0,3.9,0,4.6,0.1l1.6,0.2c0.3,0,0.5-0.1,0.5-0.4
		c0-0.9,0-1.9,0.1-2.8c0.2-1.7,0.3-2.6,0.3-2.7c0-0.2-0.1-0.4-0.4-0.4c-0.2,0-0.6,0-0.9,0.1c-0.5,0-0.8,0.1-1,0.1
		c-1.5,0.1-3,0.1-4.5,0.1c-0.2,0-0.5,0-0.8,0s-0.6,0-0.7,0c-0.6,0-0.9-0.1-1.1-0.3c-0.2-0.3-0.4-0.8-0.4-1.6c0-0.8,0-1.2,0.1-1.4
		c0.1-0.3,0.5-0.4,1.1-0.4c2.5,0,5.3,0.1,8.4,0.4c0.2,0,0.3,0,0.4,0c0.2,0,0.4-0.1,0.4-0.4s-0.1-1.1-0.2-2.5s-0.2-2.2-0.3-2.5
		c-0.1-0.5-0.4-0.7-1.1-0.7c-0.9,0-2.1,0-3.9,0.1s-3,0.1-3.9,0.1s-2.2,0-3.9-0.1s-3-0.1-3.9-0.1c-0.3,0-0.5,0.1-0.4,0.4v0.2
		c0.1,1.9,0.2,3.3,0.2,4.2c0.1,3.6,0.2,6.1,0.2,7.5c0,1.3-0.1,3.3-0.2,5.9c-0.1,2.6-0.2,4.6-0.2,5.9c0,0.3,0.2,0.5,0.6,0.5
		c0.9,0,2.2,0,4,0s3.1,0,4,0c4.1,0,6.6,0.1,7.5,0.2c0.2,0,0.4,0.1,0.5,0.1c0.2,0,0.4-0.1,0.6-0.3c0.2-0.3,0.4-1.2,0.6-2.6
		c0.2-1.3,0.3-2.3,0.3-2.8C311.7,44,311.5,43.8,311.3,43.8z"/>
	<linearGradient id="SVGID_13_" gradientUnits="userSpaceOnUse" x1="313.7668" y1="37.45" x2="334.7667" y2="37.45">
		<stop  offset="0" style="stop-color:#FF0000"/>
		<stop  offset="1" style="stop-color:#FFF0F0"/>
	</linearGradient>
	<path class="st17" d="M330.7,40.4c0-0.2,0.1-0.3,0.4-0.5c1.3-1,2.2-2,2.7-3s0.7-2.4,0.7-4.1c0-2.6-1-4.5-2.9-5.9
		c-1.7-1.2-3.9-1.8-6.5-1.8c-1.3,0-3,0-5.2,0.1c-3.2,0.1-5,0.1-5.4,0.2s-0.6,0.2-0.6,0.4V26c0.2,2.8,0.3,6.6,0.3,11.6
		c0,1.3-0.1,3.3-0.2,5.9s-0.2,4.5-0.2,5.8c0,0.3,0.2,0.5,0.5,0.5s1.3,0.1,3,0.1c1.5,0,2.5,0,3.2-0.1c0.2,0,0.3,0,0.5,0
		c0.1,0,0.2-0.2,0.2-0.4c0-0.8-0.1-2-0.2-3.6s-0.2-2.8-0.2-3.6c0-0.6,0.1-0.9,0.3-0.9c1.3,0,1.9,0,1.9,0c0.7,0.1,1.2,0.3,1.4,0.7
		c1,2.3,1.7,4,2.1,5.2c0.3,0.9,0.6,1.6,0.8,2c0.1,0.2,0.2,0.3,0.2,0.4c0,0,0.2,0.1,0.4,0.1c0.6,0.1,1.6,0.1,3.1,0.1
		c1.8,0,2.9,0,3.4-0.1c0.2,0,0.4-0.1,0.4-0.2c0-0.3-0.7-1.9-2.1-4.9S330.7,40.4,330.7,40.4z M323.7,37c-0.8,0-1.5-0.1-2.3-0.2
		c-0.4-0.1-0.6-0.1-0.6-0.2c0-0.3,0-0.7,0-1.2s0-0.9,0-1.2c0-1.9,0-3,0.1-3.4c0.1-0.3,0.7-0.5,1.8-0.5c1.5,0,2.7,0.2,3.4,0.6
		c0.9,0.6,1.4,1.5,1.4,3C327.6,36,326.3,37,323.7,37z"/>
	<linearGradient id="SVGID_14_" gradientUnits="userSpaceOnUse" x1="335.9669" y1="37.55" x2="348.7819" y2="37.55">
		<stop  offset="0" style="stop-color:#FF0000"/>
		<stop  offset="1" style="stop-color:#FFF0F0"/>
	</linearGradient>
	<path class="st18" d="M347.7,37.9c-0.1-0.1-0.8-1.1-2.3-3c-0.8-1-1.3-1.9-1.3-2.6c0-0.8,0.4-1.4,1.1-1.9c0.6-0.4,1.4-0.6,2.2-0.6
		c0.1,0,0.3,0,0.5,0.1s0.4,0.1,0.5,0.1c0.2,0,0.3-0.1,0.3-0.3c0,0,0-0.1-0.1-0.2c-1.1-2.2-1.8-3.8-2.1-4.6c-0.1-0.3-0.2-0.4-0.4-0.4
		c-0.1,0-0.2,0-0.3,0c-2.4,0.4-4.3,1.1-6,2.3c-2,1.4-3,3.2-3,5.3c0,1.5,0.4,2.8,1.2,4c0.1,0.2,0.9,1.1,2.3,2.7
		c0.8,0.9,1.2,1.8,1.2,2.5c0,1.2-0.6,2.1-1.8,2.7c-0.6,0.3-1.7,0.6-3.4,1c-0.2,0-0.3,0.1-0.3,0.2c0,0.4,0.5,1.4,1.4,3
		s1.5,2.5,1.8,2.5c0.1,0,0.1,0,0.2,0c2.5-0.4,4.7-1.4,6.4-2.9c2-1.7,3-3.7,3-6.1C348.9,40.5,348.5,39.2,347.7,37.9z"/>
</g>
</svg>
