<svg id="Layer_1" data-name="Layer 1" xmlns="http://www.w3.org/2000/svg" xmlns:xlink="http://www.w3.org/1999/xlink" viewBox="0 0 316 36"><defs><style>.cls-1{fill:#e90020;}.cls-10,.cls-11,.cls-12,.cls-13,.cls-14,.cls-15,.cls-2,.cls-3,.cls-4,.cls-5,.cls-6,.cls-7,.cls-8,.cls-9{stroke:#000;stroke-miterlimit:10;}.cls-2{fill:url(#linear-gradient);}.cls-3{fill:url(#linear-gradient-2);}.cls-4{fill:url(#linear-gradient-3);}.cls-5{fill:url(#linear-gradient-4);}.cls-6{fill:url(#linear-gradient-5);}.cls-7{fill:url(#linear-gradient-6);}.cls-8{fill:url(#linear-gradient-7);}.cls-9{fill:url(#linear-gradient-8);}.cls-10{fill:url(#linear-gradient-9);}.cls-11{fill:url(#linear-gradient-10);}.cls-12{fill:url(#linear-gradient-11);}.cls-13{fill:url(#linear-gradient-12);}.cls-14{fill:url(#linear-gradient-13);}.cls-15{fill:url(#linear-gradient-14);}</style><linearGradient id="linear-gradient" x1="4.06" y1="21.86" x2="22.38" y2="21.86" gradientTransform="matrix(1, 0, 0, -1, 0, 38)" gradientUnits="userSpaceOnUse"><stop offset="0" stop-color="#cce0f4"/><stop offset="0.06" stop-color="#c3dcf2"/><stop offset="0.17" stop-color="#a9d2ee"/><stop offset="0.31" stop-color="#80c2e7"/><stop offset="0.46" stop-color="#47acde"/><stop offset="0.57" stop-color="#1e9cd7"/><stop offset="0.87" stop-color="#0075be"/><stop offset="0.99" stop-color="#005b97"/></linearGradient><linearGradient id="linear-gradient-2" x1="24.45" y1="21.86" x2="45.39" y2="21.86" xlink:href="#linear-gradient"/><linearGradient id="linear-gradient-3" x1="47.33" y1="21.72" x2="65.41" y2="21.72" xlink:href="#linear-gradient"/><linearGradient id="linear-gradient-4" x1="67.75" y1="22" x2="91.27" y2="22" xlink:href="#linear-gradient"/><linearGradient id="linear-gradient-5" x1="93.87" y1="21.85" x2="115.05" y2="21.85" xlink:href="#linear-gradient"/><linearGradient id="linear-gradient-6" x1="116.96" y1="21.82" x2="140.53" y2="21.82" xlink:href="#linear-gradient"/><linearGradient id="linear-gradient-7" x1="143.67" y1="21.79" x2="151.32" y2="21.79" xlink:href="#linear-gradient"/><linearGradient id="linear-gradient-8" x1="154.42" y1="21.67" x2="172.5" y2="21.67" xlink:href="#linear-gradient"/><linearGradient id="linear-gradient-9" x1="183.95" y1="21.68" x2="201.52" y2="21.68" xlink:href="#linear-gradient"/><linearGradient id="linear-gradient-10" x1="202.87" y1="21.86" x2="227.95" y2="21.86" xlink:href="#linear-gradient"/><linearGradient id="linear-gradient-11" x1="230" y1="21.83" x2="251.45" y2="21.83" xlink:href="#linear-gradient"/><linearGradient id="linear-gradient-12" x1="253.99" y1="21.67" x2="272.07" y2="21.67" xlink:href="#linear-gradient"/><linearGradient id="linear-gradient-13" x1="274.4" y1="21.86" x2="295.34" y2="21.86" xlink:href="#linear-gradient"/><linearGradient id="linear-gradient-14" x1="296.5" y1="21.77" x2="309.34" y2="21.77" xlink:href="#linear-gradient"/></defs><title>Artboard 1</title><polygon points="10.04 30.22 9.78 28.34 9.78 27.68 10.04 27.22 11.77 28.19 13.78 28.19 13.78 30.19 11.78 30.22 10.04 30.22"/><polygon points="62.37 13.78 62.32 12.9 62.86 11.16 64.34 11.15 66.34 11.15 66.34 13.18 62.34 13.18 64.34 13.18 62.63 14.21 62.37 13.78"/><path d="M64.33,13.16v0S64.34,13.14,64.33,13.16Z"/><polygon points="169.47 13.78 169.42 12.9 169.97 11.16 171.44 11.15 173.44 11.15 173.45 13.18 169.45 13.18 171.45 13.18 169.74 14.21 169.47 13.78"/><path d="M171.44,13.16v0S171.44,13.14,171.44,13.16Z"/><polygon points="269 13.72 269 12.85 269.53 11.16 271.01 11.15 273.01 11.15 273.01 13.18 269.01 13.18 271.01 13.18 269.29 14.19 269 13.72"/><path d="M271,13.16v0S271,13.14,271,13.16Z"/><path d="M312.76,19.45l-.08-.12,0,0h0l0,0h0s0,0,0,0h0s0,0,0,0h0l0,0h0l0,0h0s0,0,0,0h0s0,0,0,0h0l0,0h0l0,0h0s0,0,0,0h0s0,0,0,0h0l0,0h0l0,0h0s0,0,0,0h0s0,0,0,0h0s0,0,0,0h0l0,0h0s0,0,0,0h0s0,0,0,0h0s0,0,0,0h0l0,0h0l0,0h0s0,0,0,0h0s0,0,0,0h0l0,0h0l0,0h0s0,0,0,0h0s0,0,0,0h0s0,0,0,0h0l0,0h0s0,0,0,0h0s0,0,0,0h0s0,0,0,0h0l0,0h0l0,0h0s0,0,0,0h0s0,0,0,0h0l0,0h0l0,0h0s0,0,0,0h0s0,0,0,0h0l0,0h0l0,0h0s0,0,0,0h0s0,0,0,0h0l0,0h0l0,0h0s0,0,0,0h0s0,0,0,0h0l0,0h0l0,0h0s0,0,0,0h0s0,0,0,0h0s0,0,0,0h0l0,0h0s0,0,0,0h0s0,0,0,0h0s0,0,0,0h0s0,0,0,0h0s0,0,0,0h0l0,0h0l0,0h0s0,0,0,0h0s0,0,0,0h0l0,0h0l0,0h0s0,0,0,0h0s0,0,0,0h0l0,0h0l0,0h0s0,0,0,0h0s0,0,0,0h0s0,0,0,0h0l0,0h0s0,0,0,0h0s0,0,0,0h0s0,0,0,0h0l0,0h0l0,0h0s0,0,0,0h0s0,0,0,0h0l0,0h0l0,0h0l0,0h0l0,0h0l0,0h0l0,0h0l0,0h0l0,0h0l0,0h0l0,0h0l0,0h0l0,0h0l0,0h0l0,0h0l0,0h0s0,0,0,0h0l0,0h0s0,0,0,0h0l0,0h0l-.1-.13,0,0a2,2,0,0,1-.08-.23.76.76,0,0,1,.2-.14,2.21,2.21,0,0,1,1.15-.29l.22,0a5.24,5.24,0,0,0,.79.08,2.26,2.26,0,0,0,2.32-2.3,2.44,2.44,0,0,0-.26-1.07,46.43,46.43,0,0,1-2-4.45,3.64,3.64,0,0,0-.27-.56,3,3,0,0,0-.31-.43l0,0,0,0,0,0,0,0,0,0,0,0,0,0,0,0,0,0,0,0,0,0,0,0,0,0,0,0,0,0,0,0,0,0,0,0,0,0,0,0,0,0,0,0,0,0,0,0,0,0,0,0,0,0,0,0,0,0,0,0,0,0,0,0,0,0,0,0,0,0,0,0,0,0,0,0,0,0,0,0,0,0,0,0,0,0,0,0,0,0,0,0,0,0,0,0,0,0,0,0,0,0,0,0,0,0,0,0,0,0,0,0,0,0,0,0,0,0,0,0,0,0,0,0,0,0,0,0,0,0,0,0,0,0,0,0,0,0,0,0,0,0,0,0,0,0,0,0,0,0,0,0,0,0,0,0,0,0,0,0,0,0,0,0,0,0,0,0,0,0,0,0,0,0,0,0,0,0,0,0,0,0,0,0,0,0,0,0,0,0,0,0,0,0,0,0-.05-.06A2.37,2.37,0,0,0,306.52,1l-.48,0h-.11A15.36,15.36,0,0,0,299.1,3.7a9.16,9.16,0,0,0-2.94,3.37l0,0,0,0,0,0,0,0,0,0,0,0,0,0,0,0,0,0,0,0,0,0,0,0,0,0,0,0,0,0,0,0,0,0,0,0,0,0,0,0,0,0,0,0,0,0,0,0,0,0,0,0,0,0,0,0,0,0,0,0,0,0,0,0,0,0,0,0,0,0,0,0,0,0,0,0,0,0,0,0,0,0,0,0a8.75,8.75,0,0,0-1.69-1.57,13,13,0,0,0-7.7-2.18c-1.3,0-3,0-5.23.07a48.64,48.64,0,0,0-5.69.24,2.57,2.57,0,0,0-1.87,1.23s0,0,0,0l0,0,0,0,0,0,0,0,0,0,0,0A3,3,0,0,0,270,1.73c-.87,0-2.17,0-3.92.07s-3,.07-3.81.07-2.14,0-3.86-.07-3.09-.07-4-.07a2.46,2.46,0,0,0-1.73.66,2.58,2.58,0,0,0-1.79-.66c-.68,0-1.67,0-3,.1s-2.22.09-2.83.09h-.89l-.31.1a2.31,2.31,0,0,0-1.53,2.42c0,.8,0,2,0,3.56a2.36,2.36,0,0,0-.4-1.11l0,0,0,0,0,0,0,0,0,0,0,0,0,0,0,0,0,0,0,0,0,0,0,0,0,0,0,0,0,0,0,0,0,0,0,0,0,0,0,0,0,0,0,0,0,0,0,0,0,0,0,0,0,0,0,0,0,0,0,0,0,0,0,0,0,0,0,0,0,0,0,0,0,0,0,0,0,0,0,0,0,0,0,0,0,0,0,0,0,0,0,0,0,0,0,0,0,0,0,0,0,0,0,0,0,0,0,0,0,0,0,0,0,0,0,0,0,0,0,0,0,0,0,0,0,0,0,0,0,0,0,0,0,0,0,0,0,0,0,0,0,0,0,0,0,0,0,0,0,0,0,0,0,0,0,0,0,0,0,0,0,0,0,0,0,0,0,0,0,0,0,0,0,0,0,0,0,0,0,0,0,0,0,0,0,0,0,0,0,0,0,0,0,0,0,0,0,0,0,0a2.44,2.44,0,0,0-2-1c-.7,0-1.74,0-3.13-.09s-2.54-.09-3.28-.09a2.4,2.4,0,0,0-2.35,2.65c0,.88,0,2.23-.09,4h0l0,0,0,0,0,0c0,.14,0,.12,0,.11l0,0,0,0,0,0,0,0,0,0,0,0,0,0,0,0,0,0,0,0,0,0,0,0,0,0,0,0,0,0,0,0,0,0,0,0,0,0,0,0,0,0,0,0,0,0,0,0,0,0,0,0,0,0,0,0,0,0,0,0a15.75,15.75,0,0,0-1.24-1.51,14.54,14.54,0,0,0-20.92,0,14.91,14.91,0,0,0-4.06,10.57,16.2,16.2,0,0,0,.6,4.47,3,3,0,0,0-.43,0c-1.1,0-2.68.06-4.84.17l-.4,0V18.39c.17-4.38.33-7.71.47-9.86l0-.28A2.38,2.38,0,0,0,196,6.83l0,0,0,0,0,0,0,0,0,0,0,0,0,0,0,0,0,0,0,0,0,0,0,0,0,0,0,0,0,0,0,0,0,0,0,0,0,0,0,0,0,0,0,0,0,0,0,0,0,0,0,0,0,0,0,0,0,0,0,0,0,0s0,0,0,0l0,0,0,0,0,0,0,0,0,0,0,0,0,0,0,0,0,0,0,0,0,0,0,0,0,0,0,0,0,0,0,0,0,0,0,0,0,0,0,0,0,0,0,0,0,0,0,0,0,0,0,0,0,0,0,0,0,0,0,0,0,0,0,0,0,0,0,0,0,0,0,0,0,0,0,0,0,0,0,0,0,0,0,0,0,0,0,0,0,0,0,0,0,0,0,0,0,0,0,0,0,0,0,0,0,0,0,0,0,0,0,0,0,0,0,0,0,0,0,0,0,0,0,0,0,0,0,0,0,0,0,0,0,0,0,0a2.57,2.57,0,0,0-.28-.37,2.24,2.24,0,0,0-1.63-.69q-.62,0-1.83.06t-1.62.06c-.32,0-.8,0-1.46,0s-1.3-.06-1.67-.06a2.38,2.38,0,0,0-2.53,2.39c0,1.37,0,3.45.12,6.17s.12,4.71.12,6.05,0,3.17-.06,5.71-.06,4.49-.06,5.77a2.52,2.52,0,0,0,.6,1.66l0,0,0,0,0,0,0,0,0,0,0,0,0,0,0,0,0,0,0,0,0,0,0,0,0,0,0,0,0,0,0,0,0,0,0,0,0,0,0,0,0,0,0,0,0,0,0,0,0,0,0,0,0,0,0,0,0,0,0,0,0,0,0,0,0,0,0,0,0,0,0,0,0,0,0,0,0,0,0,0,0,0,0,0,0,0,0,0,0,0,0,0,0,0,0,0,0,0,0,0,0,0,0,0,0,0,0,0,0,0,0,0,0,0,0,0,0,0,0,0,0,0,0,0,0,0,0,0,0,0,0,0,0,0,0,0,0,0,0,0,0,0,0,0,0,0,0,0,0,0,0,0,0,0,0,0,0,0,0,0,0,0,0,0,0,0,0,0,0,0,0,0,0,0,0,0,0,0,0,0,0,0,0,0,0,0,0,0,0,0,0,0,0,0,0,0,0,0,0,0a2.64,2.64,0,0,0,1.6.9l.11,0h.11c.87,0,1.57.08,2.1.08h.26l5.24.07,3.92.06c1.64,0,3,.07,4,.07a4,4,0,0,0,1.4-.15,2.56,2.56,0,0,0,1.66-2,25.64,25.64,0,0,0,.43-3.7s0,0,0,0l0,0,0,0,0,0,0,0,0,0,0,0,0,0,0,0,0,0,0,0,0,0,0,0,0,0,0,0,0,0,0,0,0,0,0,0,0,0,0,0,0,0,0,0c.25.32.52.63.8.93a14.67,14.67,0,0,0,21,0,14.44,14.44,0,0,0,3.74-7.38l2.81,5.53a3,3,0,0,0,.25.4l0,.05,0,0,0,0,0,0,0,0,0,0,0,0,0,0,0,0,0,0,0,0,0,0,0,0,0,0,0,0,0,0,0,0,0,0,0,0,0,0,0,0,0,0,0,0,0,0,0,0,0,0,0,0,0,0,0,0,0,0,0,0,0,0,0,0,0,0,0,0,0,0,0,0,0,0,0,0,0,0,0,0,0,0,0,0,0,0,0,0,0,0,0,0,0,0,0,0,0,0,0,0,0,0,0,0,0,0,0,0,0,0,0,0,0,0,0,0,0,0,0,0,0,0,0,0,0,0,0,0,0,0,0,0,0,0,0,0,0,0,0,0,0,0,0,0,0,0,0,0,0,0,0,0,0,0,0,0,0,0,0,0,0,0,0,0,0,0,0,0,0,0,0,0,0,0,0,0,0,0,0,0,0,0,0,0,0,0,0,0,0,0,0,0,0,0,0,0a2.91,2.91,0,0,0,.26.33,2.74,2.74,0,0,0,1.47.88,18.14,18.14,0,0,0,3.12.11c1.32,0,2.28,0,3-.08a2.71,2.71,0,0,0,1.43-.44,2.58,2.58,0,0,0,.85-1.14q2-3.87,3.28-6.27c0,.51,0,1,0,1.36a2.46,2.46,0,0,0,.45,1.46l0,0,0,0,0,0,0,0,0,0,0,0,0,0,0,0,0,0,0,0,0,0,0,0,0,0,0,0,0,0,0,0,0,0,0,0,0,0,0,0,0,0,0,0,0,0,0,0,0,0,0,0,0,0,0,0,0,0,0,0,0,0,0,0,0,0,0,0,0,0,0,0,0,0,0,0,0,0,0,0,0,0,0,0,0,0,0,0,0,0,0,0,0,0,0,0,0,0,0,0,0,0,0,0,0,0,0,0,0,0,0,0,0,0,0,0,0,0,0,0,0,0,0,0,0,0,0,0,0,0,0,0,0,0,0,0,0,0,0,0,0,0,0,0,0,0,0,0,0,0,0,0,0,0,0,0,0,0,0,0,0,0,0,0,0,0,0,0,0,0,0,0,0,0,0,0,0,0,0,0,0,0,0,0,0,0,0,0,0,0,0,0,0,0,0,0,0,0,0,0a2.53,2.53,0,0,0,2.16,1.09l4,0,4,0c5.28,0,6.79.1,7.21.16a6.84,6.84,0,0,0,.81.07,2.65,2.65,0,0,0,2.28-1.3,2.65,2.65,0,0,0,1.6,1,18.56,18.56,0,0,0,3.43.15c1.52,0,2.63,0,3.38-.08l.74-.05.24-.08a2.27,2.27,0,0,0,1.53-2.25c0-.56,0-1.29-.1-2.18l0,0,0,0,0,0,0,0,0,0,0,0,0,0,0,0,0,0,0,0,0,0,0,0,0,0,0,0,0,0,0,0,0,0,0,0,0,0,0,0,0,0,0,0,0,0,0,0,0,0,0,0,0,0,0,0,0,0,0,0,0,0,0,0,0,0,0,0,0,0,0,0,0,0,0,0,0,0,0,0,0,0,0,0,0,0,0,0,0,0,0,0,0,0,0,0,0,0,0,0,0,0,0,0,0,0,0,0,0,0,0,0,0,0,0,0,0,0,0,0,0,0,0,0,0,0,0,0,0,0,0,0,0,0,0,0,0,0,0,0,0,0,0,0,0,0,0,0,0,0,0,0,0,0,0,0,0,0,0,0,0,0,0,0,0,0,0,0,0,0,0,0,0,0,0,0,0,0,0,0a2.27,2.27,0,0,0,.7.63,3.1,3.1,0,0,0,1.18.34,31.31,31.31,0,0,0,3.38.12,26.16,26.16,0,0,0,3.65-.13,2.33,2.33,0,0,0,1.72-1s0,0,0,0l0,0,0,0,0,0,0,0,0,0,0,0,0,0,0,0,0,0,0,0,0,0c.75,1.05,1.41,1.52,2.32,1.52a5.1,5.1,0,0,0,.55,0,14.91,14.91,0,0,0,7.39-3.31,9.72,9.72,0,0,0,3.71-7.64A10.45,10.45,0,0,0,312.76,19.45Zm-98.22.72A4.61,4.61,0,0,1,215.73,17a3.37,3.37,0,0,1,2.68-1.31,3.89,3.89,0,0,1,.85.09c0,.11,0,.22,0,.33a4.5,4.5,0,0,1-1.16,3.09,3.42,3.42,0,0,1-2.71,1.3,4.63,4.63,0,0,1-.85-.08A2.46,2.46,0,0,1,214.54,20.17Zm84.72.71a5.37,5.37,0,0,1-.69.25,7.06,7.06,0,0,0,.42-.75,8.78,8.78,0,0,0,.41-1.09s0,0,0,0l0,0,0,0,0,0,0,0,0,0,0,0,0,0,0,0,0,0,0,0,0,0,0,0,0,0,0,0,0,0s0,0,0,0l.07.1C300,20.26,299.91,20.55,299.26,20.88Zm-56.83-8.72a5.7,5.7,0,0,1-.22.66v0c.11-1.5.17-2.69.19-3.62C242.42,10.43,242.43,11.44,242.43,12.16Z"/><path d="M177,25.39l0,0,0,0,0,0,0,0,0,0,0,0,0,0,0,0,0,0,0,0,0,0,0,0,0,0,0,0,0,0,0,0,0,0,0,0,0,0,0,0,0,0,0,0,0,0,0,0,0,0,0,0,0,0,0,0,0,0,0,0,0,0,0,0,0,0,0,0,0,0,0,0,0,0,0,0,0,0,0,0,0,0,0,0,0,0h0a2.37,2.37,0,0,0,.23-1,25.2,25.2,0,0,1,.13-2.61c.17-1.68.24-2.26.27-2.45l.06-.2v-.35a2.49,2.49,0,0,0-.41-1.28l0,0,0,0,0,0,0,0,0,0,0,0,0,0s0,0,0,0A2.33,2.33,0,0,0,177,13.41c0-.25,0-.77-.19-2.67a23,23,0,0,0-.31-2.67,3,3,0,0,0-.58-1.23l0,0,0,0,0,0,0,0,0,0,0,0,0,0,0,0,0,0,0,0,0,0,0,0,0,0,0,0,0,0,0,0,0,0,0,0,0,0,0,0,0,0,0,0,0,0,0,0,0,0,0,0,0,0,0,0,0,0,0,0,0,0,0,0,0,0,0,0,0,0,0,0,0,0,0,0,0,0,0,0,0,0,0,0,0,0,0,0,0,0,0,0,0,0,0,0,0,0,0,0,0,0,0,0,0,0,0,0,0,0,0,0,0,0,0,0,0,0,0,0,0,0,0,0,0,0,0,0,0,0,0,0,0,0,0,0,0,0,0,0,0,0,0,0,0,0,0,0,0,0,0,0,0,0,0,0,0,0,0,0,0,0,0,0,0,0,0,0,0,0,0,0,0,0,0,0,0,0,0,0,0,0,0,0,0,0,0,0,0,0,0,0,0,0,0,0,0,0a3,3,0,0,0-2.5-1.14c-.87,0-2.17,0-3.92.07s-3,.07-3.81.07-2.14,0-3.86-.07-3.09-.07-4-.07a2.42,2.42,0,0,0-1.84.77,1.31,1.31,0,0,0-.17.24,2.43,2.43,0,0,0-2.07-1c-.39,0-.95,0-1.71.06s-1.17.05-1.51.05-.86,0-1.55-.05-1.35-.06-1.74-.06A2.36,2.36,0,0,0,142.16,3l0,0,0,0,0,0,0,0,0,0,0,0,0,0,0,0,0,0,0,0,0,0,0,0A2.51,2.51,0,0,0,140,1.75c-.37,0-.93,0-1.67.06s-1.14.05-1.46.05-.82,0-1.47-.05-1.29-.06-1.66-.06a2.41,2.41,0,0,0-2.44,2.54c0,.9,0,2.18.13,3.94.05,1,.08,1.86.1,2.56-.52,0-1.27,0-2.32,0,.07-1.15.11-2.06.11-2.75a2.31,2.31,0,0,0-.41-1.34l0,0,0,0,0,0,0,0,0,0,0,0,0,0,0,0,0,0,0,0,0,0,0,0,0,0,0,0,0,0,0,0,0,0,0,0,0,0,0,0,0,0,0,0,0,0,0,0,0,0,0,0,0,0,0,0,0,0,0,0,0,0,0,0,0,0,0,0,0,0,0,0,0,0,0,0,0,0,0,0,0,0,0,0,0,0,0,0,0,0,0,0,0,0,0,0,0,0,0,0,0,0,0,0,0,0,0,0,0,0,0,0,0,0,0,0,0,0,0,0,0,0,0,0,0,0,0,0,0,0,0,0,0,0,0,0,0,0,0,0,0,0,0,0,0,0,0,0,0,0,0,0,0,0,0,0,0,0,0,0,0,0,0,0,0,0,0,0,0,0,0,0,0,0,0,0,0,0,0,0,0,0,0,0,0,0,0,0,0,0,0,0,0,0,0,0,0,0,0,0a2.25,2.25,0,0,0-1.92-1c-.4,0-1,0-1.79.05s-1.25.05-1.6.05-.86,0-1.55-.05-1.35-.06-1.74-.06A2.33,2.33,0,0,0,114.9,4.1v.06a13.93,13.93,0,0,0-9.22-3A12.89,12.89,0,0,0,95.54,5.72c-.1.11-.19.24-.28.35s0,0,0,0l0,0,0,0,0,0c.06.09,0,.08,0,.07l0,0,0,0,0,0,0,0,0,0,0,0a.08.08,0,0,0,0,0l0,0,0,0,0,0,0,0,0,0,0,0,0,0,0,0,0,0,0,0,0,0,0,0,0,0,0,0,0,0,0,0,0,0,0,0,0,0,0,0,0,0,0,0,0,0,0,0,0,0,0,0,0,0,0,0,0,0,0,0,0,0,0,0,0,0,0,0,0,0,0,0,0,0,0,0,0,0,0,0,0,0,0,0,0,0,0,0,0,0,0,0,0,0,0,0,0,0,0,0,0,0,0,0,0,0,0,0,0,0,0,0,0,0,0,0,0,0,0,0,0,0,0,0,0,0s0,0,0,0l0,0,0,0,0,0,0,0,0,0,0,0,0,0,0,0,0,0a2.3,2.3,0,0,0-1.91-1c-.74,0-1.81,0-3.26.09S85.25,2,84.56,2a2.41,2.41,0,0,0-2.37,2.65c0,1.27.07,3.18.21,5.68,0,.45,0,.87.07,1.28L79,6.87a1.79,1.79,0,0,0-.14-.18l0,0,0,0,0,0,0,0,0,0,0,0,0,0,0,0,0,0,0,0,0,0,0,0,0,0,0,0,0,0,0,0,0,0a.05.05,0,0,0,0,0l0,0,0,0,0,0,0,0,0,0,0,0,0,0,0,0,0,0,0,0,0,0,0,0,0,0,0,0,0,0,0,0,0,0,0,0,0,0,0,0,0,0,0,0,0,0,0,0,0,0,0,0,0,0,0,0,0,0,0,0,0,0,0,0,0,0,0,0,0,0,0,0,0,0,0,0,0,0,0,0,0,0,0,0,0,0,0,0s0,0,0,0l0,0,0,0,0,0,0,0,0,0,0,0,0,0,0,0,0,0,0,0,0,0,0,0,0,0,0,0,0,0,0,0,0,0,0,0,0,0,0,0,0,0,0,0,0,0,0,0,0,0,0,0,0,0,0,0,0,0,0,0,0,0,0,0,0,0,0,0,0,0,0,0,0,0a2.77,2.77,0,0,0-2.15-1.27A10.29,10.29,0,0,0,72,1.65c-.61.11-1,.18-1.21.2-.93.09-1.71.13-2.33.13a2.57,2.57,0,0,0-2.39,1.26s0,0,0,0l0,0,0,0,0,0,0,0,0,0,0,0a3,3,0,0,0-2.54-1.19c-.87,0-2.17,0-3.92.07s-3,.07-3.81.07-2.14,0-3.86-.07-3.09-.07-4-.07A2.42,2.42,0,0,0,46,2.58a2.36,2.36,0,0,0-.6,1.78l0,.2c0,.55.05,1,.07,1.51a8.72,8.72,0,0,0-2.15-2.18,13,13,0,0,0-7.7-2.18c-1.3,0-3,0-5.23.07A48.64,48.64,0,0,0,24.67,2a3,3,0,0,0-1.36.61,3,3,0,0,0-2.38-1.07c-1,0-2.43.07-4.38.22S13.36,2,12.47,2,10.3,2,8.56,1.94s-3.09-.06-4-.06a2.52,2.52,0,0,0-1.87.75,2.46,2.46,0,0,0-.65,1.86v.13q0,.4.34,5.87c.14,2.29.21,4.22.21,5.72,0,1.27,0,3.22-.13,5.79s-.13,4.61-.13,5.93a2.49,2.49,0,0,0,.56,1.6l0,0,0,0,0,0,0,0,0,0,0,0,0,0,0,0,0,0,0,0,0,0,0,0,0,0,0,0,0,0,0,0,0,0,0,0,0,0,0,0,0,0,0,0,0,0,0,0,0,0,0,0,0,0,0,0,0,0,0,0,0,0,0,0,0,0,0,0,0,0,0,0,0,0,0,0,0,0,0,0,0,0,0,0,0,0,0,0,0,0,0,0,0,0,0,0,0,0,0,0,0,0,0,0,0,0,0,0,0,0,0,0,0,0,0,0,0,0,0,0,0,0,0,0,0,0,0,0,0,0,0,0,0,0,0,0,0,0H5l0,0,0,0,0,0,0,0,0,0,0,0,0,0,0,0,0,0,0,0,0,0,0,0,0,0,0,0,0,0,0,0,0,0,0,0,0,0,0,0,0,0,0,0,0,0,0,0,0,0,0,0,0,0,0,0,0,0,0,0a2.68,2.68,0,0,0,1.51.93,21.88,21.88,0,0,0,4.7.28h.2v0h0l0,0h0l0,0,1.47-.1c2.63-.19,2.9-1.91,2.92-2.43l0-.12,0-.19c0-.19-.07-1-.16-2.53s-.17-3.07-.19-4.39h.27c2.47,0,4.32.06,5.51.17l.32,0c0,1.08-.05,2-.05,2.68a2.44,2.44,0,0,0,.59,1.62l0,0,0,0,0,0,0,0,0,0,0,0,0,0,0,0,0,0,0,0,0,0,0,0,0,0,0,0,0,0,0,0,0,0,0,0,0,0,0,0,0,0,0,0,0,0,0,0,0,0,0,0,0,0,0,0,0,0,0,0,0,0,0,0,0,0,0,0,0,0,0,0,0,0,0,0,0,0,0,0,0,0,0,0,0,0,0,0,0,0,0,0,0,0,0,0,0,0,0,0,0,0,0,0,0,0,0,0,0,0,0,0,0,0,0,0,0,0,0,0,0,0,0,0,0,0,0,0,0,0,0,0,0,0,0,0,0,0,0,0,0,0,0,0,0,0,0,0,0,0,0,0,0,0,0,0,0,0,0,0,0,0,0,0,0,0,0,0,0,0,0,0,0,0,0,0,0,0,0,0,0,0,0,0,0,0,0,0,0,0,0,0,0,0,0,0,0,0s0,0,0,0a2.67,2.67,0,0,0,1.55.92,18.56,18.56,0,0,0,3.43.15c1.52,0,2.63,0,3.38-.08l.74,0,.24-.08a2.27,2.27,0,0,0,1.53-2.25c0-.56,0-1.29-.1-2.18l0,0,0,0,0,0,0,0,0,0,0,0,0,0,0,0,0,0,0,0,0,0,0,0,0,0,0,0,0,0,0,0,0,0,0,0,0,0,0,0,0,0,0,0,0,0,0,0,0,0,0,0,0,0,0,0,0,0,0,0,0,0,0,0,0,0,0,0,0,0,0,0,0,0,0,0,0,0,0,0,0,0,0,0,0,0,0,0,0,0,0,0,0,0,0,0,0,0,0,0,0,0,0,0,0,0,0,0,0,0,0,0,0,0,0,0,0,0,0,0,0,0,0,0,0,0,0,0,0,0,0,0,0,0,0,0,0,0,0,0,0,0,0,0,0,0,0,0,0,0,0,0,0,0,0,0,0,0,0,0,0,0,0,0,0,0,0,0,0,0,0,0,0,0,0,0,0,0,0,0a2.27,2.27,0,0,0,.7.63,3.05,3.05,0,0,0,1.18.34,31.31,31.31,0,0,0,3.38.12,26.16,26.16,0,0,0,3.65-.13,2.75,2.75,0,0,0,1.07-.39,2.73,2.73,0,0,0,1.48.41l4,0,4,0c5.28,0,6.79.1,7.21.16a6.84,6.84,0,0,0,.81.07,2.64,2.64,0,0,0,2.26-1.27,2.42,2.42,0,0,0,2,1h6.08a2.46,2.46,0,0,0,2.47-2.62c0-1.37,0-3.45-.12-6.17,0-.26,0-.51,0-.76l.11.14h0l.08.11h0l1.05,1.4C83.36,29.84,85,32,85.75,33h0l0,0a3,3,0,0,0,2.35,1.37c.27,0,.68,0,1.22.06s1.19.08,1.52.08.75,0,1.36,0l1.19,0A2.41,2.41,0,0,0,95.93,32V27.08l0,0,0,0,0,0,0,0,0,0,0,0,0,0,0,0,0,0,0,0,0,0,0,0,0,0,0,0,0,0,0,0,0,0,0,0,0,0,0,0,0,0,0,0,0,0,0,0,0,0,0,0,0,0,0,0,0,0,0,0,0,0,0,0,0,0,0,0,0,0,0,0,0,0,0,0,0,0,0,0,0,0,0,0,0,0,0,0,0,0,0,0,0,0,0,0,0,0,0,0,0,0,0,0,0,0,0,0,0,0,0,0,0,0,0,0,0,0,0,0,0,0,0,0,0,0,0,0,0,0c.27.36.57.72.88,1.06a13.44,13.44,0,0,0,10.37,4.4,12.76,12.76,0,0,0,8.42-2.9s0,0,0,0l0,0,0,0,0,0,0,0,0,0,0,0,0,0,0,0,0,0,0,0,0,0,0,0,0,0,0,0,0,0,0,0,0,0,0,0,0,0,0,0,0,0,0,0,0,0,0,0,0,0,0,0,0,0,0,0,0,0,0,0,0,0,0,0,0,0,0,0a2.71,2.71,0,0,0,1.61.89,23.3,23.3,0,0,0,3.34.13,23.51,23.51,0,0,0,3.67-.14,2.54,2.54,0,0,0,2.11-2.58c0-.93,0-2.33-.09-4.17,0-1.17-.06-2.15-.08-2.94l2.13,0c-.06,1.4-.09,2.49-.09,3.28a2.35,2.35,0,0,0,.57,1.57l0,0,0,0,0,0,0,0,0,0,0,0,0,0,0,0,0,0,0,0,0,0,0,0,0,0,0,0,0,0,0,0,0,0,0,0,0,0,0,0,0,0,0,0,0,0,0,0,0,0,0,0,0,0,0,0,0,0,0,0,0,0,0,0,0,0,0,0,0,0,0,0,0,0,0,0,0,0,0,0,0,0,0,0,0,0,0,0,0,0,0,0,0,0,0,0,0,0,0,0,0,0,0,0,0,0,0,0,0,0,0,0,0,0,0,0,0,0,0,0,0,0,0,0,0,0,0,0,0,0,0,0,0,0,0,0,0,0,0,0,0,0,0,0,0,0,0,0,0,0,0,0,0,0,0,0,0,0,0,0,0,0,0,0,0,0,0,0,0,0,0,0,0,0,0,0,0,0,0,0,0,0,0,0,0,0,0,0,0,0,0,0,0,0,0,0,0,0,0,0a2.67,2.67,0,0,0,1.52.9,19.28,19.28,0,0,0,3.67.15c1.38,0,2.43,0,3.19-.11a2.89,2.89,0,0,0,1.46-.43,2.24,2.24,0,0,0,.62-.64,2.66,2.66,0,0,0,1.65,1,20.69,20.69,0,0,0,3.66.18,26.89,26.89,0,0,0,3.31-.16,3,3,0,0,0,1.18-.31,2.36,2.36,0,0,0,.86-.86,2.52,2.52,0,0,0,2.22,1.18l4,0,4,0c5.28,0,6.79.1,7.21.16a6.84,6.84,0,0,0,.81.07,2.67,2.67,0,0,0,2.31-1.33,9.44,9.44,0,0,0,.81-3.33,23.41,23.41,0,0,0,.32-3.07,2.8,2.8,0,0,0-.44-1.57Zm-71.29-5.31a4.88,4.88,0,0,1,1-3.18,3,3,0,0,1,2.57-1.18,4.27,4.27,0,0,1,2,.48,7.53,7.53,0,0,1,1.46,1c.85.75,1.36,1.21,2.21,1.21l.36,0c0,.69,0,1.48-.09,2.35h0l0,0,0,0,0,0,0,0,0,0,0,0,0,0,0,0,0,0,0,0,0,0,0,0,0,0,0,0,0,0,0,0,0,0,0,0,0,0,0,0,0,0,0,0,0,0,0,0,0,0,0,0,0,0,0,0,0,0,0,0,0,0,0,0,0,0,0,0,0,0,0,0,0,0,0,0-.14-.18c-.08-.11-.15-.18-.2-.24a2.47,2.47,0,0,0-1.83-.85c-.83,0-1.33.43-2.16,1.14a7.06,7.06,0,0,1-1.41,1,4.57,4.57,0,0,1-2,.47,4.34,4.34,0,0,1-.53-.05C105.77,20.35,105.75,20.22,105.75,20.08Z"/><path class="cls-1" d="M24,8.55c-.05-1-.07-1.76-.07-2.27s-.4-.72-1-.72q-1.41,0-4.23.21T14.47,6c-.88,0-2.19,0-4-.05s-3.06,0-3.93,0c-.36,0-.54.15-.53.44l0,.21q0,.4.34,5.84.21,3.51.21,5.84c0,1.3,0,3.25-.13,5.86s-.13,4.56-.13,5.86q0,.42.51.54a23.7,23.7,0,0,0,4.24.23c1.07,0,1.6,0,1.6,0,.7-.05,1-.22,1.07-.51,0-.1-.07-1-.17-2.63-.14-2.17-.21-4.08-.21-5.75,0-.41.3-.66.9-.76.11,0,.57,0,1.39,0q3.81,0,5.7.18a6.58,6.58,0,0,1,1.11.12A.47.47,0,0,0,23,21a13,13,0,0,0,.19-3.13c0-2.06-.19-3.09-.58-3.09-.81,0-2,0-3.63.13s-2.82.13-3.63.13A4.64,4.64,0,0,1,14.26,15c-.56-.15-.84-.79-.84-1.9,0-.93.22-1.49.65-1.69a8.32,8.32,0,0,1,2-.12c.89,0,2.23.08,4,.23s3.12.23,4,.23c.23,0,.35-.06.35-.19A8.71,8.71,0,0,0,24.23,10,14.22,14.22,0,0,1,24,8.55Z"/><path class="cls-1" d="M43.12,21c0-.16.13-.34.4-.53a8.33,8.33,0,0,0,2.72-3A9.54,9.54,0,0,0,47,13.4a6.78,6.78,0,0,0-2.87-5.89A11,11,0,0,0,37.57,5.7c-1.29,0-3,0-5.19.07Q27.58,5.88,27,6c-.38.07-.57.21-.55.4l0,.25c.22,2.78.33,6.64.33,11.6q0,1.95-.18,5.85t-.18,5.84q0,.43.51.54a23,23,0,0,0,3,.11c1.46,0,2.54,0,3.23-.07l.49,0c.11,0,.16-.15.16-.35,0-.8-.07-2-.22-3.57s-.22-2.77-.22-3.57c0-.6.09-.9.26-.9,1.26,0,1.88,0,1.9,0a1.51,1.51,0,0,1,1.37.74c1,2.29,1.69,4,2.14,5.19l.77,2a.71.71,0,0,0,.25.35,2.38,2.38,0,0,0,.44.09,29.5,29.5,0,0,0,3.13.11A30.18,30.18,0,0,0,47,30.46c.23,0,.35-.09.35-.18a32.08,32.08,0,0,0-2.14-4.89C43.82,22.43,43.12,21,43.12,21Zm-6.94-3.41a14.71,14.71,0,0,1-2.25-.16c-.38-.06-.56-.12-.56-.18,0-.26,0-.65,0-1.18s0-.93,0-1.2a30.18,30.18,0,0,1,.11-3.45c.07-.34.66-.51,1.78-.51a7.07,7.07,0,0,1,3.41.63,3.15,3.15,0,0,1,1.41,3C40,16.57,38.75,17.59,36.18,17.59Z"/><path class="cls-1" d="M67,24.38c-.61,0-1.53.06-2.75.17s-2.15.17-2.77.17H58.92c-1.3-.08-2.05-.35-2.25-.79a5,5,0,0,1-.18-1.72c0-.67,0-1,0-1.09.08-.23.36-.35.84-.35h1.86c2.38,0,3.9,0,4.57.11l1.58.18c.34,0,.51-.12.51-.35,0-.94,0-1.88.14-2.81.18-1.73.28-2.63.31-2.71a.36.36,0,0,0-.41-.38,8,8,0,0,0-1,.07L64,15c-1.51.08-3,.12-4.48.12l-.84,0-.69,0a1.52,1.52,0,0,1-1.14-.33,2.52,2.52,0,0,1-.35-1.58,5.36,5.36,0,0,1,.09-1.35c.14-.29.52-.44,1.14-.44,2.48,0,5.29.13,8.4.39l.37,0c.23,0,.35-.12.35-.37s-.06-1.12-.18-2.49-.21-2.23-.26-2.5c-.09-.46-.45-.69-1.05-.69-.86,0-2.14,0-3.87.07s-3,.07-3.87.07-2.17,0-3.91-.07-3-.07-3.91-.07c-.32,0-.46.13-.44.4l0,.25c.09,1.86.16,3.26.19,4.2q.21,5.46.21,7.47t-.22,5.92c-.15,2.64-.22,4.6-.22,5.92,0,.34.19.51.58.51l4,0,4,0c4.14,0,6.63.06,7.49.18a3.4,3.4,0,0,0,.53.05.65.65,0,0,0,.58-.33,10.73,10.73,0,0,0,.56-2.62,22.73,22.73,0,0,0,.3-2.78C67.4,24.59,67.27,24.38,67,24.38Z"/><path class="cls-1" d="M92.92,5.81q-1,0-3.18.09T86.56,6c-.25,0-.37.22-.37.65,0,1.24.07,3.1.2,5.57s.2,4.32.2,5.55c0,.91-.08,1.37-.23,1.37s-.46-.18-.76-.54C84.42,17,83.53,15.85,83,15l-6.55-9c-.29-.4-.51-.6-.65-.6a7.94,7.94,0,0,0-1.39.16c-.69.13-1.15.21-1.39.23-1,.09-1.83.14-2.51.14q-.69,0-.69.39,0,2,.17,6t.17,6.05c0,1.28-.06,3.19-.18,5.75s-.18,4.46-.18,5.73q0,.54.51.54h6.08c.32,0,.47-.21.47-.62q0-2-.11-6.12t-.11-6.12a.51.51,0,0,1,.14-.39.65.65,0,0,1,.26.21q2.48,3.18,3.69,4.82,4.42,5.85,5.7,7.56c.29.39.54.58.76.58s.76,0,1.37.07,1.07.07,1.37.07.71,0,1.27,0,1,0,1.27,0,.51-.16.51-.47V18.42q0-2,.17-6c.11-2.68.17-4.68.17-6C93.25,6,93.14,5.81,92.92,5.81Z"/><path class="cls-1" d="M114.24,22.16a.48.48,0,0,0-.35-.19,4.12,4.12,0,0,0-.86.67,8.63,8.63,0,0,1-1.83,1.23,6.46,6.46,0,0,1-2.9.67,5,5,0,0,1-4.13-2,7,7,0,0,1-1.42-4.48,6.9,6.9,0,0,1,1.42-4.43,5,5,0,0,1,4.13-1.93,6.25,6.25,0,0,1,2.88.7A9.43,9.43,0,0,1,113,13.75a4.54,4.54,0,0,0,.88.7.48.48,0,0,0,.35-.14,14.93,14.93,0,0,0,1.54-2.41A10.73,10.73,0,0,0,117,9.42a1.13,1.13,0,0,0-.35-.69q-3.24-3.49-8.93-3.5a10.93,10.93,0,0,0-8.63,3.9,13.3,13.3,0,0,0-3.25,9.07,13,13,0,0,0,3.32,9.14,11.45,11.45,0,0,0,8.89,3.74,10.67,10.67,0,0,0,8.6-3.85,1.3,1.3,0,0,0,.37-.74,13.1,13.1,0,0,0-1.28-2.14Q114.53,22.48,114.24,22.16Z"/><path class="cls-1" d="M142.17,18.45q0-2,.17-6.12t.17-6.1q0-.42-.51-.42c-.35,0-.88,0-1.57.05s-1.22,0-1.56,0-.88,0-1.57,0-1.22-.05-1.56-.05-.44.18-.44.54q0,1.29.12,3.84c.08,1.7.12,3,.12,3.82q0,.62-.42.72a35,35,0,0,1-4.36.14,34.55,34.55,0,0,1-4.5-.14q-.33-.11-.33-.72c0-.88.06-2.19.19-3.95s.19-3.07.19-3.95c0-.21-.1-.32-.3-.32-.38,0-.94,0-1.7,0s-1.32,0-1.7,0-.91,0-1.64,0-1.28,0-1.64,0-.37.13-.37.39q0,2,.18,6.13t.18,6.13c0,1.28-.06,3.19-.18,5.75s-.18,4.46-.18,5.73a.52.52,0,0,0,.51.54,25,25,0,0,0,3,.11,27.31,27.31,0,0,0,3.3-.11.54.54,0,0,0,.47-.62c0-.91,0-2.28-.09-4.1s-.09-3.19-.09-4.1c0-.47.13-.73.39-.79a34.31,34.31,0,0,1,4.29-.14,33.34,33.34,0,0,1,4.25.14c.26.07.39.33.39.79,0,.93,0,2.32-.13,4.17s-.13,3.25-.13,4.17c0,.25.16.4.48.47a25.3,25.3,0,0,0,3.24.11c1.3,0,2.31,0,3-.11a1.17,1.17,0,0,0,.49-.09c.11-.06.16-.21.16-.46q0-1.91-.18-5.73C142.23,21.62,142.17,19.73,142.17,18.45Z"/><path class="cls-1" d="M153.32,6.2q0-.39-.51-.39c-.36,0-.9,0-1.61.05s-1.25,0-1.61,0-.91,0-1.64,0-1.28-.05-1.64-.05a.35.35,0,0,0-.4.39q0,1.87.12,5.64t.12,5.64q0,2.23-.32,9.35c-.11,2.25-.16,3.28-.16,3.09q0,.43.51.54a23,23,0,0,0,3.27.14,27.1,27.1,0,0,0,3.06-.14l.46-.07c.11-.06.16-.21.16-.44q0-2.07-.11-6.24t-.11-6.24c0-1.25.07-3.13.2-5.64S153.32,7.45,153.32,6.2Z"/><path class="cls-1" d="M174.11,24.38c-.61,0-1.53.06-2.75.17s-2.15.17-2.77.17H166c-1.3-.08-2.05-.35-2.25-.79a5,5,0,0,1-.18-1.72c0-.67,0-1,0-1.09.08-.23.36-.35.84-.35h1.86c2.38,0,3.9,0,4.57.11l1.58.18c.34,0,.51-.12.51-.35,0-.94.05-1.88.14-2.81.18-1.73.28-2.63.31-2.71a.36.36,0,0,0-.41-.38,8,8,0,0,0-.95.07l-1,.09c-1.51.08-3,.12-4.48.12l-.84,0-.69,0a1.52,1.52,0,0,1-1.14-.33,2.52,2.52,0,0,1-.35-1.58,5.36,5.36,0,0,1,.09-1.35c.14-.29.52-.44,1.14-.44,2.48,0,5.29.13,8.4.39l.37,0c.23,0,.35-.12.35-.37s-.06-1.12-.18-2.49-.21-2.18-.27-2.45c-.09-.46-.45-.69-1.05-.69-.86,0-2.14,0-3.87.07s-3,.07-3.87.07-2.17,0-3.91-.07-3-.07-3.91-.07c-.32,0-.46.13-.44.4l0,.25c.09,1.86.16,3.26.19,4.2q.21,5.46.21,7.47t-.22,5.92c-.15,2.64-.22,4.6-.22,5.92,0,.34.19.51.58.51l4,0,4,0c4.14,0,6.63.06,7.49.18a3.4,3.4,0,0,0,.53.05.65.65,0,0,0,.58-.33,10.73,10.73,0,0,0,.56-2.62,22.73,22.73,0,0,0,.3-2.78C174.5,24.59,174.37,24.38,174.11,24.38Z"/><path class="cls-1" d="M203.05,24.6c-1.05,0-2.63.06-4.74.17s-3.68.17-4.74.17h-.46c-.16,0-.25-.12-.26-.26s0-.28,0-.42c0-.69,0-1.79,0-3.29l0-4.64c.18-4.42.33-7.73.47-9.93l0-.23c0-.22-.07-.33-.25-.33-.39,0-1,0-1.72.06S190,6,189.61,6s-.86,0-1.56,0-1.22,0-1.57,0S186,6,186,6.25q0,2,.12,6.11t.12,6.11c0,1.28,0,3.19-.06,5.74s-.06,4.46-.06,5.74a.52.52,0,0,0,.51.54c1,.06,1.74.08,2.27.07l5.26.07,3.94.09c1.62.05,2.93.07,3.94.07a3,3,0,0,0,.72,0c.19-.06.31-.24.37-.54a26.8,26.8,0,0,0,.44-5.19C203.52,24.74,203.36,24.6,203.05,24.6Z"/><path class="cls-1" d="M217.41,5.16a11.87,11.87,0,0,0-9,3.81,12.9,12.9,0,0,0-3.52,9.19,12.79,12.79,0,0,0,3.52,9.16,12.68,12.68,0,0,0,18.06,0,12.89,12.89,0,0,0,3.5-9.19A12.93,12.93,0,0,0,226.42,9,11.88,11.88,0,0,0,217.41,5.16Zm4.22,17.39a5.67,5.67,0,0,1-8.53.11,6.59,6.59,0,0,1-1.56-4.48,6.62,6.62,0,0,1,1.67-4.45,5.33,5.33,0,0,1,4.2-2,5.38,5.38,0,0,1,4.27,1.93,6.58,6.58,0,0,1,1.6,4.48A6.53,6.53,0,0,1,221.63,22.55Z"/><path class="cls-1" d="M252.93,5.81c-.64,0-1.62,0-2.93.1s-2.28.1-2.93.1h-.56c-.11,0-.16.21-.16.53,0,.86,0,2.14,0,3.86s0,3,0,3.86a15.74,15.74,0,0,1-1.65,4.18q-1.23,2.53-2.2,4.27Q239,16,239,14.92c0-.95.07-2.38.2-4.28s.2-3.33.2-4.28c0-.25-.15-.37-.44-.37-.71,0-1.79,0-3.22-.09s-2.5-.09-3.2-.09c-.23,0-.35.22-.35.65,0,.93,0,2.32-.1,4.17s-.1,3.25-.1,4.17q0,.84,3.18,7.22l4,7.93a.88.88,0,0,0,.56.51,24.74,24.74,0,0,0,2.71.07c1.25,0,2.18,0,2.78-.07a1.27,1.27,0,0,0,.45-.08A1.67,1.67,0,0,0,246,30q2.58-5,4-7.52,3.47-6.93,3.46-8c0-.91,0-2.28,0-4.1s0-3.18,0-4.09C253.46,6,253.29,5.81,252.93,5.81Z"/><path class="cls-1" d="M273.68,24.38c-.61,0-1.53.06-2.75.17s-2.15.17-2.77.17h-2.57c-1.3-.08-2-.35-2.25-.79a5,5,0,0,1-.18-1.72c0-.67,0-1,0-1.09.08-.23.36-.35.84-.35h1.86c2.38,0,3.9,0,4.57.11l1.58.18c.34,0,.51-.12.51-.35,0-.94,0-1.88.14-2.81.18-1.73.28-2.63.31-2.71a.36.36,0,0,0-.41-.38,8,8,0,0,0-.95.07l-1,.09c-1.51.08-3,.12-4.48.12l-.84,0-.69,0a1.52,1.52,0,0,1-1.14-.33,2.52,2.52,0,0,1-.35-1.58,5.36,5.36,0,0,1,.09-1.35c.14-.29.52-.44,1.14-.44,2.48,0,5.29.13,8.4.39l.37,0c.23,0,.35-.12.35-.37s-.06-1.12-.18-2.49-.21-2.18-.27-2.45c-.09-.46-.45-.69-1.05-.69-.86,0-2.14,0-3.87.07s-3,.07-3.87.07-2.17,0-3.91-.07-3-.07-3.91-.07c-.32,0-.46.13-.44.4l0,.25c.09,1.86.16,3.26.19,4.2q.21,5.46.21,7.47t-.22,5.92c-.15,2.64-.22,4.6-.22,5.92,0,.34.19.51.58.51l4,0,4,0c4.14,0,6.63.06,7.49.18a3.4,3.4,0,0,0,.53.05.65.65,0,0,0,.58-.33,10.73,10.73,0,0,0,.56-2.62,22.73,22.73,0,0,0,.3-2.78C274.06,24.59,273.93,24.38,273.68,24.38Z"/><path class="cls-1" d="M293.07,21c0-.16.13-.34.4-.53a8.33,8.33,0,0,0,2.72-3,9.54,9.54,0,0,0,.74-4.1,6.78,6.78,0,0,0-2.87-5.89,11,11,0,0,0-6.54-1.81c-1.29,0-3,0-5.19.07q-4.8.11-5.37.21c-.38.07-.57.21-.55.4l0,.25c.22,2.78.33,6.64.33,11.6q0,1.95-.18,5.85t-.18,5.84q0,.43.51.54a23,23,0,0,0,3,.11c1.46,0,2.54,0,3.23-.07l.49,0c.11,0,.16-.15.16-.35,0-.8-.07-2-.22-3.57s-.22-2.77-.22-3.57c0-.6.09-.9.26-.9,1.26,0,1.88,0,1.9,0a1.51,1.51,0,0,1,1.37.74c1,2.29,1.69,4,2.14,5.19l.77,2a.71.71,0,0,0,.25.35,2.38,2.38,0,0,0,.44.09,29.5,29.5,0,0,0,3.13.11,30.18,30.18,0,0,0,3.36-.11c.23,0,.35-.09.35-.18a32.08,32.08,0,0,0-2.14-4.89C293.77,22.43,293.07,21,293.07,21Zm-6.95-3.41a14.71,14.71,0,0,1-2.25-.16c-.38-.06-.56-.12-.56-.18,0-.26,0-.65,0-1.18s0-.93,0-1.2a30.18,30.18,0,0,1,.11-3.45c.07-.34.66-.51,1.78-.51a7.07,7.07,0,0,1,3.41.63,3.15,3.15,0,0,1,1.41,3C290,16.57,288.69,17.59,286.12,17.59Z"/><path class="cls-1" d="M310.08,18.54l-2.34-2.95A4.62,4.62,0,0,1,306.47,13a2.05,2.05,0,0,1,1.14-1.86,4.12,4.12,0,0,1,2.21-.58,4.26,4.26,0,0,1,.51.05l.47,0c.21,0,.32-.1.32-.3a.49.49,0,0,0-.05-.18q-1.67-3.36-2.13-4.64-.17-.42-.42-.42l-.3,0a13.23,13.23,0,0,0-6,2.29,6.36,6.36,0,0,0-3,5.34,7.13,7.13,0,0,0,1.21,4c.12.18.87,1.06,2.25,2.65A4.14,4.14,0,0,1,304,22a2.9,2.9,0,0,1-1.83,2.71,18.16,18.16,0,0,1-3.38,1c-.18,0-.26.12-.26.25a10.51,10.51,0,0,0,1.39,3c.93,1.64,1.52,2.47,1.79,2.47l.23,0a12.87,12.87,0,0,0,6.42-2.87,7.79,7.79,0,0,0,3-6.12A7,7,0,0,0,310.08,18.54Z"/><path class="cls-2" d="M22,6.55c-.05-1-.07-1.76-.07-2.27s-.4-.72-1-.72q-1.41,0-4.23.21T12.47,4c-.88,0-2.19,0-4,0s-3.06-.05-3.93-.05c-.36,0-.54.15-.53.44l0,.21q0,.4.34,5.84.21,3.51.21,5.84c0,1.3,0,3.25-.13,5.86s-.13,4.56-.13,5.86q0,.42.51.54a23.7,23.7,0,0,0,4.24.23c1.07,0,1.6,0,1.6,0,.7-.05,1-.22,1.07-.51,0-.1-.07-1-.17-2.63-.14-2.17-.21-4.08-.21-5.75,0-.41.3-.66.9-.76.11,0,.57,0,1.39,0q3.81,0,5.7.18a6.58,6.58,0,0,1,1.11.12A.47.47,0,0,0,21,19a13,13,0,0,0,.19-3.13c0-2.06-.19-3.09-.58-3.09-.81,0-2,0-3.63.13s-2.82.13-3.63.13A4.64,4.64,0,0,1,12.26,13c-.56-.15-.84-.79-.84-1.9,0-.93.22-1.49.65-1.69a8.32,8.32,0,0,1,2-.12c.89,0,2.23.08,4,.23s3.12.23,4,.23c.23,0,.35-.06.35-.19A8.71,8.71,0,0,0,22.23,8,14.22,14.22,0,0,1,22,6.55Z"/><path class="cls-3" d="M41.12,19c0-.16.13-.34.4-.53a8.33,8.33,0,0,0,2.72-3A9.54,9.54,0,0,0,45,11.4a6.78,6.78,0,0,0-2.87-5.89A11,11,0,0,0,35.57,3.7c-1.29,0-3,0-5.19.07q-4.8.1-5.37.21c-.38.07-.57.21-.55.4l0,.25c.22,2.78.33,6.64.33,11.6q0,1.95-.18,5.85t-.18,5.84q0,.43.51.54a23,23,0,0,0,3,.11c1.46,0,2.54,0,3.23-.07l.49,0c.11,0,.16-.15.16-.35,0-.8-.07-2-.22-3.57s-.22-2.77-.22-3.57c0-.6.09-.9.26-.9,1.26,0,1.88,0,1.9,0a1.51,1.51,0,0,1,1.37.74c1,2.29,1.69,4,2.14,5.19l.77,2a.71.71,0,0,0,.25.35,2.38,2.38,0,0,0,.44.09,29.5,29.5,0,0,0,3.13.11A30.18,30.18,0,0,0,45,28.46c.23,0,.35-.09.35-.18a32.08,32.08,0,0,0-2.14-4.89C41.82,20.43,41.12,19,41.12,19Zm-6.94-3.41a14.71,14.71,0,0,1-2.25-.16c-.38-.06-.56-.12-.56-.18,0-.26,0-.65,0-1.18s0-.93,0-1.2a30.18,30.18,0,0,1,.11-3.45c.07-.34.66-.51,1.78-.51a7.07,7.07,0,0,1,3.41.63,3.15,3.15,0,0,1,1.41,3C38,14.57,36.75,15.59,34.18,15.59Z"/><path class="cls-4" d="M65,22.38c-.61,0-1.53.06-2.75.17s-2.15.17-2.77.17H56.92c-1.3-.08-2.05-.35-2.25-.79a5,5,0,0,1-.18-1.72c0-.67,0-1,0-1.09.08-.23.36-.35.84-.35h1.86c2.38,0,3.9,0,4.57.11l1.58.18c.34,0,.51-.12.51-.35,0-.94.05-1.88.14-2.81.18-1.73.28-2.63.31-2.71a.36.36,0,0,0-.41-.38,8,8,0,0,0-.95.07L62,13c-1.51.08-3,.12-4.48.12l-.84,0-.69,0a1.52,1.52,0,0,1-1.14-.33,2.52,2.52,0,0,1-.35-1.58,5.36,5.36,0,0,1,.09-1.35c.14-.29.52-.44,1.14-.44,2.48,0,5.29.13,8.4.39l.37,0c.23,0,.35-.12.35-.37S64.78,8.37,64.66,7s-.21-2.23-.26-2.5c-.09-.46-.45-.69-1.05-.69-.86,0-2.14,0-3.87.07s-3,.07-3.87.07-2.17,0-3.91-.07-3-.07-3.91-.07c-.32,0-.46.13-.44.4l0,.25c.09,1.86.16,3.26.19,4.2q.21,5.46.21,7.47t-.22,5.92c-.15,2.64-.22,4.6-.22,5.92,0,.34.19.51.58.51l4,0,4,0c4.14,0,6.63.06,7.49.18a3.4,3.4,0,0,0,.53.05.65.65,0,0,0,.58-.33,10.73,10.73,0,0,0,.56-2.62,22.73,22.73,0,0,0,.3-2.78C65.4,22.59,65.27,22.38,65,22.38Z"/><path class="cls-5" d="M90.92,3.81q-1,0-3.18.09T84.56,4c-.25,0-.37.22-.37.65,0,1.24.07,3.1.2,5.57s.2,4.32.2,5.55c0,.91-.08,1.37-.23,1.37s-.46-.18-.76-.54C82.42,15,81.53,13.85,81,13l-6.55-9c-.29-.4-.51-.6-.65-.6a7.94,7.94,0,0,0-1.39.16c-.69.13-1.15.21-1.39.23-1,.09-1.83.14-2.51.14q-.69,0-.69.39,0,2,.17,6t.17,6.05c0,1.28-.06,3.19-.18,5.75s-.18,4.46-.18,5.73q0,.54.51.54h6.08c.32,0,.47-.21.47-.62q0-2-.11-6.12t-.11-6.12a.51.51,0,0,1,.14-.39.65.65,0,0,1,.26.21q2.48,3.18,3.69,4.82,4.42,5.85,5.7,7.56c.29.39.54.58.76.58s.76,0,1.37.07,1.07.07,1.37.07.71,0,1.27,0,1,0,1.27,0,.51-.16.51-.47V16.42q0-2,.17-6c.11-2.68.17-4.68.17-6C91.25,4,91.14,3.81,90.92,3.81Z"/><path class="cls-6" d="M112.24,20.16a.48.48,0,0,0-.35-.19,4.12,4.12,0,0,0-.86.67,8.63,8.63,0,0,1-1.83,1.23,6.46,6.46,0,0,1-2.9.67,5,5,0,0,1-4.13-2,7,7,0,0,1-1.42-4.48,6.9,6.9,0,0,1,1.42-4.43,5,5,0,0,1,4.13-1.93,6.25,6.25,0,0,1,2.88.7A9.43,9.43,0,0,1,111,11.75a4.54,4.54,0,0,0,.88.7.48.48,0,0,0,.35-.14,14.93,14.93,0,0,0,1.54-2.41A10.73,10.73,0,0,0,115,7.42a1.13,1.13,0,0,0-.35-.69q-3.24-3.49-8.93-3.5a10.93,10.93,0,0,0-8.63,3.9,13.3,13.3,0,0,0-3.25,9.07,13,13,0,0,0,3.32,9.14,11.45,11.45,0,0,0,8.89,3.74,10.67,10.67,0,0,0,8.6-3.85,1.3,1.3,0,0,0,.37-.74,13.1,13.1,0,0,0-1.28-2.14Q112.53,20.48,112.24,20.16Z"/><path class="cls-7" d="M140.17,16.45q0-2,.17-6.12t.17-6.1q0-.42-.51-.42c-.35,0-.88,0-1.57,0s-1.22.05-1.56.05-.88,0-1.57-.05-1.22,0-1.56,0-.44.18-.44.54q0,1.29.12,3.84c.08,1.7.12,3,.12,3.82q0,.62-.42.72a35,35,0,0,1-4.36.14,34.55,34.55,0,0,1-4.5-.14q-.33-.11-.33-.72c0-.88.06-2.19.19-3.95s.19-3.07.19-3.95c0-.21-.1-.32-.3-.32-.38,0-.94,0-1.7,0s-1.32.05-1.7.05-.91,0-1.64-.05-1.28,0-1.64,0-.37.13-.37.39q0,2,.18,6.13t.18,6.13c0,1.28-.06,3.19-.18,5.75s-.18,4.46-.18,5.73a.52.52,0,0,0,.51.54,25,25,0,0,0,3,.11,27.31,27.31,0,0,0,3.3-.11.54.54,0,0,0,.47-.62c0-.91,0-2.28-.09-4.1s-.09-3.19-.09-4.1c0-.47.13-.73.39-.79a34.31,34.31,0,0,1,4.29-.14,33.34,33.34,0,0,1,4.25.14c.26.07.39.33.39.79,0,.93,0,2.32-.13,4.17s-.13,3.25-.13,4.17c0,.25.16.4.48.47a25.3,25.3,0,0,0,3.24.11c1.3,0,2.31,0,3-.11a1.17,1.17,0,0,0,.49-.09c.11-.06.16-.21.16-.46q0-1.91-.18-5.73C140.23,19.62,140.17,17.73,140.17,16.45Z"/><path class="cls-8" d="M151.32,4.2q0-.39-.51-.39c-.36,0-.9,0-1.61,0s-1.25.05-1.61.05-.91,0-1.64-.05-1.28,0-1.64,0a.35.35,0,0,0-.4.39q0,1.88.12,5.64t.12,5.64q0,2.23-.32,9.35c-.11,2.25-.16,3.28-.16,3.09q0,.43.51.54a23,23,0,0,0,3.27.14,27.1,27.1,0,0,0,3.06-.14l.46-.07c.11-.06.16-.21.16-.44q0-2.07-.11-6.24t-.11-6.24c0-1.25.07-3.13.2-5.64S151.32,5.45,151.32,4.2Z"/><path class="cls-9" d="M172.11,22.38c-.61,0-1.53.06-2.75.17s-2.15.17-2.77.17H164c-1.3-.08-2.05-.35-2.25-.79a5,5,0,0,1-.18-1.72c0-.67,0-1,0-1.09.08-.23.36-.35.84-.35h1.86c2.38,0,3.9,0,4.57.11l1.58.18c.34,0,.51-.12.51-.35,0-.94.05-1.88.14-2.81.18-1.73.28-2.63.31-2.71a.36.36,0,0,0-.41-.38,8,8,0,0,0-.95.07l-1,.09c-1.51.08-3,.12-4.48.12l-.84,0-.69,0a1.52,1.52,0,0,1-1.14-.33,2.52,2.52,0,0,1-.35-1.58,5.36,5.36,0,0,1,.09-1.35c.14-.29.52-.44,1.14-.44,2.48,0,5.29.13,8.4.39l.37,0c.23,0,.35-.12.35-.37s-.06-1.12-.18-2.49-.21-2.18-.27-2.45c-.09-.46-.45-.69-1.05-.69-.86,0-2.14,0-3.87.07s-3,.07-3.87.07-2.17,0-3.91-.07-3-.07-3.91-.07c-.32,0-.46.13-.44.4l0,.25c.09,1.86.16,3.26.19,4.2q.21,5.46.21,7.47t-.22,5.92c-.15,2.64-.22,4.6-.22,5.92,0,.34.19.51.58.51l4,0,4,0c4.14,0,6.63.06,7.49.18a3.4,3.4,0,0,0,.53.05.65.65,0,0,0,.58-.33,10.73,10.73,0,0,0,.56-2.62,22.73,22.73,0,0,0,.3-2.78C172.5,22.59,172.37,22.38,172.11,22.38Z"/><path class="cls-10" d="M201.05,22.6c-1.05,0-2.63.06-4.74.17s-3.68.17-4.74.17h-.46c-.16,0-.25-.12-.26-.26s0-.28,0-.42c0-.69,0-1.79,0-3.29l0-4.64c.18-4.42.33-7.73.47-9.93l0-.23c0-.22-.07-.33-.25-.33-.39,0-1,0-1.72.06S188,4,187.61,4s-.86,0-1.56,0-1.22-.05-1.57-.05S184,4,184,4.25q0,2,.12,6.11t.12,6.11c0,1.28,0,3.19-.06,5.74s-.06,4.46-.06,5.74a.52.52,0,0,0,.51.54c1,.06,1.74.08,2.27.07l5.26.07,3.94.09c1.62.05,2.93.07,3.94.07a3,3,0,0,0,.72,0c.19-.06.31-.24.37-.54a26.8,26.8,0,0,0,.44-5.19C201.52,22.74,201.36,22.6,201.05,22.6Z"/><path class="cls-11" d="M215.41,3.16a11.87,11.87,0,0,0-9,3.81,12.9,12.9,0,0,0-3.52,9.19,12.79,12.79,0,0,0,3.52,9.16,12.68,12.68,0,0,0,18.06,0,12.89,12.89,0,0,0,3.5-9.19A12.93,12.93,0,0,0,224.42,7,11.88,11.88,0,0,0,215.41,3.16Zm4.22,17.39a5.67,5.67,0,0,1-8.53.11,6.59,6.59,0,0,1-1.56-4.48,6.62,6.62,0,0,1,1.67-4.45,5.33,5.33,0,0,1,4.2-2,5.38,5.38,0,0,1,4.27,1.93,6.58,6.58,0,0,1,1.6,4.48A6.53,6.53,0,0,1,219.63,20.55Z"/><path class="cls-12" d="M250.93,3.81c-.64,0-1.62,0-2.93.1s-2.28.1-2.93.1h-.56c-.11,0-.16.21-.16.53,0,.86,0,2.14,0,3.86s0,3,0,3.86a15.74,15.74,0,0,1-1.65,4.18q-1.23,2.53-2.2,4.27Q237,14,237,12.92c0-.95.07-2.38.2-4.28s.2-3.33.2-4.28c0-.25-.15-.37-.44-.37-.71,0-1.79,0-3.22-.09s-2.5-.09-3.2-.09c-.23,0-.35.22-.35.65,0,.93,0,2.32-.1,4.17s-.1,3.25-.1,4.17q0,.84,3.18,7.22l4,7.93a.88.88,0,0,0,.56.51,24.74,24.74,0,0,0,2.71.07c1.25,0,2.18,0,2.78-.07a1.27,1.27,0,0,0,.45-.08A1.67,1.67,0,0,0,244,28q2.58-5,4-7.52,3.47-6.93,3.46-8c0-.91,0-2.28,0-4.1s0-3.18,0-4.09C251.46,4,251.29,3.81,250.93,3.81Z"/><path class="cls-13" d="M271.68,22.38c-.61,0-1.53.06-2.75.17s-2.15.17-2.77.17h-2.57c-1.3-.08-2-.35-2.25-.79a5,5,0,0,1-.18-1.72c0-.67,0-1,0-1.09.08-.23.36-.35.84-.35h1.86c2.38,0,3.9,0,4.57.11l1.58.18c.34,0,.51-.12.51-.35,0-.94,0-1.88.14-2.81.18-1.73.28-2.63.31-2.71a.36.36,0,0,0-.41-.38,8,8,0,0,0-.95.07l-1,.09c-1.51.08-3,.12-4.48.12l-.84,0-.69,0a1.52,1.52,0,0,1-1.14-.33,2.52,2.52,0,0,1-.35-1.58,5.36,5.36,0,0,1,.09-1.35c.14-.29.52-.44,1.14-.44,2.48,0,5.29.13,8.4.39l.37,0c.23,0,.35-.12.35-.37s-.06-1.12-.18-2.49-.21-2.18-.27-2.45c-.09-.46-.45-.69-1.05-.69-.86,0-2.14,0-3.87.07s-3,.07-3.87.07-2.17,0-3.91-.07-3-.07-3.91-.07c-.32,0-.46.13-.44.4l0,.25c.09,1.86.16,3.26.19,4.2q.21,5.46.21,7.47t-.22,5.92c-.15,2.64-.22,4.6-.22,5.92,0,.34.19.51.58.51l4,0,4,0c4.14,0,6.63.06,7.49.18a3.4,3.4,0,0,0,.53.05.65.65,0,0,0,.58-.33,10.73,10.73,0,0,0,.56-2.62,22.73,22.73,0,0,0,.3-2.78C272.06,22.59,271.93,22.38,271.68,22.38Z"/><path class="cls-14" d="M291.07,19c0-.16.13-.34.4-.53a8.33,8.33,0,0,0,2.72-3,9.54,9.54,0,0,0,.74-4.1,6.78,6.78,0,0,0-2.87-5.89,11,11,0,0,0-6.54-1.81c-1.29,0-3,0-5.19.07q-4.8.1-5.37.21c-.38.07-.57.21-.55.4l0,.25c.22,2.78.33,6.64.33,11.6q0,1.95-.18,5.85t-.18,5.84q0,.43.51.54a23,23,0,0,0,3,.11c1.46,0,2.54,0,3.23-.07l.49,0c.11,0,.16-.15.16-.35,0-.8-.07-2-.22-3.57s-.22-2.77-.22-3.57c0-.6.09-.9.26-.9,1.26,0,1.88,0,1.9,0a1.51,1.51,0,0,1,1.37.74c1,2.29,1.69,4,2.14,5.19l.77,2a.71.71,0,0,0,.25.35,2.38,2.38,0,0,0,.44.09,29.5,29.5,0,0,0,3.13.11,30.18,30.18,0,0,0,3.36-.11c.23,0,.35-.09.35-.18a32.08,32.08,0,0,0-2.14-4.89C291.77,20.43,291.07,19,291.07,19Zm-6.95-3.41a14.71,14.71,0,0,1-2.25-.16c-.38-.06-.56-.12-.56-.18,0-.26,0-.65,0-1.18s0-.93,0-1.2a30.18,30.18,0,0,1,.11-3.45c.07-.34.66-.51,1.78-.51a7.07,7.07,0,0,1,3.41.63,3.15,3.15,0,0,1,1.41,3C288,14.57,286.69,15.59,284.12,15.59Z"/><path class="cls-15" d="M308.08,16.54l-2.34-2.95A4.62,4.62,0,0,1,304.47,11a2.05,2.05,0,0,1,1.14-1.86,4.12,4.12,0,0,1,2.21-.58,4.26,4.26,0,0,1,.51.05l.47,0c.21,0,.32-.1.32-.3a.49.49,0,0,0-.05-.18q-1.67-3.36-2.13-4.64-.17-.42-.42-.42l-.3,0a13.23,13.23,0,0,0-6,2.29,6.36,6.36,0,0,0-3,5.34,7.13,7.13,0,0,0,1.21,4c.12.18.87,1.06,2.25,2.65A4.14,4.14,0,0,1,302,20a2.9,2.9,0,0,1-1.83,2.71,18.16,18.16,0,0,1-3.38,1c-.18,0-.26.12-.26.25a10.51,10.51,0,0,0,1.39,3c.93,1.64,1.52,2.47,1.79,2.47l.23,0a12.87,12.87,0,0,0,6.42-2.87,7.79,7.79,0,0,0,3-6.12A7,7,0,0,0,308.08,16.54Z"/></svg>