<?xml version="1.0" encoding="utf-8"?>
<!-- Generator: Adobe Illustrator 23.0.5, SVG Export Plug-In . SVG Version: 6.00 Build 0)  -->
<svg version="1.1" id="Layer_1" xmlns="http://www.w3.org/2000/svg" xmlns:xlink="http://www.w3.org/1999/xlink" x="0px" y="0px"
	 viewBox="0 0 316 36" style="enable-background:new 0 0 316 36;" xml:space="preserve">
<style type="text/css">
	.st0{fill:#E90020;}
	.st1{fill:url(#SVGID_1_);stroke:#000000;stroke-miterlimit:10;}
	.st2{fill:url(#SVGID_2_);stroke:#000000;stroke-miterlimit:10;}
	.st3{fill:url(#SVGID_3_);stroke:#000000;stroke-miterlimit:10;}
	.st4{fill:url(#SVGID_4_);stroke:#000000;stroke-miterlimit:10;}
	.st5{fill:url(#SVGID_5_);stroke:#000000;stroke-miterlimit:10;}
	.st6{fill:url(#SVGID_6_);stroke:#000000;stroke-miterlimit:10;}
	.st7{fill:url(#SVGID_7_);stroke:#000000;stroke-miterlimit:10;}
	.st8{fill:url(#SVGID_8_);stroke:#000000;stroke-miterlimit:10;}
	.st9{fill:url(#SVGID_9_);stroke:#000000;stroke-miterlimit:10;}
	.st10{fill:url(#SVGID_10_);stroke:#000000;stroke-miterlimit:10;}
	.st11{fill:url(#SVGID_11_);stroke:#000000;stroke-miterlimit:10;}
	.st12{fill:url(#SVGID_12_);stroke:#000000;stroke-miterlimit:10;}
	.st13{fill:url(#SVGID_13_);stroke:#000000;stroke-miterlimit:10;}
	.st14{fill:url(#SVGID_14_);stroke:#000000;stroke-miterlimit:10;}
</style>
<g>
	<path d="M10.7,28.7C10.7,28.7,10.7,28.7,10.7,28.7C10.7,28.7,10.7,28.7,10.7,28.7z"/>
	<path d="M10.7,28.7C10.7,28.7,10.7,28.7,10.7,28.7C10.7,28.7,10.7,28.7,10.7,28.7z"/>
	<polygon points="10,30.2 9.8,28.3 9.8,27.7 10,27.2 11.8,28.2 13.8,28.2 13.8,30.2 11.8,30.2 	"/>
	<path d="M11.8,28.2L11.8,28.2C11.8,28.2,11.8,28.2,11.8,28.2z"/>
	<polygon points="62.4,13.8 62.3,12.9 62.9,11.2 64.3,11.1 66.3,11.1 66.3,13.2 62.3,13.2 64.3,13.2 62.6,14.2 	"/>
	<path d="M64.3,13.2C64.3,13.2,64.3,13.2,64.3,13.2C64.3,13.1,64.3,13.1,64.3,13.2z"/>
	<polygon points="169.5,13.8 169.4,12.9 170,11.2 171.4,11.1 173.4,11.1 173.4,13.2 169.4,13.2 171.4,13.2 169.7,14.2 	"/>
	<path d="M171.4,13.2C171.4,13.2,171.4,13.2,171.4,13.2C171.4,13.1,171.4,13.1,171.4,13.2z"/>
	<polygon points="269,13.7 269,12.9 269.5,11.2 271,11.1 273,11.1 273,13.2 269,13.2 271,13.2 269.3,14.2 	"/>
	<path d="M271,13.2C271,13.2,271,13.2,271,13.2C271,13.1,271,13.1,271,13.2z"/>
	<g>
		<path d="M312.8,19.5l-0.1-0.1c0,0,0,0,0,0l0,0c0,0,0,0,0,0l0,0c0,0,0,0,0,0l0,0c0,0,0,0,0,0l0,0c0,0,0,0,0,0l0,0c0,0,0,0,0,0l0,0
			c0,0,0,0,0,0l0,0c0,0,0,0,0,0l0,0c0,0,0,0,0,0l0,0c0,0,0,0,0,0l0,0c0,0,0,0,0,0l0,0c0,0,0,0,0,0l0,0c0,0,0,0,0,0l0,0c0,0,0,0,0,0
			l0,0c0,0,0,0,0,0l0,0c0,0,0,0,0,0l0,0c0,0,0,0,0,0l0,0c0,0,0,0,0,0l0,0c0,0,0,0,0,0l0,0c0,0,0,0,0,0l0,0c0,0,0,0,0,0l0,0
			c0,0,0,0,0,0l0,0c0,0,0,0,0,0l0,0c0,0,0,0,0,0l0,0c0,0,0,0,0,0l0,0c0,0,0,0,0,0l0,0c0,0,0,0,0,0l0,0c0,0,0,0,0,0l0,0c0,0,0,0,0,0
			l0,0c0,0,0,0,0,0l0,0c0,0,0,0,0,0l0,0c0,0,0,0,0,0l0,0c0,0,0,0,0,0l0,0c0,0,0,0,0,0l0,0c0,0,0,0,0,0l0,0c0,0,0,0,0,0l0,0
			c0,0,0,0,0,0l0,0c0,0,0,0,0,0l0,0c0,0,0,0,0,0l0,0c0,0,0,0,0,0l0,0c0,0,0,0,0,0l0,0c0,0,0,0,0,0l0,0c0,0,0,0,0,0l0,0c0,0,0,0,0,0
			l0,0c0,0,0,0,0,0l0,0c0,0,0,0,0,0l0,0c0,0,0,0,0,0l0,0c0,0,0,0,0,0l0,0c0,0,0,0,0,0l0,0c0,0,0,0,0,0l0,0c0,0,0,0,0,0l0,0
			c0,0,0,0,0,0l0,0c0,0,0,0,0,0l0,0c0,0,0,0,0,0l0,0c0,0,0,0,0,0l0,0c0,0,0,0,0,0l0,0c0,0,0,0,0,0l0,0c0,0,0,0,0,0l0,0c0,0,0,0,0,0
			l0,0c0,0,0,0,0,0l0,0c0,0,0,0,0,0l0,0c0,0,0,0,0,0l0,0c0,0,0,0,0,0l0,0c0,0,0,0,0,0l0,0c0,0,0,0,0,0l0,0c0,0,0,0,0,0l0,0
			c0,0,0,0,0,0l0,0c0,0,0,0,0,0l0,0c0,0,0,0,0,0l0,0c0,0,0,0,0,0l0,0c0,0,0,0,0,0l0,0c0,0,0,0,0,0l0,0c0,0,0,0,0,0l0,0c0,0,0,0,0,0
			l0,0c0,0,0,0,0,0l0,0c0,0,0,0,0,0l0,0c0,0,0,0,0,0l0,0c0,0,0,0,0,0l0,0c0,0,0,0,0,0l0,0c0,0,0,0,0,0l0,0c0,0,0,0,0,0l0,0
			c0,0,0,0,0,0l0,0c0,0,0,0,0,0l0,0c0,0,0,0,0,0l0,0c0,0,0,0,0,0l0,0c0,0,0,0,0,0l0,0c0,0,0,0,0,0l0,0c0,0,0,0,0,0l0,0c0,0,0,0,0,0
			l0,0c0,0,0,0,0,0l0,0c0,0,0,0,0,0l0,0c0,0,0,0,0,0l0,0c0,0,0,0,0,0l0,0c0,0,0,0,0,0l0,0c0,0,0,0,0,0l0,0c0,0,0,0,0,0l0,0
			c0,0,0,0,0,0l0,0c0,0,0,0,0,0l0,0c0,0,0,0,0,0l0,0c0,0,0,0,0,0l0,0c0,0,0,0,0,0l0,0c0,0,0-0.1-0.1-0.1c0,0,0,0,0,0
			c-0.1-0.1-0.1-0.2-0.1-0.2s0-0.1,0.2-0.1c0.3-0.2,0.7-0.3,1.1-0.3c0.1,0,0.1,0,0.2,0c0.4,0.1,0.6,0.1,0.8,0.1c1.3,0,2.3-1,2.3-2.3
			c0-0.4-0.1-0.7-0.3-1.1c-1.3-2.7-1.8-3.9-2-4.4c-0.1-0.2-0.2-0.4-0.3-0.6c-0.1-0.2-0.2-0.3-0.3-0.4c0,0,0,0,0,0c0,0,0,0,0,0
			c0,0,0,0,0,0c0,0,0,0,0,0c0,0,0,0,0,0c0,0,0,0,0,0c0,0,0,0,0,0c0,0,0,0,0,0c0,0,0,0,0,0c0,0,0,0,0,0c0,0,0,0,0,0c0,0,0,0,0,0
			c0,0,0,0,0,0c0,0,0,0,0,0c0,0,0,0,0,0c0,0,0,0,0,0c0,0,0,0,0,0c0,0,0,0,0,0c0,0,0,0,0,0c0,0,0,0,0,0c0,0,0,0,0,0c0,0,0,0,0,0
			c0,0,0,0,0,0c0,0,0,0,0,0c0,0,0,0,0,0c0,0,0,0,0,0c0,0,0,0,0,0c0,0,0,0,0,0c0,0,0,0,0,0c0,0,0,0,0,0c0,0,0,0,0,0c0,0,0,0,0,0
			c0,0,0,0,0,0c0,0,0,0,0,0c0,0,0,0,0,0c0,0,0,0,0,0c0,0,0,0,0,0c0,0,0,0,0,0c0,0,0,0,0,0c0,0,0,0,0,0c0,0,0,0,0,0c0,0,0,0,0,0
			c0,0,0,0,0,0c0,0,0,0,0,0c0,0,0,0,0,0s0,0,0,0s0,0,0,0s0,0,0,0s0,0,0,0s0,0,0,0s0,0,0,0s0,0,0,0s0,0,0,0s0,0,0,0s0,0,0,0s0,0,0,0
			s0,0,0,0s0,0,0,0s0,0,0,0s0,0,0,0s0,0,0,0s0,0,0,0s0,0,0,0s0,0,0,0s0,0,0,0s0,0,0,0s0,0,0,0s0,0,0,0s0,0,0,0s0,0,0,0s0,0,0,0
			s0,0,0,0s0,0,0,0s0,0,0,0s0,0,0,0s0,0,0,0s0,0,0,0s0,0,0,0s0,0,0,0s0,0,0,0s0,0,0,0s0,0,0,0s0,0,0,0s0,0,0,0s0,0,0,0s0,0,0,0
			s0,0,0,0s0,0,0,0s0,0,0,0s0,0,0,0s0,0,0,0s0,0,0,0s0,0,0,0s0,0,0,0s0,0,0,0s0,0,0,0s0,0,0,0s0,0,0,0c0,0,0,0,0-0.1
			c-0.6-0.7-1.5-0.8-1.8-0.8c-0.1,0-0.3,0-0.5,0l-0.1,0c-2.7,0.4-5,1.3-6.8,2.6c-1.3,1-2.3,2.1-2.9,3.4c0,0,0,0,0,0c0,0,0,0,0,0
			c0,0,0,0,0,0c0,0,0,0,0,0c0,0,0,0,0,0c0,0,0,0,0,0c0,0,0,0,0,0c0,0,0,0,0,0c0,0,0,0,0,0c0,0,0,0,0,0c0,0,0,0,0,0c0,0,0,0,0,0
			c0,0,0,0,0,0c0,0,0,0,0,0c0,0,0,0,0,0c0,0,0,0,0,0c0,0,0,0,0,0c0,0,0,0,0,0c0,0,0,0,0,0c0,0,0,0,0,0c0,0,0,0,0,0c0,0,0,0,0,0
			c0,0,0,0,0,0c0,0,0,0,0,0c0,0,0,0,0,0c0,0,0,0,0,0c0,0,0,0,0,0c0,0,0,0,0,0c0,0,0,0,0,0c0,0,0,0,0,0c0,0,0,0,0,0c0,0,0,0,0,0
			c0,0,0,0,0,0c0,0,0,0,0,0c0,0,0,0,0,0c0,0,0,0,0,0c0,0,0,0,0,0c0,0,0,0,0,0c0,0,0,0,0,0c0,0,0,0,0,0c0,0,0,0,0,0c0,0,0,0,0,0
			c-0.5-0.6-1-1.1-1.7-1.6c-2-1.5-4.6-2.2-7.7-2.2c-1.3,0-3,0-5.2,0.1c-5,0.1-5.4,0.2-5.7,0.2c-0.9,0.2-1.5,0.6-1.9,1.2c0,0,0,0,0,0
			c0,0,0,0,0,0s0,0,0,0s0,0,0,0s0,0,0,0s0,0,0,0s0,0,0,0c-0.5-0.7-1.3-1.2-2.5-1.2c-0.9,0-2.2,0-3.9,0.1c-1.7,0-3,0.1-3.8,0.1
			c-0.9,0-2.1,0-3.9-0.1c-1.8,0-3.1-0.1-4-0.1c-0.9,0-1.4,0.4-1.7,0.7c-0.4-0.4-1.1-0.7-1.8-0.7c-0.7,0-1.7,0-3,0.1
			c-1.3,0.1-2.2,0.1-2.8,0.1h-0.9L243.9,2c-0.5,0.2-1.5,0.7-1.5,2.4c0,0.8,0,2,0,3.6c0-0.4-0.2-0.8-0.4-1.1c0,0,0,0,0,0c0,0,0,0,0,0
			c0,0,0,0,0,0c0,0,0,0,0,0c0,0,0,0,0,0c0,0,0,0,0,0c0,0,0,0,0,0c0,0,0,0,0,0c0,0,0,0,0,0c0,0,0,0,0,0c0,0,0,0,0,0c0,0,0,0,0,0
			c0,0,0,0,0,0c0,0,0,0,0,0c0,0,0,0,0,0c0,0,0,0,0,0c0,0,0,0,0,0c0,0,0,0,0,0c0,0,0,0,0,0c0,0,0,0,0,0c0,0,0,0,0,0c0,0,0,0,0,0
			c0,0,0,0,0,0c0,0,0,0,0,0c0,0,0,0,0,0c0,0,0,0,0,0c0,0,0,0,0,0c0,0,0,0,0,0c0,0,0,0,0,0c0,0,0,0,0,0c0,0,0,0,0,0c0,0,0,0,0,0
			c0,0,0,0,0,0c0,0,0,0,0,0c0,0,0,0,0,0c0,0,0,0,0,0c0,0,0,0,0,0c0,0,0,0,0,0c0,0,0,0,0,0c0,0,0,0,0,0c0,0,0,0,0,0c0,0,0,0,0,0
			c0,0,0,0,0,0c0,0,0,0,0,0c0,0,0,0,0,0c0,0,0,0,0,0c0,0,0,0,0,0c0,0,0,0,0,0c0,0,0,0,0,0c0,0,0,0,0,0c0,0,0,0,0,0c0,0,0,0,0,0
			c0,0,0,0,0,0c0,0,0,0,0,0c0,0,0,0,0,0c0,0,0,0,0,0c0,0,0,0,0,0c0,0,0,0,0,0c0,0,0,0,0,0c0,0,0,0,0,0c0,0,0,0,0,0c0,0,0,0,0,0
			c0,0,0,0,0,0c0,0,0,0,0,0c0,0,0,0,0,0c0,0,0,0,0,0c0,0,0,0,0,0c0,0,0,0,0,0c0,0,0,0,0,0c0,0,0,0,0,0c0,0,0,0,0,0c0,0,0,0,0,0
			c0,0,0,0,0,0s0,0,0,0s0,0,0,0s0,0,0,0s0,0,0,0s0,0,0,0s0,0,0,0s0,0,0,0s0,0,0,0s0,0,0,0s0,0,0,0s0,0,0,0s0,0,0,0s0,0,0,0s0,0,0,0
			s0,0,0,0s0,0,0,0s0,0,0,0s0,0,0,0s0,0,0,0s0,0,0,0s0,0,0,0s0,0,0,0s0,0,0,0s0,0,0,0s0,0,0,0s0,0,0,0s0,0,0,0c-0.4-0.6-1.2-1-2-1
			c-0.7,0-1.7,0-3.1-0.1c-1.5-0.1-2.5-0.1-3.3-0.1c-1.1,0-2.4,0.8-2.4,2.7c0,0.9,0,2.2-0.1,4c0,0,0,0,0,0c0,0,0,0,0,0s0,0,0,0
			s0,0,0,0c0,0.1,0,0.1,0,0.1c0,0,0,0,0,0s0,0,0,0s0,0,0,0s0,0,0,0s0,0,0,0s0,0,0,0s0,0,0,0s0,0,0,0c0,0,0,0,0,0c0,0,0,0,0,0
			c0,0,0,0,0,0c0,0,0,0,0,0c0,0,0,0,0,0c0,0,0,0,0,0c0,0,0,0,0,0c0,0,0,0,0,0c0,0,0,0,0,0c0,0,0,0,0,0c0,0,0,0,0,0c0,0,0,0,0,0
			c0,0,0,0,0,0c0,0,0,0,0,0c0,0,0,0,0,0c0,0,0,0,0,0c0,0,0,0,0,0c0,0,0,0,0,0c0,0,0,0,0,0c0,0,0,0,0,0c0,0,0,0,0,0c0,0,0,0,0,0
			c-0.4-0.5-0.8-1-1.2-1.5c-2.8-3-6.3-4.4-10.4-4.4c-4.2,0-7.7,1.5-10.5,4.4c-2.7,2.9-4.1,6.4-4.1,10.6c0,1.6,0.2,3.1,0.6,4.5
			c-0.1,0-0.3,0-0.4,0c-1.1,0-2.7,0.1-4.8,0.2c-0.1,0-0.3,0-0.4,0l0-2.4c0.2-4.4,0.3-7.7,0.5-9.9l0-0.3c0-0.5-0.1-1-0.4-1.4
			c0,0,0,0,0,0c0,0,0,0,0,0c0,0,0,0,0,0c0,0,0,0,0,0c0,0,0,0,0,0c0,0,0,0,0,0c0,0,0,0,0,0c0,0,0,0,0,0c0,0,0,0,0,0c0,0,0,0,0,0
			c0,0,0,0,0,0c0,0,0,0,0,0c0,0,0,0,0,0c0,0,0,0,0,0c0,0,0,0,0,0c0,0,0,0,0,0c0,0,0,0,0,0c0,0,0,0,0,0c0,0,0,0,0,0c0,0,0,0,0,0
			c0,0,0,0,0,0c0,0,0,0,0,0c0,0,0,0,0,0c0,0,0,0,0,0c0,0,0,0,0,0c0,0,0,0,0,0c0,0,0,0,0,0c0,0,0,0,0,0c0,0,0,0,0,0c0,0,0,0,0,0
			c0,0,0,0,0,0c0,0,0,0,0,0c0,0,0,0,0,0c0,0,0,0,0,0c0,0,0,0,0,0c0,0,0,0,0,0c0,0,0,0,0,0c0,0,0,0,0,0c0,0,0,0,0,0c0,0,0,0,0,0
			c0,0,0,0,0,0c0,0,0,0,0,0c0,0,0,0,0,0c0,0,0,0,0,0c0,0,0,0,0,0c0,0,0,0,0,0c0,0,0,0,0,0c0,0,0,0,0,0c0,0,0,0,0,0c0,0,0,0,0,0
			c0,0,0,0,0,0c0,0,0,0,0,0c0,0,0,0,0,0c0,0,0,0,0,0c0,0,0,0,0,0c0,0,0,0,0,0c0,0,0,0,0,0c0,0,0,0,0,0c0,0,0,0,0,0c0,0,0,0,0,0
			c0,0,0,0,0,0c0,0,0,0,0,0c0,0,0,0,0,0c0,0,0,0,0,0c0,0,0,0,0,0c0,0,0,0,0,0c0,0,0,0,0,0c0,0,0,0,0,0c0,0,0,0,0,0c0,0,0,0,0,0
			c0,0,0,0,0,0c0,0,0,0,0,0s0,0,0,0s0,0,0,0s0,0,0,0s0,0,0,0s0,0,0,0s0,0,0,0s0,0,0,0s0,0,0,0s0,0,0,0s0,0,0,0s0,0,0,0s0,0,0,0
			s0,0,0,0s0,0,0,0s0,0,0,0s0,0,0,0s0,0,0,0s0,0,0,0s0,0,0,0s0,0,0,0s0,0,0,0s0,0,0,0s0,0,0,0s0,0,0,0s0,0,0,0s0,0,0,0s0,0,0,0
			s0,0,0,0c-0.1-0.1-0.2-0.3-0.3-0.4c-0.4-0.4-1-0.7-1.6-0.7c-0.4,0-1,0-1.8,0.1c-0.7,0-1.3,0.1-1.6,0.1c-0.3,0-0.8,0-1.5,0
			c-0.7,0-1.3-0.1-1.7-0.1c-1.7,0-2.5,1.2-2.5,2.4c0,1.4,0,3.4,0.1,6.2c0.1,2.7,0.1,4.7,0.1,6c0,1.3,0,3.2-0.1,5.7
			c0,2.6-0.1,4.5-0.1,5.8c0,0.6,0.2,1.2,0.6,1.7c0,0,0,0,0,0s0,0,0,0s0,0,0,0s0,0,0,0s0,0,0,0s0,0,0,0s0,0,0,0s0,0,0,0s0,0,0,0
			s0,0,0,0s0,0,0,0s0,0,0,0s0,0,0,0s0,0,0,0s0,0,0,0s0,0,0,0s0,0,0,0s0,0,0,0s0,0,0,0s0,0,0,0s0,0,0,0s0,0,0,0s0,0,0,0s0,0,0,0
			s0,0,0,0s0,0,0,0s0,0,0,0s0,0,0,0s0,0,0,0s0,0,0,0s0,0,0,0s0,0,0,0s0,0,0,0s0,0,0,0s0,0,0,0s0,0,0,0s0,0,0,0s0,0,0,0s0,0,0,0
			s0,0,0,0s0,0,0,0s0,0,0,0s0,0,0,0s0,0,0,0s0,0,0,0s0,0,0,0s0,0,0,0s0,0,0,0s0,0,0,0s0,0,0,0s0,0,0,0s0,0,0,0s0,0,0,0s0,0,0,0
			s0,0,0,0s0,0,0,0s0,0,0,0s0,0,0,0s0,0,0,0s0,0,0,0s0,0,0,0c0,0,0,0,0,0c0,0,0,0,0,0c0,0,0,0,0,0c0,0,0,0,0,0c0,0,0,0,0,0
			c0,0,0,0,0,0c0,0,0,0,0,0c0,0,0,0,0,0c0,0,0,0,0,0c0,0,0,0,0,0c0,0,0,0,0,0c0,0,0,0,0,0c0,0,0,0,0,0c0,0,0,0,0,0c0,0,0,0,0,0
			c0,0,0,0,0,0c0,0,0,0,0,0c0,0,0,0,0,0c0,0,0,0,0,0c0,0,0,0,0,0c0,0,0,0,0,0c0,0,0,0,0,0c0,0,0,0,0,0c0,0,0,0,0,0c0,0,0,0,0,0
			c0,0,0,0,0,0c0,0,0,0,0,0c0,0,0,0,0,0c0,0,0,0,0,0c0,0,0,0,0,0c0,0,0,0,0,0c0,0,0,0,0,0c0,0,0,0,0,0c0,0,0,0,0,0c0,0,0,0,0,0
			c0,0,0,0,0,0c0,0,0,0,0,0c0,0,0,0,0,0c0,0,0,0,0,0c0.4,0.5,0.9,0.8,1.6,0.9l0.1,0l0.1,0c0.9,0,1.6,0.1,2.1,0.1h0.3l5.2,0.1
			l3.9,0.1c1.6,0,3,0.1,4,0.1c0.7,0,1,0,1.4-0.2c0.5-0.2,1.4-0.7,1.7-2c0.2-1.1,0.4-2.3,0.4-3.7c0,0,0,0,0,0c0,0,0,0,0,0s0,0,0,0
			s0,0,0,0s0,0,0,0s0,0,0,0s0,0,0,0s0,0,0,0s0,0,0,0s0,0,0,0s0,0,0,0s0,0,0,0s0,0,0,0s0,0,0,0s0,0,0,0s0,0,0,0s0,0,0,0s0,0,0,0
			s0,0,0,0s0,0,0,0s0,0,0,0s0,0,0,0s0,0,0,0c0.3,0.3,0.5,0.6,0.8,0.9c2.8,2.9,6.3,4.4,10.5,4.4c4.2,0,7.7-1.5,10.5-4.4
			c2-2.1,3.2-4.6,3.7-7.4c0.9,1.8,1.9,3.7,2.8,5.5c0.1,0.1,0.2,0.3,0.3,0.4c0,0,0,0,0,0c0,0,0,0,0,0s0,0,0,0s0,0,0,0s0,0,0,0
			s0,0,0,0s0,0,0,0s0,0,0,0s0,0,0,0s0,0,0,0s0,0,0,0s0,0,0,0s0,0,0,0s0,0,0,0s0,0,0,0s0,0,0,0s0,0,0,0s0,0,0,0s0,0,0,0s0,0,0,0
			s0,0,0,0s0,0,0,0s0,0,0,0s0,0,0,0s0,0,0,0s0,0,0,0s0,0,0,0s0,0,0,0s0,0,0,0s0,0,0,0s0,0,0,0s0,0,0,0s0,0,0,0s0,0,0,0s0,0,0,0
			s0,0,0,0s0,0,0,0s0,0,0,0s0,0,0,0s0,0,0,0s0,0,0,0s0,0,0,0s0,0,0,0s0,0,0,0s0,0,0,0s0,0,0,0s0,0,0,0s0,0,0,0s0,0,0,0s0,0,0,0
			s0,0,0,0s0,0,0,0s0,0,0,0s0,0,0,0s0,0,0,0s0,0,0,0s0,0,0,0s0,0,0,0s0,0,0,0s0,0,0,0s0,0,0,0s0,0,0,0s0,0,0,0s0,0,0,0s0,0,0,0
			s0,0,0,0s0,0,0,0c0,0,0,0,0,0c0,0,0,0,0,0c0,0,0,0,0,0c0,0,0,0,0,0c0,0,0,0,0,0c0,0,0,0,0,0c0,0,0,0,0,0c0,0,0,0,0,0c0,0,0,0,0,0
			c0,0,0,0,0,0c0,0,0,0,0,0c0,0,0,0,0,0c0,0,0,0,0,0c0,0,0,0,0,0c0,0,0,0,0,0c0,0,0,0,0,0c0,0,0,0,0,0c0,0,0,0,0,0c0,0,0,0,0,0
			c0,0,0,0,0,0c0,0,0,0,0,0c0,0,0,0,0,0c0,0,0,0,0,0c0,0,0,0,0,0c0,0,0,0,0,0c0,0,0,0,0,0c0,0,0,0,0,0c0,0,0,0,0,0c0,0,0,0,0,0
			c0,0,0,0,0,0c0,0,0,0,0,0c0,0,0,0,0,0c0.1,0.1,0.2,0.2,0.3,0.3c0.5,0.6,1.1,0.8,1.5,0.9c0.3,0.1,0.7,0.1,3.1,0.1
			c1.3,0,2.3,0,3-0.1c0.5,0,1-0.1,1.4-0.4c0.5-0.3,0.7-0.8,0.9-1.1c1.3-2.6,2.4-4.7,3.3-6.3c0,0.5,0,1,0,1.4c0,0.6,0.2,1.1,0.4,1.5
			c0,0,0,0,0,0s0,0,0,0s0,0,0,0s0,0,0,0s0,0,0,0s0,0,0,0s0,0,0,0s0,0,0,0s0,0,0,0s0,0,0,0s0,0,0,0s0,0,0,0s0,0,0,0s0,0,0,0s0,0,0,0
			s0,0,0,0s0,0,0,0s0,0,0,0s0,0,0,0s0,0,0,0s0,0,0,0s0,0,0,0s0,0,0,0s0,0,0,0s0,0,0,0s0,0,0,0s0,0,0,0s0,0,0,0s0,0,0,0s0,0,0,0
			s0,0,0,0s0,0,0,0s0,0,0,0s0,0,0,0s0,0,0,0s0,0,0,0s0,0,0,0s0,0,0,0s0,0,0,0s0,0,0,0s0,0,0,0s0,0,0,0s0,0,0,0s0,0,0,0s0,0,0,0
			s0,0,0,0s0,0,0,0s0,0,0,0s0,0,0,0s0,0,0,0s0,0,0,0s0,0,0,0s0,0,0,0s0,0,0,0s0,0,0,0s0,0,0,0s0,0,0,0s0,0,0,0s0,0,0,0s0,0,0,0
			s0,0,0,0s0,0,0,0s0,0,0,0c0,0,0,0,0,0c0,0,0,0,0,0c0,0,0,0,0,0c0,0,0,0,0,0c0,0,0,0,0,0c0,0,0,0,0,0c0,0,0,0,0,0c0,0,0,0,0,0
			c0,0,0,0,0,0c0,0,0,0,0,0c0,0,0,0,0,0c0,0,0,0,0,0c0,0,0,0,0,0c0,0,0,0,0,0c0,0,0,0,0,0c0,0,0,0,0,0c0,0,0,0,0,0c0,0,0,0,0,0
			c0,0,0,0,0,0c0,0,0,0,0,0c0,0,0,0,0,0c0,0,0,0,0,0c0,0,0,0,0,0c0,0,0,0,0,0c0,0,0,0,0,0c0,0,0,0,0,0c0,0,0,0,0,0c0,0,0,0,0,0
			c0,0,0,0,0,0c0,0,0,0,0,0c0,0,0,0,0,0c0,0,0,0,0,0c0,0,0,0,0,0c0,0,0,0,0,0c0,0,0,0,0,0c0,0,0,0,0,0c0,0,0,0,0,0
			c0.4,0.7,1.2,1.1,2.2,1.1c0.9,0,2.2,0,4,0c1.8,0,3.1,0,4,0c5.3,0,6.8,0.1,7.2,0.2c0.4,0,0.6,0.1,0.8,0.1c0.9,0,1.7-0.5,2.3-1.3
			c0.4,0.5,0.9,0.8,1.6,1c0.3,0.1,0.9,0.2,3.4,0.2c1.5,0,2.6,0,3.4-0.1l0.7,0l0.2-0.1c0.7-0.3,1.5-1,1.5-2.3c0-0.6,0-1.3-0.1-2.2
			c0,0,0,0,0,0c0,0,0,0,0,0s0,0,0,0s0,0,0,0s0,0,0,0s0,0,0,0s0,0,0,0s0,0,0,0s0,0,0,0s0,0,0,0s0,0,0,0s0,0,0,0s0,0,0,0s0,0,0,0
			s0,0,0,0s0,0,0,0s0,0,0,0s0,0,0,0s0,0,0,0s0,0,0,0s0,0,0,0s0,0,0,0s0,0,0,0s0,0,0,0s0,0,0,0s0,0,0,0s0,0,0,0s0,0,0,0s0,0,0,0
			s0,0,0,0s0,0,0,0s0,0,0,0s0,0,0,0s0,0,0,0s0,0,0,0s0,0,0,0s0,0,0,0s0,0,0,0s0,0,0,0s0,0,0,0s0,0,0,0s0,0,0,0s0,0,0,0s0,0,0,0
			s0,0,0,0s0,0,0,0s0,0,0,0s0,0,0,0s0,0,0,0s0,0,0,0c0,0,0,0,0,0c0,0,0,0,0,0c0,0,0,0,0,0c0,0,0,0,0,0c0,0,0,0,0,0c0,0,0,0,0,0
			c0,0,0,0,0,0c0,0,0,0,0,0c0,0,0,0,0,0c0,0,0,0,0,0c0,0,0,0,0,0c0,0,0,0,0,0c0,0,0,0,0,0c0,0,0,0,0,0c0,0,0,0,0,0c0,0,0,0,0,0
			c0,0,0,0,0,0c0,0,0,0,0,0c0,0,0,0,0,0c0,0,0,0,0,0c0,0,0,0,0,0c0,0,0,0,0,0c0,0,0,0,0,0c0,0,0,0,0,0c0,0,0,0,0,0c0,0,0,0,0,0
			c0,0,0,0,0,0c0,0,0,0,0,0c0,0,0,0,0,0c0,0,0,0,0,0c0,0,0,0,0,0c0,0,0,0,0,0c0,0,0,0,0,0c0,0,0,0,0,0c0,0,0,0,0,0c0,0,0,0,0,0
			c0,0,0,0,0,0c0,0,0,0,0,0c0,0,0,0,0,0c0,0,0,0,0,0c0.2,0.2,0.4,0.5,0.7,0.6c0.4,0.2,0.7,0.3,1.2,0.3c0.6,0.1,1.7,0.1,3.4,0.1
			c2.5,0,3.3-0.1,3.6-0.1c0.9-0.1,1.4-0.5,1.7-1c0,0,0,0,0,0c0,0,0,0,0,0c0,0,0,0,0,0c0,0,0,0,0,0c0,0,0,0,0,0c0,0,0,0,0,0
			c0,0,0,0,0,0c0,0,0,0,0,0c0,0,0,0,0,0c0,0,0,0,0,0c0,0,0,0,0,0c0,0,0,0,0,0c0.8,1,1.4,1.5,2.3,1.5c0.1,0,0.3,0,0.5,0
			c2.9-0.5,5.4-1.6,7.4-3.3c2.5-2.1,3.7-4.7,3.7-7.6C314.3,22.7,313.8,21.1,312.8,19.5z M214.5,20.2c0-1.2,0.4-2.2,1.2-3.1
			c0.8-0.9,1.6-1.3,2.7-1.3c0.3,0,0.6,0,0.9,0.1c0,0.1,0,0.2,0,0.3c0,1.2-0.4,2.2-1.2,3.1s-1.6,1.3-2.7,1.3c-0.3,0-0.6,0-0.9-0.1
			C214.6,20.4,214.5,20.3,214.5,20.2z M299.3,20.9c-0.1,0-0.3,0.1-0.7,0.3c0.2-0.3,0.3-0.5,0.4-0.8c0.2-0.3,0.3-0.7,0.4-1.1
			c0,0,0,0,0,0c0,0,0,0,0,0s0,0,0,0s0,0,0,0s0,0,0,0s0,0,0,0s0,0,0,0s0,0,0,0s0,0,0,0s0,0,0,0s0,0,0,0s0,0,0,0s0,0,0,0s0,0,0,0
			s0,0,0,0s0,0,0,0s0,0,0,0c0,0,0,0.1,0.1,0.1C300,20.3,299.9,20.5,299.3,20.9z M242.4,12.2c0,0.1-0.1,0.3-0.2,0.7c0,0,0,0,0,0
			c0.1-1.5,0.2-2.7,0.2-3.6C242.4,10.4,242.4,11.4,242.4,12.2z"/>
		<path d="M177,25.4C177,25.4,177,25.4,177,25.4C177,25.3,177,25.3,177,25.4c-0.1-0.1-0.1-0.1-0.1-0.1s0,0,0,0s0,0,0,0s0,0,0,0
			s0,0,0,0s0,0,0,0s0,0,0,0s0,0,0,0s0,0,0,0s0,0,0,0s0,0,0,0s0,0,0,0s0,0,0,0s0,0,0,0s0,0,0,0s0,0,0,0s0,0,0,0s0,0,0,0s0,0,0,0
			s0,0,0,0s0,0,0,0s0,0,0,0s0,0,0,0s0,0,0,0s0,0,0,0s0,0,0,0s0,0,0,0s0,0,0,0s0,0,0,0s0,0,0,0s0,0,0,0s0,0,0,0s0,0,0,0s0,0,0,0
			s0,0,0,0s0,0,0,0s0,0,0,0s0,0,0,0s0,0,0,0s0,0,0,0s0,0,0,0l0,0c0.1-0.3,0.2-0.7,0.2-1c0-0.9,0-1.8,0.1-2.6
			c0.2-1.7,0.2-2.3,0.3-2.5l0.1-0.2l0-0.4c0-0.5-0.2-0.9-0.4-1.3c0,0,0,0,0,0s0,0,0,0s0,0,0,0s0,0,0,0s0,0,0,0s0,0,0,0s0,0,0,0
			s0,0,0,0c0.7-0.4,1.2-1.1,1.2-2.1c0-0.3,0-0.8-0.2-2.7c-0.2-1.9-0.3-2.4-0.3-2.7c-0.1-0.4-0.3-0.9-0.6-1.2c0,0,0,0,0,0
			c0,0,0,0,0,0c0,0,0,0,0,0c0,0,0,0,0,0c0,0,0,0,0,0c0,0,0,0,0,0c0,0,0,0,0,0c0,0,0,0,0,0c0,0,0,0,0,0c0,0,0,0,0,0c0,0,0,0,0,0
			c0,0,0,0,0,0c0,0,0,0,0,0c0,0,0,0,0,0c0,0,0,0,0,0c0,0,0,0,0,0c0,0,0,0,0,0c0,0,0,0,0,0c0,0,0,0,0,0c0,0,0,0,0,0c0,0,0,0,0,0
			c0,0,0,0,0,0c0,0,0,0,0,0c0,0,0,0,0,0c0,0,0,0,0,0c0,0,0,0,0,0c0,0,0,0,0,0c0,0,0,0,0,0c0,0,0,0,0,0c0,0,0,0,0,0c0,0,0,0,0,0
			c0,0,0,0,0,0c0,0,0,0,0,0c0,0,0,0,0,0c0,0,0,0,0,0c0,0,0,0,0,0c0,0,0,0,0,0c0,0,0,0,0,0c0,0,0,0,0,0c0,0,0,0,0,0c0,0,0,0,0,0
			c0,0,0,0,0,0c0,0,0,0,0,0c0,0,0,0,0,0c0,0,0,0,0,0c0,0,0,0,0,0c0,0,0,0,0,0c0,0,0,0,0,0c0,0,0,0,0,0c0,0,0,0,0,0c0,0,0,0,0,0
			c0,0,0,0,0,0c0,0,0,0,0,0c0,0,0,0,0,0c0,0,0,0,0,0c0,0,0,0,0,0c0,0,0,0,0,0c0,0,0,0,0,0c0,0,0,0,0,0c0,0,0,0,0,0c0,0,0,0,0,0
			c0,0,0,0,0,0c0,0,0,0,0,0c0,0,0,0,0,0c0,0,0,0,0,0c0,0,0,0,0,0c0,0,0,0,0,0c0,0,0,0,0,0c0,0,0,0,0,0c0,0,0,0,0,0c0,0,0,0,0,0
			c0,0,0,0,0,0s0,0,0,0s0,0,0,0s0,0,0,0s0,0,0,0s0,0,0,0s0,0,0,0s0,0,0,0s0,0,0,0s0,0,0,0s0,0,0,0s0,0,0,0s0,0,0,0s0,0,0,0s0,0,0,0
			s0,0,0,0s0,0,0,0s0,0,0,0s0,0,0,0s0,0,0,0s0,0,0,0s0,0,0,0s0,0,0,0s0,0,0,0s0,0,0,0s0,0,0,0s0,0,0,0s0,0,0,0
			c-0.5-0.7-1.3-1.1-2.5-1.1c-0.9,0-2.2,0-3.9,0.1c-1.7,0-3,0.1-3.8,0.1c-0.9,0-2.1,0-3.9-0.1c-1.8,0-3.1-0.1-4-0.1
			c-1,0-1.6,0.5-1.8,0.8c-0.1,0.1-0.1,0.2-0.2,0.2c-0.4-0.6-1.1-1-2.1-1c-0.4,0-0.9,0-1.7,0.1c-0.7,0-1.2,0-1.5,0s-0.9,0-1.6,0
			c-0.8,0-1.4-0.1-1.7-0.1c-0.9,0-1.7,0.5-2.1,1.2c0,0,0,0,0,0c0,0,0,0,0,0s0,0,0,0s0,0,0,0s0,0,0,0s0,0,0,0s0,0,0,0s0,0,0,0
			s0,0,0,0s0,0,0,0s0,0,0,0s0,0,0,0c-0.4-0.5-1.1-0.8-1.9-0.8c-0.4,0-0.9,0-1.7,0.1c-0.6,0-1.1,0-1.5,0c-0.3,0-0.8,0-1.5,0
			c-0.7,0-1.3-0.1-1.7-0.1c-1.4,0-2.4,1.1-2.4,2.5c0,0.9,0,2.2,0.1,3.9c0.1,1,0.1,1.9,0.1,2.6c-0.5,0-1.3,0-2.3,0
			c0.1-1.1,0.1-2.1,0.1-2.8c0-0.5-0.1-1-0.4-1.3c0,0,0,0,0,0c0,0,0,0,0,0c0,0,0,0,0,0c0,0,0,0,0,0c0,0,0,0,0,0c0,0,0,0,0,0
			c0,0,0,0,0,0c0,0,0,0,0,0c0,0,0,0,0,0c0,0,0,0,0,0c0,0,0,0,0,0c0,0,0,0,0,0c0,0,0,0,0,0c0,0,0,0,0,0c0,0,0,0,0,0c0,0,0,0,0,0
			c0,0,0,0,0,0c0,0,0,0,0,0c0,0,0,0,0,0c0,0,0,0,0,0c0,0,0,0,0,0c0,0,0,0,0,0c0,0,0,0,0,0c0,0,0,0,0,0c0,0,0,0,0,0c0,0,0,0,0,0
			c0,0,0,0,0,0c0,0,0,0,0,0c0,0,0,0,0,0c0,0,0,0,0,0c0,0,0,0,0,0c0,0,0,0,0,0c0,0,0,0,0,0c0,0,0,0,0,0c0,0,0,0,0,0c0,0,0,0,0,0
			c0,0,0,0,0,0c0,0,0,0,0,0c0,0,0,0,0,0c0,0,0,0,0,0c0,0,0,0,0,0c0,0,0,0,0,0c0,0,0,0,0,0c0,0,0,0,0,0c0,0,0,0,0,0c0,0,0,0,0,0
			c0,0,0,0,0,0c0,0,0,0,0,0c0,0,0,0,0,0c0,0,0,0,0,0c0,0,0,0,0,0c0,0,0,0,0,0c0,0,0,0,0,0c0,0,0,0,0,0c0,0,0,0,0,0c0,0,0,0,0,0
			c0,0,0,0,0,0c0,0,0,0,0,0c0,0,0,0,0,0c0,0,0,0,0,0c0,0,0,0,0,0c0,0,0,0,0,0c0,0,0,0,0,0c0,0,0,0,0,0c0,0,0,0,0,0c0,0,0,0,0,0
			c0,0,0,0,0,0c0,0,0,0,0,0c0,0,0,0,0,0s0,0,0,0s0,0,0,0s0,0,0,0s0,0,0,0s0,0,0,0s0,0,0,0s0,0,0,0s0,0,0,0s0,0,0,0s0,0,0,0s0,0,0,0
			s0,0,0,0s0,0,0,0s0,0,0,0s0,0,0,0s0,0,0,0s0,0,0,0s0,0,0,0s0,0,0,0s0,0,0,0s0,0,0,0s0,0,0,0s0,0,0,0s0,0,0,0s0,0,0,0s0,0,0,0
			s0,0,0,0s0,0,0,0s0,0,0,0s0,0,0,0s0,0,0,0c-0.4-0.6-1.1-1-1.9-1c-0.4,0-1,0-1.8,0c-0.7,0-1.3,0-1.6,0c-0.3,0-0.9,0-1.6,0
			c-0.8,0-1.3-0.1-1.7-0.1c-1.3,0-2.4,1-2.4,2.4c0,0,0,0,0,0.1c-2.4-2-5.5-3-9.2-3c-4.1,0-7.5,1.5-10.1,4.6
			c-0.1,0.1-0.2,0.2-0.3,0.3c0,0,0,0,0,0c0,0,0,0,0,0c0,0,0,0,0,0c0,0,0,0,0,0c0.1,0.1,0,0.1,0,0.1s0,0,0,0c0,0,0,0,0,0c0,0,0,0,0,0
			c0,0,0,0,0,0c0,0,0,0,0,0c0,0,0,0,0,0c0,0,0,0,0,0s0,0,0,0c0,0,0,0,0,0c0,0,0,0,0,0c0,0,0,0,0,0c0,0,0,0,0,0c0,0,0,0,0,0
			c0,0,0,0,0,0c0,0,0,0,0,0c0,0,0,0,0,0c0,0,0,0,0,0c0,0,0,0,0,0c0,0,0,0,0,0c0,0,0,0,0,0c0,0,0,0,0,0c0,0,0,0,0,0c0,0,0,0,0,0
			c0,0,0,0,0,0c0,0,0,0,0,0c0,0,0,0,0,0c0,0,0,0,0,0c0,0,0,0,0,0c0,0,0,0,0,0c0,0,0,0,0,0c0,0,0,0,0,0c0,0,0,0,0,0c0,0,0,0,0,0
			c0,0,0,0,0,0c0,0,0,0,0,0c0,0,0,0,0,0c0,0,0,0,0,0c0,0,0,0,0,0c0,0,0,0,0,0c0,0,0,0,0,0c0,0,0,0,0,0c0,0,0,0,0,0c0,0,0,0,0,0
			c0,0,0,0,0,0c0,0,0,0,0,0c0,0,0,0,0,0c0,0,0,0,0,0c0,0,0,0,0,0c0,0,0,0,0,0c0,0,0,0,0,0c0,0,0,0,0,0c0,0,0,0,0,0s0,0,0,0s0,0,0,0
			s0,0,0,0s0,0,0,0s0,0,0,0s0,0,0,0s0,0,0,0s0,0,0,0s0,0,0,0s0,0,0,0s0,0,0,0s0,0,0,0s0,0,0,0s0,0,0,0s0,0,0,0s0,0,0,0s0,0,0,0
			s0,0,0,0c0,0,0,0,0,0c0,0,0,0,0,0s0,0,0,0s0,0,0,0c0,0,0,0,0,0c0,0,0,0,0,0s0,0,0,0s0,0,0,0s0,0,0,0s0,0,0,0c-0.4-0.7-1.2-1-1.9-1
			c-0.7,0-1.8,0-3.3,0.1C86.3,2,85.2,2,84.6,2c-1.1,0-2.4,0.8-2.4,2.7c0,1.3,0.1,3.2,0.2,5.7c0,0.4,0.1,0.9,0.1,1.3L79,6.9
			c0-0.1-0.1-0.1-0.1-0.2c0,0,0,0,0,0c0,0,0,0,0,0c0,0,0,0,0,0c0,0,0,0,0,0c0,0,0,0,0,0c0,0,0,0,0,0c0,0,0,0,0,0c0,0,0,0,0,0
			c0,0,0,0,0,0c0,0,0,0,0,0c0,0,0,0,0,0c0,0,0,0,0,0c0,0,0,0,0,0c0,0,0,0,0,0c0,0,0,0,0,0c0,0,0,0,0,0c0,0,0,0,0,0c0,0,0,0,0,0
			c0,0,0,0,0,0c0,0,0,0,0,0c0,0,0,0,0,0c0,0,0,0,0,0c0,0,0,0,0,0c0,0,0,0,0,0c0,0,0,0,0,0c0,0,0,0,0,0c0,0,0,0,0,0c0,0,0,0,0,0
			c0,0,0,0,0,0c0,0,0,0,0,0c0,0,0,0,0,0c0,0,0,0,0,0c0,0,0,0,0,0c0,0,0,0,0,0c0,0,0,0,0,0c0,0,0,0,0,0c0,0,0,0,0,0c0,0,0,0,0,0
			c0,0,0,0,0,0c0,0,0,0,0,0c0,0,0,0,0,0c0,0,0,0,0,0c0,0,0,0,0,0c0,0,0,0,0,0c0,0,0,0,0,0c0,0,0,0,0,0c0,0,0,0,0,0c0,0,0,0,0,0
			c0,0,0,0,0,0c0,0,0,0,0,0c0,0,0,0,0,0c0,0,0,0,0,0c0,0,0,0,0,0c0,0,0,0,0,0c0,0,0,0,0,0c0,0,0,0,0,0c0,0,0,0,0,0c0,0,0,0,0,0
			c0,0,0,0,0,0c0,0,0,0,0,0c0,0,0,0,0,0c0,0,0,0,0,0c0,0,0,0,0,0s0,0,0,0c0,0,0,0,0,0c0,0,0,0,0,0c0,0,0,0,0,0s0,0,0,0c0,0,0,0,0,0
			c0,0,0,0,0,0c0,0,0,0,0,0s0,0,0,0c0,0,0,0,0,0c0,0,0,0,0,0s0,0,0,0s0,0,0,0c0,0,0,0,0,0s0,0,0,0c0,0,0,0,0,0c0,0,0,0,0,0s0,0,0,0
			c0,0,0,0,0,0c0,0,0,0,0,0s0,0,0,0c0,0,0,0,0,0c0,0,0,0,0,0s0,0,0,0c0,0,0,0,0,0c0,0,0,0,0,0s0,0,0,0c0,0,0,0,0,0s0,0,0,0
			c0,0,0,0,0,0c0,0,0,0,0,0s0,0,0,0c0,0,0,0,0,0c0,0,0,0,0,0s0,0,0,0c0,0,0,0,0,0c0,0,0,0,0,0c-0.4-0.5-1.1-1.3-2.2-1.3
			c-0.5,0-1,0.1-1.8,0.2c-0.6,0.1-1,0.2-1.2,0.2C69.8,1.9,69.1,2,68.4,2c-1.2,0-2,0.6-2.4,1.3c0,0,0,0,0,0c0,0,0,0,0,0c0,0,0,0,0,0
			s0,0,0,0s0,0,0,0s0,0,0,0c0,0,0,0,0,0c-0.5-0.7-1.3-1.2-2.5-1.2c-0.9,0-2.2,0-3.9,0.1c-1.7,0-3,0.1-3.8,0.1c-0.9,0-2.1,0-3.9-0.1
			c-1.8,0-3.1-0.1-4-0.1c-1,0-1.6,0.5-1.8,0.8c-0.4,0.5-0.7,1.1-0.6,1.8l0,0.2c0,0.6,0,1,0.1,1.5c-0.6-0.8-1.3-1.6-2.2-2.2
			c-2-1.5-4.6-2.2-7.7-2.2c-1.3,0-3,0-5.2,0.1c-5,0.1-5.4,0.2-5.7,0.2c-0.6,0.1-1,0.3-1.4,0.6c-0.5-0.7-1.4-1.1-2.4-1.1
			c-1,0-2.4,0.1-4.4,0.2C14.7,1.9,13.4,2,12.5,2c-0.9,0-2.2,0-3.9,0c-1.8,0-3.1-0.1-4-0.1c-1,0-1.5,0.4-1.9,0.8
			C2.3,3.1,2,3.7,2.1,4.5l0,0.1c0,0.3,0.1,2.2,0.3,5.9c0.1,2.3,0.2,4.2,0.2,5.7c0,1.3,0,3.2-0.1,5.8c-0.1,2.6-0.1,4.6-0.1,5.9
			c0,0.6,0.2,1.2,0.6,1.6c0,0,0,0,0,0s0,0,0,0s0,0,0,0s0,0,0,0s0,0,0,0s0,0,0,0s0,0,0,0s0,0,0,0s0,0,0,0s0,0,0,0s0,0,0,0s0,0,0,0
			s0,0,0,0s0,0,0,0s0,0,0,0s0,0,0,0s0,0,0,0s0,0,0,0s0,0,0,0s0,0,0,0s0,0,0,0s0,0,0,0s0,0,0,0s0,0,0,0s0,0,0,0s0,0,0,0s0,0,0,0
			s0,0,0,0s0,0,0,0s0,0,0,0s0,0,0,0s0,0,0,0s0,0,0,0s0,0,0,0s0,0,0,0s0,0,0,0c0,0,0,0,0,0s0,0,0,0s0,0,0,0s0,0,0,0s0,0,0,0s0,0,0,0
			s0,0,0,0s0,0,0,0s0,0,0,0s0,0,0,0s0,0,0,0s0,0,0,0s0,0,0,0s0,0,0,0s0,0,0,0s0,0,0,0s0,0,0,0s0,0,0,0s0,0,0,0s0,0,0,0s0,0,0,0
			s0,0,0,0s0,0,0,0s0,0,0,0s0,0,0,0s0,0,0,0s0,0,0,0c0,0,0,0,0,0c0,0,0,0,0,0c0,0,0,0,0,0c0,0,0,0,0,0c0,0,0,0,0,0c0,0,0,0,0,0
			c0,0,0,0,0,0s0,0,0,0c0,0,0,0,0,0c0,0,0,0,0,0c0,0,0,0,0,0c0,0,0,0,0,0c0,0,0,0,0,0c0,0,0,0,0,0c0,0,0,0,0,0c0,0,0,0,0,0
			c0,0,0,0,0,0c0,0,0,0,0,0c0,0,0,0,0,0c0,0,0,0,0,0c0,0,0,0,0,0c0,0,0,0,0,0c0,0,0,0,0,0c0,0,0,0,0,0c0,0,0,0,0,0c0,0,0,0,0,0
			c0,0,0,0,0,0c0,0,0,0,0,0c0,0,0,0,0,0c0,0,0,0,0,0c0,0,0,0,0,0c0,0,0,0,0,0c0,0,0,0,0,0c0,0,0,0,0,0c0,0,0,0,0,0c0,0,0,0,0,0
			c0,0,0,0,0,0c0.4,0.5,0.9,0.8,1.5,0.9c0.6,0.1,1.6,0.3,4.7,0.3c0.1,0,0.1,0,0.2,0l0,0h0l0,0h0l0,0l1.5-0.1
			c2.6-0.2,2.9-1.9,2.9-2.4l0-0.1l0-0.2c0-0.2-0.1-1-0.2-2.5c-0.1-1.6-0.2-3.1-0.2-4.4c0.1,0,0.2,0,0.3,0c2.5,0,4.3,0.1,5.5,0.2
			c0.1,0,0.2,0,0.3,0c0,1.1,0,2,0,2.7c0,0.6,0.2,1.2,0.6,1.6c0,0,0,0,0,0s0,0,0,0s0,0,0,0s0,0,0,0s0,0,0,0s0,0,0,0s0,0,0,0s0,0,0,0
			s0,0,0,0s0,0,0,0s0,0,0,0s0,0,0,0s0,0,0,0s0,0,0,0s0,0,0,0s0,0,0,0s0,0,0,0s0,0,0,0s0,0,0,0s0,0,0,0s0,0,0,0s0,0,0,0s0,0,0,0
			s0,0,0,0s0,0,0,0s0,0,0,0s0,0,0,0s0,0,0,0s0,0,0,0s0,0,0,0s0,0,0,0s0,0,0,0s0,0,0,0s0,0,0,0s0,0,0,0s0,0,0,0s0,0,0,0s0,0,0,0
			s0,0,0,0s0,0,0,0s0,0,0,0s0,0,0,0s0,0,0,0s0,0,0,0s0,0,0,0s0,0,0,0s0,0,0,0s0,0,0,0s0,0,0,0s0,0,0,0s0,0,0,0s0,0,0,0s0,0,0,0
			s0,0,0,0s0,0,0,0s0,0,0,0s0,0,0,0s0,0,0,0s0,0,0,0s0,0,0,0s0,0,0,0s0,0,0,0c0,0,0,0,0,0c0,0,0,0,0,0c0,0,0,0,0,0c0,0,0,0,0,0
			c0,0,0,0,0,0c0,0,0,0,0,0c0,0,0,0,0,0c0,0,0,0,0,0c0,0,0,0,0,0c0,0,0,0,0,0c0,0,0,0,0,0c0,0,0,0,0,0c0,0,0,0,0,0c0,0,0,0,0,0
			c0,0,0,0,0,0c0,0,0,0,0,0c0,0,0,0,0,0c0,0,0,0,0,0c0,0,0,0,0,0c0,0,0,0,0,0c0,0,0,0,0,0c0,0,0,0,0,0c0,0,0,0,0,0c0,0,0,0,0,0
			c0,0,0,0,0,0c0,0,0,0,0,0c0,0,0,0,0,0c0,0,0,0,0,0c0,0,0,0,0,0c0,0,0,0,0,0c0,0,0,0,0,0c0,0,0,0,0,0c0,0,0,0,0,0c0,0,0,0,0,0
			c0,0,0,0,0,0c0,0,0,0,0,0c0,0,0,0,0,0c0,0,0,0,0,0c0.4,0.5,0.9,0.8,1.5,0.9c0.3,0.1,0.9,0.2,3.4,0.2c1.5,0,2.6,0,3.4-0.1l0.7,0
			l0.2-0.1c0.7-0.3,1.5-1,1.5-2.3c0-0.6,0-1.3-0.1-2.2c0,0,0,0,0,0c0,0,0,0,0,0s0,0,0,0s0,0,0,0s0,0,0,0s0,0,0,0s0,0,0,0s0,0,0,0
			s0,0,0,0s0,0,0,0s0,0,0,0s0,0,0,0s0,0,0,0s0,0,0,0s0,0,0,0s0,0,0,0s0,0,0,0s0,0,0,0s0,0,0,0s0,0,0,0s0,0,0,0s0,0,0,0s0,0,0,0
			s0,0,0,0s0,0,0,0s0,0,0,0s0,0,0,0s0,0,0,0s0,0,0,0s0,0,0,0s0,0,0,0s0,0,0,0s0,0,0,0s0,0,0,0s0,0,0,0s0,0,0,0s0,0,0,0s0,0,0,0
			s0,0,0,0s0,0,0,0s0,0,0,0s0,0,0,0s0,0,0,0s0,0,0,0s0,0,0,0s0,0,0,0s0,0,0,0s0,0,0,0s0,0,0,0s0,0,0,0s0,0,0,0s0,0,0,0c0,0,0,0,0,0
			c0,0,0,0,0,0c0,0,0,0,0,0c0,0,0,0,0,0c0,0,0,0,0,0c0,0,0,0,0,0c0,0,0,0,0,0c0,0,0,0,0,0c0,0,0,0,0,0c0,0,0,0,0,0c0,0,0,0,0,0
			c0,0,0,0,0,0c0,0,0,0,0,0c0,0,0,0,0,0c0,0,0,0,0,0c0,0,0,0,0,0c0,0,0,0,0,0c0,0,0,0,0,0c0,0,0,0,0,0c0,0,0,0,0,0c0,0,0,0,0,0
			c0,0,0,0,0,0c0,0,0,0,0,0c0,0,0,0,0,0c0,0,0,0,0,0c0,0,0,0,0,0c0,0,0,0,0,0c0,0,0,0,0,0c0,0,0,0,0,0c0,0,0,0,0,0c0,0,0,0,0,0
			c0,0,0,0,0,0c0,0,0,0,0,0c0,0,0,0,0,0c0,0,0,0,0,0c0,0,0,0,0,0c0,0,0,0,0,0c0,0,0,0,0,0c0.2,0.2,0.4,0.5,0.7,0.6
			c0.4,0.2,0.7,0.3,1.2,0.3c0.7,0.1,1.7,0.1,3.4,0.1c2.5,0,3.3-0.1,3.7-0.1c0.4-0.1,0.8-0.2,1.1-0.4c0.4,0.3,0.9,0.4,1.5,0.4
			c0.9,0,2.2,0,4,0c1.8,0,3.1,0,4,0c5.3,0,6.8,0.1,7.2,0.2c0.4,0,0.7,0.1,0.8,0.1c0.9,0,1.7-0.4,2.3-1.3c0.4,0.6,1.2,1,2,1h6.1
			c1.2,0,2.5-0.9,2.5-2.6c0-1.4,0-3.5-0.1-6.2c0-0.3,0-0.5,0-0.8c0,0,0.1,0.1,0.1,0.1l0,0c0,0,0.1,0.1,0.1,0.1c0,0,0,0,0,0
			c0.4,0.5,0.7,1,1.1,1.4c2.4,3.2,4.1,5.4,4.8,6.4l0,0c0,0,0,0,0,0c0.7,0.9,1.5,1.4,2.3,1.4c0.3,0,0.7,0,1.2,0.1
			c0.7,0,1.2,0.1,1.5,0.1c0.3,0,0.8,0,1.4,0c0.5,0,0.9,0,1.2,0c1.4,0,2.5-1,2.5-2.5v-4.9c0,0,0,0,0,0c0,0,0,0,0,0s0,0,0,0s0,0,0,0
			s0,0,0,0s0,0,0,0s0,0,0,0s0,0,0,0s0,0,0,0s0,0,0,0s0,0,0,0s0,0,0,0s0,0,0,0s0,0,0,0s0,0,0,0s0,0,0,0s0,0,0,0s0,0,0,0s0,0,0,0
			s0,0,0,0s0,0,0,0s0,0,0,0s0,0,0,0s0,0,0,0s0,0,0,0s0,0,0,0s0,0,0,0s0,0,0,0s0,0,0,0s0,0,0,0s0,0,0,0s0,0,0,0s0,0,0,0s0,0,0,0
			s0,0,0,0s0,0,0,0s0,0,0,0s0,0,0,0s0,0,0,0s0,0,0,0s0,0,0,0s0,0,0,0s0,0,0,0s0,0,0,0s0,0,0,0s0,0,0,0s0,0,0,0s0,0,0,0s0,0,0,0
			s0,0,0,0s0,0,0,0s0,0,0,0s0,0,0,0s0,0,0,0s0,0,0,0s0,0,0,0s0,0,0,0s0,0,0,0s0,0,0,0s0,0,0,0s0,0,0,0s0,0,0,0s0,0,0,0s0,0,0,0
			s0,0,0,0c0.3,0.4,0.6,0.7,0.9,1.1c2.7,2.9,6.2,4.4,10.4,4.4c3.3,0,6.1-1,8.4-2.9c0,0,0,0,0,0c0,0,0,0,0,0c0,0,0,0,0,0c0,0,0,0,0,0
			c0,0,0,0,0,0c0,0,0,0,0,0c0,0,0,0,0,0c0,0,0,0,0,0c0,0,0,0,0,0c0,0,0,0,0,0c0,0,0,0,0,0c0,0,0,0,0,0c0,0,0,0,0,0c0,0,0,0,0,0
			c0,0,0,0,0,0c0,0,0,0,0,0c0,0,0,0,0,0c0,0,0,0,0,0c0,0,0,0,0,0c0,0,0,0,0,0c0,0,0,0,0,0c0,0,0,0,0,0c0,0,0,0,0,0c0,0,0,0,0,0
			c0,0,0,0,0,0c0,0,0,0,0,0c0,0,0,0,0,0c0,0,0,0,0,0c0,0,0,0,0,0c0,0,0,0,0,0c0,0,0,0,0,0c0,0,0,0,0,0c0,0,0,0,0,0c0,0,0,0,0,0
			c0,0,0,0,0,0c0.4,0.5,0.9,0.8,1.6,0.9c0.4,0.1,1.1,0.1,3.3,0.1c2.6,0,3.3-0.1,3.7-0.1c1.3-0.2,2.1-1.3,2.1-2.6
			c0-0.9,0-2.3-0.1-4.2c0-1.2-0.1-2.1-0.1-2.9c0.5,0,1.2,0,2.1,0c-0.1,1.4-0.1,2.5-0.1,3.3c0,0.6,0.2,1.1,0.6,1.6c0,0,0,0,0,0
			s0,0,0,0s0,0,0,0s0,0,0,0s0,0,0,0s0,0,0,0s0,0,0,0s0,0,0,0s0,0,0,0s0,0,0,0s0,0,0,0s0,0,0,0s0,0,0,0s0,0,0,0s0,0,0,0s0,0,0,0
			s0,0,0,0s0,0,0,0s0,0,0,0s0,0,0,0s0,0,0,0s0,0,0,0s0,0,0,0s0,0,0,0s0,0,0,0s0,0,0,0s0,0,0,0s0,0,0,0s0,0,0,0s0,0,0,0s0,0,0,0
			s0,0,0,0s0,0,0,0s0,0,0,0s0,0,0,0s0,0,0,0s0,0,0,0s0,0,0,0s0,0,0,0s0,0,0,0s0,0,0,0s0,0,0,0s0,0,0,0s0,0,0,0s0,0,0,0s0,0,0,0
			s0,0,0,0s0,0,0,0s0,0,0,0s0,0,0,0s0,0,0,0s0,0,0,0s0,0,0,0s0,0,0,0s0,0,0,0s0,0,0,0s0,0,0,0s0,0,0,0s0,0,0,0s0,0,0,0s0,0,0,0
			c0,0,0,0,0,0c0,0,0,0,0,0c0,0,0,0,0,0c0,0,0,0,0,0c0,0,0,0,0,0c0,0,0,0,0,0c0,0,0,0,0,0c0,0,0,0,0,0c0,0,0,0,0,0c0,0,0,0,0,0
			c0,0,0,0,0,0c0,0,0,0,0,0c0,0,0,0,0,0c0,0,0,0,0,0c0,0,0,0,0,0c0,0,0,0,0,0c0,0,0,0,0,0c0,0,0,0,0,0c0,0,0,0,0,0c0,0,0,0,0,0
			c0,0,0,0,0,0c0,0,0,0,0,0c0,0,0,0,0,0c0,0,0,0,0,0c0,0,0,0,0,0c0,0,0,0,0,0c0,0,0,0,0,0c0,0,0,0,0,0c0,0,0,0,0,0c0,0,0,0,0,0
			c0,0,0,0,0,0c0,0,0,0,0,0c0,0,0,0,0,0c0,0,0,0,0,0c0,0,0,0,0,0c0,0,0,0,0,0c0,0,0,0,0,0c0,0,0,0,0,0c0,0,0,0,0,0
			c0.4,0.4,0.9,0.8,1.5,0.9c0.4,0.1,0.9,0.2,3.7,0.2c1.4,0,2.4,0,3.2-0.1c0.5,0,1-0.1,1.5-0.4c0.2-0.1,0.4-0.3,0.6-0.6
			c0.4,0.5,0.9,0.9,1.6,1c0.4,0.1,1.2,0.2,3.7,0.2c1.4,0,2.4,0,3.3-0.2c0.5-0.1,0.8-0.1,1.2-0.3c0.2-0.1,0.6-0.4,0.9-0.9
			c0.4,0.7,1.2,1.2,2.2,1.2c0.9,0,2.2,0,4,0c1.8,0,3.1,0,4,0c5.3,0,6.8,0.1,7.2,0.2c0.4,0,0.6,0.1,0.8,0.1c0.9,0,1.8-0.5,2.3-1.3
			c0.3-0.5,0.5-1.2,0.8-3.3c0.2-1.5,0.3-2.5,0.3-3.1c0-0.6-0.2-1.2-0.4-1.6C177.1,25.4,177.1,25.4,177,25.4z M105.8,20.1
			c0-1.3,0.3-2.4,1-3.2c0.7-0.8,1.4-1.2,2.6-1.2c0.7,0,1.3,0.2,2,0.5c0.5,0.2,0.9,0.6,1.5,1c0.8,0.8,1.4,1.2,2.2,1.2
			c0.1,0,0.2,0,0.4,0c0,0.7-0.1,1.5-0.1,2.4c0,0,0,0,0,0c0,0,0,0,0,0s0,0,0,0s0,0,0,0s0,0,0,0s0,0,0,0s0,0,0,0s0,0,0,0s0,0,0,0
			s0,0,0,0s0,0,0,0s0,0,0,0s0,0,0,0s0,0,0,0s0,0,0,0s0,0,0,0c0,0,0,0,0,0s0,0,0,0s0,0,0,0s0,0,0,0s0,0,0,0s0,0,0,0c0,0,0,0,0,0
			s0,0,0,0s0,0,0,0s0,0,0,0s0,0,0,0s0,0,0,0s0,0,0,0s0,0,0,0c0,0,0,0,0,0s0,0,0,0s0,0,0,0s0,0,0,0s0,0,0,0s0,0,0,0s0,0,0,0s0,0,0,0
			s0,0,0,0c-0.1-0.1-0.1-0.1-0.1-0.2c-0.1-0.1-0.2-0.2-0.2-0.2c-0.5-0.5-1.2-0.9-1.8-0.9c-0.8,0-1.3,0.4-2.2,1.1
			c-0.5,0.4-1,0.7-1.4,1c-0.6,0.3-1.3,0.5-2,0.5c-0.2,0-0.4,0-0.5,0C105.8,20.4,105.8,20.2,105.8,20.1z"/>
	</g>
	<g>
		<path class="st0" d="M24,8.6c0-1-0.1-1.8-0.1-2.3c-0.1-0.5-0.4-0.7-1-0.7c-0.9,0-2.4,0.1-4.2,0.2S15.4,6,14.5,6
			c-0.9,0-2.2,0-3.9-0.1S7.5,5.9,6.6,5.9C6.2,5.9,6.1,6,6.1,6.3l0,0.2c0,0.3,0.1,2.2,0.3,5.8c0.1,2.3,0.2,4.3,0.2,5.8
			c0,1.3,0,3.3-0.1,5.9s-0.1,4.6-0.1,5.9c0,0.3,0.2,0.5,0.5,0.5c0.6,0.1,2,0.2,4.2,0.2c1.1,0,1.6,0,1.6,0c0.7,0,1.1-0.2,1.1-0.5
			c0-0.1-0.1-1-0.2-2.6c-0.1-2.2-0.2-4.1-0.2-5.8c0-0.4,0.3-0.7,0.9-0.8c0.1,0,0.6,0,1.4,0c2.5,0,4.4,0.1,5.7,0.2
			c0.9,0.1,1.3,0.1,1.1,0.1c0.2,0,0.4-0.1,0.5-0.3c0.1-0.3,0.2-1.3,0.2-3.1c0-2.1-0.2-3.1-0.6-3.1c-0.8,0-2,0-3.6,0.1
			s-2.8,0.1-3.6,0.1c-0.5,0-0.8,0-1.1-0.1c-0.6-0.1-0.8-0.8-0.8-1.9c0-0.9,0.2-1.5,0.6-1.7c0.2-0.1,0.8-0.1,2-0.1
			c0.9,0,2.2,0.1,4,0.2s3.1,0.2,4,0.2c0.2,0,0.4-0.1,0.4-0.2c0-0.4-0.1-0.9-0.2-1.5C24.1,9.3,24,8.8,24,8.6z"/>
		<path class="st0" d="M43.1,21c0-0.2,0.1-0.3,0.4-0.5c1.3-1,2.2-2,2.7-3s0.7-2.4,0.7-4.1c0-2.6-1-4.5-2.9-5.9
			c-1.7-1.2-3.9-1.8-6.5-1.8c-1.3,0-3,0-5.2,0.1c-3.2,0.1-5,0.1-5.4,0.2s-0.6,0.2-0.5,0.4l0,0.3c0.2,2.8,0.3,6.6,0.3,11.6
			c0,1.3-0.1,3.3-0.2,5.9s-0.2,4.6-0.2,5.8c0,0.3,0.2,0.5,0.5,0.5s1.4,0.1,3,0.1c1.5,0,2.5,0,3.2-0.1c0.2,0,0.3,0,0.5,0
			c0.1,0,0.2-0.1,0.2-0.4c0-0.8-0.1-2-0.2-3.6s-0.2-2.8-0.2-3.6c0-0.6,0.1-0.9,0.3-0.9c1.3,0,1.9,0,1.9,0c0.7,0.1,1.2,0.3,1.4,0.7
			c1,2.3,1.7,4,2.1,5.2c0.3,0.9,0.6,1.6,0.8,2c0.1,0.2,0.2,0.3,0.3,0.4c0,0,0.2,0,0.4,0.1c0.5,0.1,1.6,0.1,3.1,0.1
			c1.8,0,2.9,0,3.4-0.1c0.2,0,0.3-0.1,0.3-0.2c0-0.3-0.7-1.9-2.1-4.9S43.1,21,43.1,21z M36.2,17.6c-0.8,0-1.5,0-2.3-0.2
			c-0.4-0.1-0.6-0.1-0.6-0.2c0-0.3,0-0.6,0-1.2s0-0.9,0-1.2c0-1.9,0-3.1,0.1-3.4c0.1-0.3,0.7-0.5,1.8-0.5c1.5,0,2.7,0.2,3.4,0.6
			c0.9,0.6,1.4,1.5,1.4,3C40,16.6,38.8,17.6,36.2,17.6z"/>
		<path class="st0" d="M67,24.4c-0.6,0-1.5,0.1-2.8,0.2s-2.2,0.2-2.8,0.2c-1.7,0-2.6,0-2.6,0c-1.3-0.1-2-0.4-2.3-0.8
			c-0.1-0.3-0.2-0.8-0.2-1.7c0-0.7,0-1,0-1.1c0.1-0.2,0.4-0.4,0.8-0.4h1.9c2.4,0,3.9,0,4.6,0.1l1.6,0.2c0.3,0,0.5-0.1,0.5-0.4
			c0-0.9,0.1-1.9,0.1-2.8c0.2-1.7,0.3-2.6,0.3-2.7c0-0.3-0.1-0.4-0.4-0.4c-0.2,0-0.6,0-0.9,0.1c-0.5,0.1-0.8,0.1-1,0.1
			c-1.5,0.1-3,0.1-4.5,0.1c-0.2,0-0.5,0-0.8,0s-0.6,0-0.7,0c-0.6,0-0.9-0.1-1.1-0.3c-0.2-0.3-0.3-0.8-0.3-1.6c0-0.8,0-1.2,0.1-1.4
			c0.1-0.3,0.5-0.4,1.1-0.4c2.5,0,5.3,0.1,8.4,0.4c0.2,0,0.3,0,0.4,0c0.2,0,0.3-0.1,0.3-0.4c0-0.3-0.1-1.1-0.2-2.5s-0.2-2.2-0.3-2.5
			C66.3,6,66,5.8,65.3,5.8c-0.9,0-2.1,0-3.9,0.1S58.5,6,57.6,6c-0.9,0-2.2,0-3.9-0.1s-3-0.1-3.9-0.1c-0.3,0-0.5,0.1-0.4,0.4l0,0.3
			c0.1,1.9,0.2,3.3,0.2,4.2c0.1,3.6,0.2,6.1,0.2,7.5c0,1.3-0.1,3.3-0.2,5.9s-0.2,4.6-0.2,5.9c0,0.3,0.2,0.5,0.6,0.5c0.9,0,2.2,0,4,0
			s3.1,0,4,0c4.1,0,6.6,0.1,7.5,0.2c0.3,0,0.4,0,0.5,0c0.3,0,0.4-0.1,0.6-0.3c0.2-0.3,0.3-1.1,0.6-2.6c0.2-1.4,0.3-2.3,0.3-2.8
			C67.4,24.6,67.3,24.4,67,24.4z"/>
		<path class="st0" d="M92.9,5.8c-0.7,0-1.8,0-3.2,0.1S87.3,6,86.6,6c-0.3,0-0.4,0.2-0.4,0.7c0,1.2,0.1,3.1,0.2,5.6s0.2,4.3,0.2,5.6
			c0,0.9-0.1,1.4-0.2,1.4c-0.2,0-0.5-0.2-0.8-0.5c-1.2-1.6-2.1-2.7-2.7-3.6l-6.5-9c-0.3-0.4-0.5-0.6-0.7-0.6c-0.3,0-0.8,0.1-1.4,0.2
			c-0.7,0.1-1.2,0.2-1.4,0.2C72,5.9,71.1,6,70.5,6c-0.5,0-0.7,0.1-0.7,0.4c0,1.3,0.1,3.3,0.2,6s0.2,4.7,0.2,6c0,1.3-0.1,3.2-0.2,5.8
			s-0.2,4.5-0.2,5.7c0,0.4,0.2,0.5,0.5,0.5h6.1c0.3,0,0.5-0.2,0.5-0.6c0-1.4,0-3.4-0.1-6.1s-0.1-4.8-0.1-6.1c0-0.2,0.1-0.3,0.1-0.4
			c0.1,0.1,0.2,0.1,0.3,0.2c1.7,2.1,2.9,3.7,3.7,4.8c2.9,3.9,4.8,6.4,5.7,7.6c0.3,0.4,0.5,0.6,0.8,0.6c0.3,0,0.8,0,1.4,0.1
			s1.1,0.1,1.4,0.1c0.3,0,0.7,0,1.3,0s1,0,1.3,0c0.3,0,0.5-0.2,0.5-0.5V18.4c0-1.4,0.1-3.4,0.2-6s0.2-4.7,0.2-6
			C93.3,6,93.1,5.8,92.9,5.8z"/>
		<path class="st0" d="M114.2,22.2c-0.1-0.1-0.2-0.2-0.3-0.2c-0.1,0-0.3,0.2-0.9,0.7c-0.6,0.5-1.2,0.9-1.8,1.2
			c-0.9,0.5-1.9,0.7-2.9,0.7c-1.7,0-3.1-0.7-4.1-2c-0.9-1.2-1.4-2.7-1.4-4.5c0-1.8,0.5-3.2,1.4-4.4c1-1.3,2.4-1.9,4.1-1.9
			c1,0,2,0.2,2.9,0.7c0.6,0.3,1.2,0.8,1.9,1.3c0.5,0.5,0.8,0.7,0.9,0.7c0.1,0,0.3-0.1,0.3-0.1c0.2-0.2,0.7-1,1.5-2.4
			s1.2-2.3,1.2-2.5c0-0.2-0.1-0.4-0.3-0.7c-2.2-2.3-5.1-3.5-8.9-3.5c-3.5,0-6.4,1.3-8.6,3.9c-2.2,2.5-3.3,5.5-3.3,9.1
			c0,3.7,1.1,6.7,3.3,9.1c2.3,2.5,5.2,3.7,8.9,3.7c3.6,0,6.4-1.3,8.6-3.9c0.3-0.3,0.4-0.5,0.4-0.7c0-0.1-0.4-0.8-1.3-2.1
			C114.9,23.1,114.4,22.4,114.2,22.2z"/>
		<path class="st0" d="M142.2,18.5c0-1.4,0.1-3.4,0.2-6.1s0.2-4.8,0.2-6.1c0-0.3-0.2-0.4-0.5-0.4c-0.4,0-0.9,0-1.6,0.1
			s-1.2,0.1-1.6,0.1c-0.4,0-0.9,0-1.6-0.1s-1.2-0.1-1.6-0.1c-0.3,0-0.4,0.2-0.4,0.5c0,0.9,0,2.1,0.1,3.8s0.1,3,0.1,3.8
			c0,0.4-0.1,0.6-0.4,0.7c-0.4,0.1-1.9,0.1-4.4,0.1c-2.7,0-4.2-0.1-4.5-0.1c-0.2-0.1-0.3-0.3-0.3-0.7c0-0.9,0.1-2.2,0.2-3.9
			s0.2-3.1,0.2-3.9c0-0.2-0.1-0.3-0.3-0.3c-0.4,0-0.9,0-1.7,0.1s-1.3,0.1-1.7,0.1c-0.4,0-0.9,0-1.6-0.1s-1.3-0.1-1.6-0.1
			c-0.3,0-0.4,0.1-0.4,0.4c0,1.4,0.1,3.4,0.2,6.1s0.2,4.8,0.2,6.1c0,1.3-0.1,3.2-0.2,5.8s-0.2,4.5-0.2,5.7c0,0.3,0.2,0.5,0.5,0.5
			c0.4,0.1,1.4,0.1,3,0.1c1.8,0,2.9,0,3.3-0.1c0.3-0.1,0.5-0.3,0.5-0.6c0-0.9,0-2.3-0.1-4.1s-0.1-3.2-0.1-4.1c0-0.5,0.1-0.7,0.4-0.8
			c0.4-0.1,1.8-0.1,4.3-0.1c2.4,0,3.9,0,4.3,0.1c0.3,0.1,0.4,0.3,0.4,0.8c0,0.9,0,2.3-0.1,4.2s-0.1,3.3-0.1,4.2
			c0,0.3,0.2,0.4,0.5,0.5s1.4,0.1,3.2,0.1c1.3,0,2.3,0,3-0.1c0.3,0,0.4,0,0.5-0.1c0.1-0.1,0.2-0.2,0.2-0.5c0-1.3-0.1-3.2-0.2-5.7
			S142.2,19.7,142.2,18.5z"/>
		<path class="st0" d="M153.3,6.2c0-0.3-0.2-0.4-0.5-0.4c-0.4,0-0.9,0-1.6,0.1s-1.3,0.1-1.6,0.1s-0.9,0-1.6-0.1s-1.3-0.1-1.6-0.1
			c-0.3,0-0.4,0.1-0.4,0.4c0,1.3,0,3.1,0.1,5.6s0.1,4.4,0.1,5.6c0,1.5-0.1,4.6-0.3,9.4c-0.1,2.3-0.2,3.3-0.2,3.1
			c0,0.3,0.2,0.5,0.5,0.5c0.5,0.1,1.6,0.1,3.3,0.1c1.3,0,2.3,0,3.1-0.1c0.3,0,0.4-0.1,0.5-0.1c0.1-0.1,0.2-0.2,0.2-0.4
			c0-1.4,0-3.5-0.1-6.2s-0.1-4.9-0.1-6.2c0-1.3,0.1-3.1,0.2-5.6S153.3,7.4,153.3,6.2z"/>
		<path class="st0" d="M174.1,24.4c-0.6,0-1.5,0.1-2.8,0.2s-2.1,0.2-2.8,0.2c-1.7,0-2.6,0-2.6,0c-1.3-0.1-2.1-0.4-2.3-0.8
			c-0.1-0.3-0.2-0.8-0.2-1.7c0-0.7,0-1,0-1.1c0.1-0.2,0.4-0.4,0.8-0.4h1.9c2.4,0,3.9,0,4.6,0.1l1.6,0.2c0.3,0,0.5-0.1,0.5-0.4
			c0-0.9,0.1-1.9,0.1-2.8c0.2-1.7,0.3-2.6,0.3-2.7c0-0.3-0.1-0.4-0.4-0.4c-0.2,0-0.6,0-0.9,0.1c-0.5,0.1-0.8,0.1-1,0.1
			c-1.5,0.1-3,0.1-4.5,0.1c-0.2,0-0.5,0-0.8,0s-0.6,0-0.7,0c-0.6,0-0.9-0.1-1.1-0.3c-0.2-0.3-0.4-0.8-0.4-1.6c0-0.8,0-1.2,0.1-1.4
			c0.1-0.3,0.5-0.4,1.1-0.4c2.5,0,5.3,0.1,8.4,0.4c0.2,0,0.3,0,0.4,0c0.2,0,0.4-0.1,0.4-0.4c0-0.3-0.1-1.1-0.2-2.5s-0.2-2.2-0.3-2.4
			c-0.1-0.5-0.4-0.7-1.1-0.7c-0.9,0-2.1,0-3.9,0.1s-3,0.1-3.9,0.1c-0.9,0-2.2,0-3.9-0.1s-3-0.1-3.9-0.1c-0.3,0-0.5,0.1-0.4,0.4
			l0,0.3c0.1,1.9,0.2,3.3,0.2,4.2c0.1,3.6,0.2,6.1,0.2,7.5c0,1.3-0.1,3.3-0.2,5.9s-0.2,4.6-0.2,5.9c0,0.3,0.2,0.5,0.6,0.5
			c0.9,0,2.2,0,4,0s3.1,0,4,0c4.1,0,6.6,0.1,7.5,0.2c0.3,0,0.4,0,0.5,0c0.3,0,0.4-0.1,0.6-0.3c0.2-0.3,0.4-1.1,0.6-2.6
			c0.2-1.4,0.3-2.3,0.3-2.8C174.5,24.6,174.4,24.4,174.1,24.4z"/>
		<path class="st0" d="M203.1,24.6c-1.1,0-2.6,0.1-4.7,0.2s-3.7,0.2-4.7,0.2c-0.3,0-0.4,0-0.5,0c-0.2,0-0.3-0.1-0.3-0.3s0-0.3,0-0.4
			c0-0.7,0-1.8,0-3.3l0-4.6c0.2-4.4,0.3-7.7,0.5-9.9l0-0.2c0-0.2-0.1-0.3-0.3-0.3c-0.4,0-1,0-1.7,0.1S190,6,189.6,6
			c-0.3,0-0.9,0-1.6-0.1s-1.2-0.1-1.6-0.1s-0.5,0.1-0.5,0.4c0,1.4,0,3.4,0.1,6.1s0.1,4.8,0.1,6.1c0,1.3,0,3.2-0.1,5.7
			s-0.1,4.5-0.1,5.7c0,0.3,0.2,0.5,0.5,0.5c1,0.1,1.7,0.1,2.3,0.1l5.3,0.1c0.5,0,1.8,0,3.9,0.1c1.6,0,2.9,0.1,3.9,0.1
			c0.4,0,0.7,0,0.7,0c0.2-0.1,0.3-0.2,0.4-0.5c0.3-1.5,0.4-3.2,0.4-5.2C203.5,24.7,203.4,24.6,203.1,24.6z"/>
		<path class="st0" d="M217.4,5.2c-3.6,0-6.6,1.3-9,3.8c-2.3,2.5-3.5,5.6-3.5,9.2c0,3.6,1.2,6.7,3.5,9.2c2.4,2.5,5.4,3.8,9,3.8
			c3.6,0,6.7-1.3,9-3.8c2.3-2.5,3.5-5.5,3.5-9.2c0-3.6-1.2-6.7-3.5-9.2C224,6.4,221,5.2,217.4,5.2z M221.6,22.5
			c-1.2,1.3-2.6,2-4.2,2c-1.8,0-3.2-0.6-4.3-1.9c-1-1.2-1.6-2.7-1.6-4.5c0-1.7,0.6-3.2,1.7-4.4c1.1-1.3,2.6-2,4.2-2
			c1.7,0,3.2,0.6,4.3,1.9c1.1,1.2,1.6,2.7,1.6,4.5C223.3,19.8,222.7,21.3,221.6,22.5z"/>
		<path class="st0" d="M252.9,5.8c-0.6,0-1.6,0-2.9,0.1S247.7,6,247.1,6h-0.6c-0.1,0-0.2,0.2-0.2,0.5c0,0.9,0,2.1,0,3.9s0,3,0,3.9
			c0,0.5-0.6,1.9-1.6,4.2c-0.8,1.7-1.6,3.1-2.2,4.3c-2.4-4.5-3.6-7.1-3.6-7.8c0-0.9,0.1-2.4,0.2-4.3s0.2-3.3,0.2-4.3
			c0-0.3-0.1-0.4-0.4-0.4c-0.7,0-1.8,0-3.2-0.1s-2.5-0.1-3.2-0.1c-0.2,0-0.4,0.2-0.4,0.7c0,0.9,0,2.3-0.1,4.2s-0.1,3.3-0.1,4.2
			c0,0.6,1.1,3,3.2,7.2c1.4,2.6,2.7,5.3,4,7.9c0.1,0.3,0.3,0.5,0.6,0.5s1.1,0.1,2.7,0.1c1.3,0,2.2,0,2.8-0.1c0.3,0,0.4,0,0.4-0.1
			s0.1-0.2,0.2-0.4c1.7-3.4,3-5.9,4-7.5c2.3-4.6,3.5-7.3,3.5-8c0-0.9,0-2.3,0-4.1s0-3.2,0-4.1C253.5,5.9,253.3,5.8,252.9,5.8z"/>
		<path class="st0" d="M273.7,24.4c-0.6,0-1.5,0.1-2.8,0.2s-2.1,0.2-2.8,0.2c-1.7,0-2.6,0-2.6,0c-1.3-0.1-2-0.4-2.3-0.8
			c-0.1-0.3-0.2-0.8-0.2-1.7c0-0.7,0-1,0-1.1c0.1-0.2,0.4-0.4,0.8-0.4h1.9c2.4,0,3.9,0,4.6,0.1l1.6,0.2c0.3,0,0.5-0.1,0.5-0.4
			c0-0.9,0-1.9,0.1-2.8c0.2-1.7,0.3-2.6,0.3-2.7c0-0.3-0.1-0.4-0.4-0.4c-0.2,0-0.5,0-1,0.1c-0.5,0.1-0.8,0.1-1,0.1
			c-1.5,0.1-3,0.1-4.5,0.1c-0.2,0-0.5,0-0.8,0s-0.6,0-0.7,0c-0.6,0-0.9-0.1-1.1-0.3c-0.2-0.3-0.4-0.8-0.4-1.6c0-0.8,0-1.2,0.1-1.4
			c0.1-0.3,0.5-0.4,1.1-0.4c2.5,0,5.3,0.1,8.4,0.4c0.2,0,0.3,0,0.4,0c0.2,0,0.4-0.1,0.4-0.4c0-0.3-0.1-1.1-0.2-2.5s-0.2-2.2-0.3-2.4
			c-0.1-0.5-0.5-0.7-1-0.7c-0.9,0-2.1,0-3.9,0.1s-3,0.1-3.9,0.1c-0.9,0-2.2,0-3.9-0.1s-3-0.1-3.9-0.1c-0.3,0-0.5,0.1-0.4,0.4l0,0.3
			c0.1,1.9,0.2,3.3,0.2,4.2c0.1,3.6,0.2,6.1,0.2,7.5c0,1.3-0.1,3.3-0.2,5.9S256,28.7,256,30c0,0.3,0.2,0.5,0.6,0.5c0.9,0,2.2,0,4,0
			s3.1,0,4,0c4.1,0,6.6,0.1,7.5,0.2c0.3,0,0.4,0,0.5,0c0.3,0,0.4-0.1,0.6-0.3c0.2-0.3,0.4-1.1,0.6-2.6c0.2-1.4,0.3-2.3,0.3-2.8
			C274.1,24.6,273.9,24.4,273.7,24.4z"/>
		<path class="st0" d="M293.1,21c0-0.2,0.1-0.3,0.4-0.5c1.3-1,2.2-2,2.7-3s0.7-2.4,0.7-4.1c0-2.6-1-4.5-2.9-5.9
			c-1.7-1.2-3.9-1.8-6.5-1.8c-1.3,0-3,0-5.2,0.1c-3.2,0.1-5,0.1-5.4,0.2s-0.6,0.2-0.5,0.4l0,0.3c0.2,2.8,0.3,6.6,0.3,11.6
			c0,1.3-0.1,3.3-0.2,5.9s-0.2,4.6-0.2,5.8c0,0.3,0.2,0.5,0.5,0.5s1.4,0.1,3,0.1c1.5,0,2.5,0,3.2-0.1c0.2,0,0.3,0,0.5,0
			c0.1,0,0.2-0.1,0.2-0.4c0-0.8-0.1-2-0.2-3.6s-0.2-2.8-0.2-3.6c0-0.6,0.1-0.9,0.3-0.9c1.3,0,1.9,0,1.9,0c0.7,0.1,1.2,0.3,1.4,0.7
			c1,2.3,1.7,4,2.1,5.2c0.3,0.9,0.6,1.6,0.8,2c0.1,0.2,0.2,0.3,0.3,0.4c0,0,0.2,0,0.4,0.1c0.5,0.1,1.6,0.1,3.1,0.1
			c1.8,0,2.9,0,3.4-0.1c0.2,0,0.4-0.1,0.4-0.2c0-0.3-0.7-1.9-2.1-4.9S293.1,21,293.1,21z M286.1,17.6c-0.8,0-1.5,0-2.3-0.2
			c-0.4-0.1-0.6-0.1-0.6-0.2c0-0.3,0-0.6,0-1.2s0-0.9,0-1.2c0-1.9,0-3.1,0.1-3.4c0.1-0.3,0.7-0.5,1.8-0.5c1.5,0,2.7,0.2,3.4,0.6
			c0.9,0.6,1.4,1.5,1.4,3C290,16.6,288.7,17.6,286.1,17.6z"/>
		<path class="st0" d="M310.1,18.5c-0.1-0.1-0.9-1.1-2.3-2.9c-0.8-1-1.3-1.9-1.3-2.6c0-0.8,0.4-1.4,1.1-1.9c0.6-0.4,1.4-0.6,2.2-0.6
			c0.1,0,0.3,0,0.5,0.1s0.4,0.1,0.5,0.1c0.2,0,0.3-0.1,0.3-0.3c0-0.1,0-0.1,0-0.2c-1.1-2.2-1.8-3.8-2.1-4.6
			c-0.1-0.3-0.3-0.4-0.4-0.4c-0.1,0-0.2,0-0.3,0c-2.4,0.3-4.3,1.1-6,2.3c-2,1.4-3,3.2-3,5.3c0,1.5,0.4,2.8,1.2,4
			c0.1,0.2,0.9,1.1,2.3,2.6c0.8,0.9,1.2,1.8,1.2,2.5c0,1.2-0.6,2.1-1.8,2.7c-0.5,0.3-1.7,0.6-3.4,1c-0.2,0-0.3,0.1-0.3,0.3
			c0,0.4,0.5,1.4,1.4,3s1.5,2.5,1.8,2.5c0.1,0,0.1,0,0.2,0c2.5-0.4,4.7-1.4,6.4-2.9c2-1.7,3-3.7,3-6.1
			C311.3,21.1,310.9,19.8,310.1,18.5z"/>
	</g>
	<g>
		
			<linearGradient id="SVGID_1_" gradientUnits="userSpaceOnUse" x1="4.0596" y1="21.865" x2="22.3766" y2="21.865" gradientTransform="matrix(1 0 0 -1 0 38)">
			<stop  offset="0" style="stop-color:#CCE0F4"/>
			<stop  offset="6.410000e-02" style="stop-color:#C3DCF2"/>
			<stop  offset="0.1706" style="stop-color:#A9D2EE"/>
			<stop  offset="0.3066" style="stop-color:#80C2E7"/>
			<stop  offset="0.4649" style="stop-color:#47ACDE"/>
			<stop  offset="0.5674" style="stop-color:#1E9CD7"/>
			<stop  offset="0.8652" style="stop-color:#0075BE"/>
			<stop  offset="0.9944" style="stop-color:#005B97"/>
		</linearGradient>
		<path class="st1" d="M22,6.6c0-1-0.1-1.8-0.1-2.3c-0.1-0.5-0.4-0.7-1-0.7c-0.9,0-2.4,0.1-4.2,0.2S13.4,4,12.5,4
			c-0.9,0-2.2,0-3.9,0S5.5,3.9,4.6,3.9C4.2,3.9,4.1,4,4.1,4.3l0,0.2c0,0.3,0.1,2.2,0.3,5.8c0.1,2.3,0.2,4.3,0.2,5.8
			c0,1.3,0,3.3-0.1,5.9s-0.1,4.6-0.1,5.9c0,0.3,0.2,0.5,0.5,0.5c0.6,0.1,2,0.2,4.2,0.2c1.1,0,1.6,0,1.6,0c0.7,0,1.1-0.2,1.1-0.5
			c0-0.1-0.1-1-0.2-2.6c-0.1-2.2-0.2-4.1-0.2-5.8c0-0.4,0.3-0.7,0.9-0.8c0.1,0,0.6,0,1.4,0c2.5,0,4.4,0.1,5.7,0.2
			c0.9,0.1,1.3,0.1,1.1,0.1c0.2,0,0.4-0.1,0.5-0.3c0.1-0.3,0.2-1.3,0.2-3.1c0-2.1-0.2-3.1-0.6-3.1c-0.8,0-2,0-3.6,0.1
			s-2.8,0.1-3.6,0.1c-0.5,0-0.8,0-1.1-0.1c-0.6-0.1-0.8-0.8-0.8-1.9c0-0.9,0.2-1.5,0.6-1.7c0.2-0.1,0.8-0.1,2-0.1
			c0.9,0,2.2,0.1,4,0.2s3.1,0.2,4,0.2c0.2,0,0.4-0.1,0.4-0.2c0-0.4-0.1-0.9-0.2-1.5C22.1,7.3,22,6.8,22,6.6z"/>
		
			<linearGradient id="SVGID_2_" gradientUnits="userSpaceOnUse" x1="24.45" y1="21.865" x2="45.39" y2="21.865" gradientTransform="matrix(1 0 0 -1 0 38)">
			<stop  offset="0" style="stop-color:#CCE0F4"/>
			<stop  offset="6.410000e-02" style="stop-color:#C3DCF2"/>
			<stop  offset="0.1706" style="stop-color:#A9D2EE"/>
			<stop  offset="0.3066" style="stop-color:#80C2E7"/>
			<stop  offset="0.4649" style="stop-color:#47ACDE"/>
			<stop  offset="0.5674" style="stop-color:#1E9CD7"/>
			<stop  offset="0.8652" style="stop-color:#0075BE"/>
			<stop  offset="0.9944" style="stop-color:#005B97"/>
		</linearGradient>
		<path class="st2" d="M41.1,19c0-0.2,0.1-0.3,0.4-0.5c1.3-1,2.2-2,2.7-3s0.7-2.4,0.7-4.1c0-2.6-1-4.5-2.9-5.9
			c-1.7-1.2-3.9-1.8-6.5-1.8c-1.3,0-3,0-5.2,0.1c-3.2,0.1-5,0.1-5.4,0.2s-0.6,0.2-0.5,0.4l0,0.3c0.2,2.8,0.3,6.6,0.3,11.6
			c0,1.3-0.1,3.3-0.2,5.9s-0.2,4.6-0.2,5.8c0,0.3,0.2,0.5,0.5,0.5s1.4,0.1,3,0.1c1.5,0,2.5,0,3.2-0.1c0.2,0,0.3,0,0.5,0
			c0.1,0,0.2-0.1,0.2-0.4c0-0.8-0.1-2-0.2-3.6s-0.2-2.8-0.2-3.6c0-0.6,0.1-0.9,0.3-0.9c1.3,0,1.9,0,1.9,0c0.7,0.1,1.2,0.3,1.4,0.7
			c1,2.3,1.7,4,2.1,5.2c0.3,0.9,0.6,1.6,0.8,2c0.1,0.2,0.2,0.3,0.3,0.4c0,0,0.2,0,0.4,0.1c0.5,0.1,1.6,0.1,3.1,0.1
			c1.8,0,2.9,0,3.4-0.1c0.2,0,0.3-0.1,0.3-0.2c0-0.3-0.7-1.9-2.1-4.9S41.1,19,41.1,19z M34.2,15.6c-0.8,0-1.5-0.1-2.3-0.2
			c-0.4-0.1-0.6-0.1-0.6-0.2c0-0.3,0-0.6,0-1.2s0-0.9,0-1.2c0-1.9,0-3.1,0.1-3.4c0.1-0.3,0.7-0.5,1.8-0.5c1.5,0,2.7,0.2,3.4,0.6
			c0.9,0.6,1.4,1.5,1.4,3C38,14.6,36.8,15.6,34.2,15.6z"/>
		
			<linearGradient id="SVGID_3_" gradientUnits="userSpaceOnUse" x1="47.33" y1="21.72" x2="65.41" y2="21.72" gradientTransform="matrix(1 0 0 -1 0 38)">
			<stop  offset="0" style="stop-color:#CCE0F4"/>
			<stop  offset="6.410000e-02" style="stop-color:#C3DCF2"/>
			<stop  offset="0.1706" style="stop-color:#A9D2EE"/>
			<stop  offset="0.3066" style="stop-color:#80C2E7"/>
			<stop  offset="0.4649" style="stop-color:#47ACDE"/>
			<stop  offset="0.5674" style="stop-color:#1E9CD7"/>
			<stop  offset="0.8652" style="stop-color:#0075BE"/>
			<stop  offset="0.9944" style="stop-color:#005B97"/>
		</linearGradient>
		<path class="st3" d="M65,22.4c-0.6,0-1.5,0.1-2.8,0.2s-2.2,0.2-2.8,0.2c-1.7,0-2.6,0-2.6,0c-1.3-0.1-2-0.4-2.3-0.8
			c-0.1-0.3-0.2-0.8-0.2-1.7c0-0.7,0-1,0-1.1c0.1-0.2,0.4-0.4,0.8-0.4h1.9c2.4,0,3.9,0,4.6,0.1l1.6,0.2c0.3,0,0.5-0.1,0.5-0.4
			c0-0.9,0-1.9,0.1-2.8c0.2-1.7,0.3-2.6,0.3-2.7c0-0.3-0.1-0.4-0.4-0.4c-0.2,0-0.5,0-1,0.1c-0.5,0.1-0.8,0.1-1,0.1
			c-1.5,0.1-3,0.1-4.5,0.1c-0.2,0-0.5,0-0.8,0s-0.6,0-0.7,0c-0.6,0-0.9-0.1-1.1-0.3c-0.2-0.3-0.3-0.8-0.3-1.6c0-0.8,0-1.2,0.1-1.4
			c0.1-0.3,0.5-0.4,1.1-0.4c2.5,0,5.3,0.1,8.4,0.4c0.2,0,0.3,0,0.4,0c0.2,0,0.3-0.1,0.3-0.4c0-0.3-0.1-1.1-0.2-2.5s-0.2-2.2-0.3-2.5
			c-0.1-0.5-0.5-0.7-1-0.7c-0.9,0-2.1,0-3.9,0.1s-3,0.1-3.9,0.1c-0.9,0-2.2,0-3.9-0.1s-3-0.1-3.9-0.1c-0.3,0-0.5,0.1-0.4,0.4l0,0.3
			c0.1,1.9,0.2,3.3,0.2,4.2c0.1,3.6,0.2,6.1,0.2,7.5c0,1.3-0.1,3.3-0.2,5.9s-0.2,4.6-0.2,5.9c0,0.3,0.2,0.5,0.6,0.5c0.9,0,2.2,0,4,0
			s3.1,0,4,0c4.1,0,6.6,0.1,7.5,0.2c0.3,0,0.4,0,0.5,0c0.3,0,0.4-0.1,0.6-0.3c0.2-0.3,0.3-1.1,0.6-2.6c0.2-1.4,0.3-2.3,0.3-2.8
			C65.4,22.6,65.3,22.4,65,22.4z"/>
		
			<linearGradient id="SVGID_4_" gradientUnits="userSpaceOnUse" x1="67.75" y1="22" x2="91.27" y2="22" gradientTransform="matrix(1 0 0 -1 0 38)">
			<stop  offset="0" style="stop-color:#CCE0F4"/>
			<stop  offset="6.410000e-02" style="stop-color:#C3DCF2"/>
			<stop  offset="0.1706" style="stop-color:#A9D2EE"/>
			<stop  offset="0.3066" style="stop-color:#80C2E7"/>
			<stop  offset="0.4649" style="stop-color:#47ACDE"/>
			<stop  offset="0.5674" style="stop-color:#1E9CD7"/>
			<stop  offset="0.8652" style="stop-color:#0075BE"/>
			<stop  offset="0.9944" style="stop-color:#005B97"/>
		</linearGradient>
		<path class="st4" d="M90.9,3.8c-0.7,0-1.8,0-3.2,0.1S85.3,4,84.6,4c-0.3,0-0.4,0.2-0.4,0.7c0,1.2,0.1,3.1,0.2,5.6s0.2,4.3,0.2,5.6
			c0,0.9-0.1,1.4-0.2,1.4c-0.2,0-0.5-0.2-0.8-0.5c-1.2-1.6-2.1-2.7-2.7-3.6l-6.5-9c-0.3-0.4-0.5-0.6-0.7-0.6c-0.3,0-0.8,0-1.4,0.2
			c-0.7,0.1-1.2,0.2-1.4,0.2C70,3.9,69.1,4,68.5,4c-0.5,0-0.7,0.1-0.7,0.4c0,1.3,0.1,3.3,0.2,6s0.2,4.7,0.2,6c0,1.3-0.1,3.2-0.2,5.8
			s-0.2,4.5-0.2,5.7c0,0.4,0.2,0.5,0.5,0.5h6.1c0.3,0,0.5-0.2,0.5-0.6c0-1.4,0-3.4-0.1-6.1s-0.1-4.8-0.1-6.1c0-0.2,0.1-0.3,0.1-0.4
			c0.1,0.1,0.2,0.1,0.3,0.2c1.7,2.1,2.9,3.7,3.7,4.8c2.9,3.9,4.8,6.4,5.7,7.6c0.3,0.4,0.5,0.6,0.8,0.6c0.3,0,0.8,0,1.4,0.1
			s1.1,0.1,1.4,0.1c0.3,0,0.7,0,1.3,0s1,0,1.3,0c0.3,0,0.5-0.2,0.5-0.5V16.4c0-1.4,0.1-3.4,0.2-6s0.2-4.7,0.2-6
			C91.3,4,91.1,3.8,90.9,3.8z"/>
		
			<linearGradient id="SVGID_5_" gradientUnits="userSpaceOnUse" x1="93.87" y1="21.845" x2="115.05" y2="21.845" gradientTransform="matrix(1 0 0 -1 0 38)">
			<stop  offset="0" style="stop-color:#CCE0F4"/>
			<stop  offset="6.410000e-02" style="stop-color:#C3DCF2"/>
			<stop  offset="0.1706" style="stop-color:#A9D2EE"/>
			<stop  offset="0.3066" style="stop-color:#80C2E7"/>
			<stop  offset="0.4649" style="stop-color:#47ACDE"/>
			<stop  offset="0.5674" style="stop-color:#1E9CD7"/>
			<stop  offset="0.8652" style="stop-color:#0075BE"/>
			<stop  offset="0.9944" style="stop-color:#005B97"/>
		</linearGradient>
		<path class="st5" d="M112.2,20.2c-0.1-0.1-0.2-0.2-0.3-0.2c-0.1,0-0.3,0.2-0.9,0.7c-0.6,0.5-1.2,0.9-1.8,1.2
			c-0.9,0.5-1.9,0.7-2.9,0.7c-1.7,0-3.1-0.7-4.1-2c-0.9-1.2-1.4-2.7-1.4-4.5c0-1.8,0.5-3.2,1.4-4.4c1-1.3,2.4-1.9,4.1-1.9
			c1,0,2,0.2,2.9,0.7c0.6,0.3,1.2,0.8,1.9,1.3c0.5,0.5,0.8,0.7,0.9,0.7c0.1,0,0.3-0.1,0.3-0.1c0.2-0.2,0.7-1,1.5-2.4
			s1.2-2.3,1.2-2.5c0-0.2-0.1-0.4-0.3-0.7c-2.2-2.3-5.1-3.5-8.9-3.5c-3.5,0-6.4,1.3-8.6,3.9c-2.2,2.5-3.3,5.5-3.3,9.1
			c0,3.7,1.1,6.7,3.3,9.1c2.3,2.5,5.2,3.7,8.9,3.7c3.6,0,6.4-1.3,8.6-3.9c0.3-0.3,0.4-0.5,0.4-0.7c0-0.1-0.4-0.8-1.3-2.1
			C112.9,21.1,112.4,20.4,112.2,20.2z"/>
		
			<linearGradient id="SVGID_6_" gradientUnits="userSpaceOnUse" x1="116.96" y1="21.82" x2="140.53" y2="21.82" gradientTransform="matrix(1 0 0 -1 0 38)">
			<stop  offset="0" style="stop-color:#CCE0F4"/>
			<stop  offset="6.410000e-02" style="stop-color:#C3DCF2"/>
			<stop  offset="0.1706" style="stop-color:#A9D2EE"/>
			<stop  offset="0.3066" style="stop-color:#80C2E7"/>
			<stop  offset="0.4649" style="stop-color:#47ACDE"/>
			<stop  offset="0.5674" style="stop-color:#1E9CD7"/>
			<stop  offset="0.8652" style="stop-color:#0075BE"/>
			<stop  offset="0.9944" style="stop-color:#005B97"/>
		</linearGradient>
		<path class="st6" d="M140.2,16.5c0-1.4,0.1-3.4,0.2-6.1s0.2-4.8,0.2-6.1c0-0.3-0.2-0.4-0.5-0.4c-0.4,0-0.9,0-1.6,0s-1.2,0-1.6,0
			c-0.4,0-0.9,0-1.6,0s-1.2,0-1.6,0c-0.3,0-0.4,0.2-0.4,0.5c0,0.9,0,2.1,0.1,3.8s0.1,3,0.1,3.8c0,0.4-0.1,0.6-0.4,0.7
			c-0.4,0.1-1.9,0.1-4.4,0.1c-2.7,0-4.2-0.1-4.5-0.1c-0.2-0.1-0.3-0.3-0.3-0.7c0-0.9,0.1-2.2,0.2-3.9s0.2-3.1,0.2-3.9
			c0-0.2-0.1-0.3-0.3-0.3c-0.4,0-0.9,0-1.7,0s-1.3,0-1.7,0c-0.4,0-0.9,0-1.6,0s-1.3,0-1.6,0c-0.3,0-0.4,0.1-0.4,0.4
			c0,1.4,0.1,3.4,0.2,6.1s0.2,4.8,0.2,6.1c0,1.3-0.1,3.2-0.2,5.8s-0.2,4.5-0.2,5.7c0,0.3,0.2,0.5,0.5,0.5c0.4,0.1,1.4,0.1,3,0.1
			c1.8,0,2.9,0,3.3-0.1c0.3-0.1,0.5-0.3,0.5-0.6c0-0.9,0-2.3-0.1-4.1s-0.1-3.2-0.1-4.1c0-0.5,0.1-0.7,0.4-0.8
			c0.4-0.1,1.8-0.1,4.3-0.1c2.4,0,3.9,0,4.3,0.1c0.3,0.1,0.4,0.3,0.4,0.8c0,0.9,0,2.3-0.1,4.2s-0.1,3.3-0.1,4.2
			c0,0.3,0.2,0.4,0.5,0.5s1.4,0.1,3.2,0.1c1.3,0,2.3,0,3-0.1c0.3,0,0.4,0,0.5-0.1c0.1-0.1,0.2-0.2,0.2-0.5c0-1.3-0.1-3.2-0.2-5.7
			S140.2,17.7,140.2,16.5z"/>
		
			<linearGradient id="SVGID_7_" gradientUnits="userSpaceOnUse" x1="143.67" y1="21.795" x2="151.32" y2="21.795" gradientTransform="matrix(1 0 0 -1 0 38)">
			<stop  offset="0" style="stop-color:#CCE0F4"/>
			<stop  offset="6.410000e-02" style="stop-color:#C3DCF2"/>
			<stop  offset="0.1706" style="stop-color:#A9D2EE"/>
			<stop  offset="0.3066" style="stop-color:#80C2E7"/>
			<stop  offset="0.4649" style="stop-color:#47ACDE"/>
			<stop  offset="0.5674" style="stop-color:#1E9CD7"/>
			<stop  offset="0.8652" style="stop-color:#0075BE"/>
			<stop  offset="0.9944" style="stop-color:#005B97"/>
		</linearGradient>
		<path class="st7" d="M151.3,4.2c0-0.3-0.2-0.4-0.5-0.4c-0.4,0-0.9,0-1.6,0s-1.3,0-1.6,0s-0.9,0-1.6,0s-1.3,0-1.6,0
			c-0.3,0-0.4,0.1-0.4,0.4c0,1.3,0,3.1,0.1,5.6s0.1,4.4,0.1,5.6c0,1.5-0.1,4.6-0.3,9.4c-0.1,2.3-0.2,3.3-0.2,3.1
			c0,0.3,0.2,0.5,0.5,0.5c0.5,0.1,1.6,0.1,3.3,0.1c1.3,0,2.3,0,3.1-0.1c0.3,0,0.4-0.1,0.5-0.1c0.1-0.1,0.2-0.2,0.2-0.4
			c0-1.4,0-3.5-0.1-6.2s-0.1-4.9-0.1-6.2c0-1.3,0.1-3.1,0.2-5.6S151.3,5.4,151.3,4.2z"/>
		
			<linearGradient id="SVGID_8_" gradientUnits="userSpaceOnUse" x1="154.42" y1="21.67" x2="172.5" y2="21.67" gradientTransform="matrix(1 0 0 -1 0 38)">
			<stop  offset="0" style="stop-color:#CCE0F4"/>
			<stop  offset="6.410000e-02" style="stop-color:#C3DCF2"/>
			<stop  offset="0.1706" style="stop-color:#A9D2EE"/>
			<stop  offset="0.3066" style="stop-color:#80C2E7"/>
			<stop  offset="0.4649" style="stop-color:#47ACDE"/>
			<stop  offset="0.5674" style="stop-color:#1E9CD7"/>
			<stop  offset="0.8652" style="stop-color:#0075BE"/>
			<stop  offset="0.9944" style="stop-color:#005B97"/>
		</linearGradient>
		<path class="st8" d="M172.1,22.4c-0.6,0-1.5,0.1-2.8,0.2s-2.1,0.2-2.8,0.2c-1.7,0-2.6,0-2.6,0c-1.3-0.1-2.1-0.4-2.3-0.8
			c-0.1-0.3-0.2-0.8-0.2-1.7c0-0.7,0-1,0-1.1c0.1-0.2,0.4-0.4,0.8-0.4h1.9c2.4,0,3.9,0,4.6,0.1l1.6,0.2c0.3,0,0.5-0.1,0.5-0.4
			c0-0.9,0.1-1.9,0.1-2.8c0.2-1.7,0.3-2.6,0.3-2.7c0-0.3-0.1-0.4-0.4-0.4c-0.2,0-0.6,0-0.9,0.1c-0.5,0.1-0.8,0.1-1,0.1
			c-1.5,0.1-3,0.1-4.5,0.1c-0.2,0-0.5,0-0.8,0s-0.6,0-0.7,0c-0.6,0-0.9-0.1-1.1-0.3c-0.2-0.3-0.4-0.8-0.4-1.6c0-0.8,0-1.2,0.1-1.4
			c0.1-0.3,0.5-0.4,1.1-0.4c2.5,0,5.3,0.1,8.4,0.4c0.2,0,0.3,0,0.4,0c0.2,0,0.4-0.1,0.4-0.4c0-0.3-0.1-1.1-0.2-2.5s-0.2-2.2-0.3-2.4
			c-0.1-0.5-0.4-0.7-1.1-0.7c-0.9,0-2.1,0-3.9,0.1s-3,0.1-3.9,0.1c-0.9,0-2.2,0-3.9-0.1s-3-0.1-3.9-0.1c-0.3,0-0.5,0.1-0.4,0.4
			l0,0.3c0.1,1.9,0.2,3.3,0.2,4.2c0.1,3.6,0.2,6.1,0.2,7.5c0,1.3-0.1,3.3-0.2,5.9s-0.2,4.6-0.2,5.9c0,0.3,0.2,0.5,0.6,0.5
			c0.9,0,2.2,0,4,0s3.1,0,4,0c4.1,0,6.6,0.1,7.5,0.2c0.3,0,0.4,0,0.5,0c0.3,0,0.4-0.1,0.6-0.3c0.2-0.3,0.4-1.1,0.6-2.6
			c0.2-1.4,0.3-2.3,0.3-2.8C172.5,22.6,172.4,22.4,172.1,22.4z"/>
		
			<linearGradient id="SVGID_9_" gradientUnits="userSpaceOnUse" x1="183.95" y1="21.685" x2="201.52" y2="21.685" gradientTransform="matrix(1 0 0 -1 0 38)">
			<stop  offset="0" style="stop-color:#CCE0F4"/>
			<stop  offset="6.410000e-02" style="stop-color:#C3DCF2"/>
			<stop  offset="0.1706" style="stop-color:#A9D2EE"/>
			<stop  offset="0.3066" style="stop-color:#80C2E7"/>
			<stop  offset="0.4649" style="stop-color:#47ACDE"/>
			<stop  offset="0.5674" style="stop-color:#1E9CD7"/>
			<stop  offset="0.8652" style="stop-color:#0075BE"/>
			<stop  offset="0.9944" style="stop-color:#005B97"/>
		</linearGradient>
		<path class="st9" d="M201.1,22.6c-1.1,0-2.6,0.1-4.7,0.2s-3.7,0.2-4.7,0.2c-0.3,0-0.4,0-0.5,0c-0.2,0-0.3-0.1-0.3-0.3s0-0.3,0-0.4
			c0-0.7,0-1.8,0-3.3l0-4.6c0.2-4.4,0.3-7.7,0.5-9.9l0-0.2c0-0.2-0.1-0.3-0.3-0.3c-0.4,0-1,0-1.7,0.1S188,4,187.6,4
			c-0.3,0-0.9,0-1.6,0s-1.2,0-1.6,0s-0.5,0.1-0.5,0.4c0,1.4,0,3.4,0.1,6.1s0.1,4.8,0.1,6.1c0,1.3,0,3.2-0.1,5.7s-0.1,4.5-0.1,5.7
			c0,0.3,0.2,0.5,0.5,0.5c1,0.1,1.7,0.1,2.3,0.1l5.3,0.1c0.5,0,1.8,0,3.9,0.1c1.6,0,2.9,0.1,3.9,0.1c0.4,0,0.7,0,0.7,0
			c0.2-0.1,0.3-0.2,0.4-0.5c0.3-1.5,0.4-3.2,0.4-5.2C201.5,22.7,201.4,22.6,201.1,22.6z"/>
		
			<linearGradient id="SVGID_10_" gradientUnits="userSpaceOnUse" x1="202.87" y1="21.86" x2="227.95" y2="21.86" gradientTransform="matrix(1 0 0 -1 0 38)">
			<stop  offset="0" style="stop-color:#CCE0F4"/>
			<stop  offset="6.410000e-02" style="stop-color:#C3DCF2"/>
			<stop  offset="0.1706" style="stop-color:#A9D2EE"/>
			<stop  offset="0.3066" style="stop-color:#80C2E7"/>
			<stop  offset="0.4649" style="stop-color:#47ACDE"/>
			<stop  offset="0.5674" style="stop-color:#1E9CD7"/>
			<stop  offset="0.8652" style="stop-color:#0075BE"/>
			<stop  offset="0.9944" style="stop-color:#005B97"/>
		</linearGradient>
		<path class="st10" d="M215.4,3.2c-3.6,0-6.6,1.3-9,3.8c-2.3,2.5-3.5,5.6-3.5,9.2c0,3.6,1.2,6.7,3.5,9.2c2.4,2.5,5.4,3.8,9,3.8
			c3.6,0,6.7-1.3,9-3.8c2.3-2.5,3.5-5.5,3.5-9.2c0-3.6-1.2-6.7-3.5-9.2C222,4.4,219,3.2,215.4,3.2z M219.6,20.5
			c-1.2,1.3-2.6,2-4.2,2c-1.8,0-3.2-0.6-4.3-1.9c-1-1.2-1.6-2.7-1.6-4.5c0-1.7,0.6-3.2,1.7-4.4c1.1-1.3,2.6-2,4.2-2
			c1.7,0,3.2,0.6,4.3,1.9c1.1,1.2,1.6,2.7,1.6,4.5C221.3,17.8,220.7,19.3,219.6,20.5z"/>
		
			<linearGradient id="SVGID_11_" gradientUnits="userSpaceOnUse" x1="230" y1="21.83" x2="251.4504" y2="21.83" gradientTransform="matrix(1 0 0 -1 0 38)">
			<stop  offset="0" style="stop-color:#CCE0F4"/>
			<stop  offset="6.410000e-02" style="stop-color:#C3DCF2"/>
			<stop  offset="0.1706" style="stop-color:#A9D2EE"/>
			<stop  offset="0.3066" style="stop-color:#80C2E7"/>
			<stop  offset="0.4649" style="stop-color:#47ACDE"/>
			<stop  offset="0.5674" style="stop-color:#1E9CD7"/>
			<stop  offset="0.8652" style="stop-color:#0075BE"/>
			<stop  offset="0.9944" style="stop-color:#005B97"/>
		</linearGradient>
		<path class="st11" d="M250.9,3.8c-0.6,0-1.6,0-2.9,0.1S245.7,4,245.1,4h-0.6c-0.1,0-0.2,0.2-0.2,0.5c0,0.9,0,2.1,0,3.9s0,3,0,3.9
			c0,0.5-0.6,1.9-1.6,4.2c-0.8,1.7-1.6,3.1-2.2,4.3c-2.4-4.5-3.6-7.1-3.6-7.8c0-0.9,0.1-2.4,0.2-4.3s0.2-3.3,0.2-4.3
			c0-0.3-0.1-0.4-0.4-0.4c-0.7,0-1.8,0-3.2-0.1s-2.5-0.1-3.2-0.1c-0.2,0-0.4,0.2-0.4,0.7c0,0.9,0,2.3-0.1,4.2s-0.1,3.3-0.1,4.2
			c0,0.6,1.1,3,3.2,7.2c1.4,2.6,2.7,5.3,4,7.9c0.1,0.3,0.3,0.5,0.6,0.5s1.1,0.1,2.7,0.1c1.3,0,2.2,0,2.8-0.1c0.3,0,0.4,0,0.4-0.1
			s0.1-0.2,0.2-0.4c1.7-3.4,3-5.9,4-7.5c2.3-4.6,3.5-7.3,3.5-8c0-0.9,0-2.3,0-4.1s0-3.2,0-4.1C251.5,4,251.3,3.8,250.9,3.8z"/>
		
			<linearGradient id="SVGID_12_" gradientUnits="userSpaceOnUse" x1="253.99" y1="21.67" x2="272.0699" y2="21.67" gradientTransform="matrix(1 0 0 -1 0 38)">
			<stop  offset="0" style="stop-color:#CCE0F4"/>
			<stop  offset="6.410000e-02" style="stop-color:#C3DCF2"/>
			<stop  offset="0.1706" style="stop-color:#A9D2EE"/>
			<stop  offset="0.3066" style="stop-color:#80C2E7"/>
			<stop  offset="0.4649" style="stop-color:#47ACDE"/>
			<stop  offset="0.5674" style="stop-color:#1E9CD7"/>
			<stop  offset="0.8652" style="stop-color:#0075BE"/>
			<stop  offset="0.9944" style="stop-color:#005B97"/>
		</linearGradient>
		<path class="st12" d="M271.7,22.4c-0.6,0-1.5,0.1-2.8,0.2s-2.1,0.2-2.8,0.2c-1.7,0-2.6,0-2.6,0c-1.3-0.1-2-0.4-2.3-0.8
			c-0.1-0.3-0.2-0.8-0.2-1.7c0-0.7,0-1,0-1.1c0.1-0.2,0.4-0.4,0.8-0.4h1.9c2.4,0,3.9,0,4.6,0.1l1.6,0.2c0.3,0,0.5-0.1,0.5-0.4
			c0-0.9,0-1.9,0.1-2.8c0.2-1.7,0.3-2.6,0.3-2.7c0-0.3-0.1-0.4-0.4-0.4c-0.2,0-0.5,0-1,0.1c-0.5,0.1-0.8,0.1-1,0.1
			c-1.5,0.1-3,0.1-4.5,0.1c-0.2,0-0.5,0-0.8,0s-0.6,0-0.7,0c-0.6,0-0.9-0.1-1.1-0.3c-0.2-0.3-0.4-0.8-0.4-1.6c0-0.8,0-1.2,0.1-1.4
			c0.1-0.3,0.5-0.4,1.1-0.4c2.5,0,5.3,0.1,8.4,0.4c0.2,0,0.3,0,0.4,0c0.2,0,0.4-0.1,0.4-0.4c0-0.3-0.1-1.1-0.2-2.5s-0.2-2.2-0.3-2.4
			c-0.1-0.5-0.5-0.7-1-0.7c-0.9,0-2.1,0-3.9,0.1s-3,0.1-3.9,0.1c-0.9,0-2.2,0-3.9-0.1s-3-0.1-3.9-0.1c-0.3,0-0.5,0.1-0.4,0.4l0,0.3
			c0.1,1.9,0.2,3.3,0.2,4.2c0.1,3.6,0.2,6.1,0.2,7.5c0,1.3-0.1,3.3-0.2,5.9S254,26.7,254,28c0,0.3,0.2,0.5,0.6,0.5c0.9,0,2.2,0,4,0
			s3.1,0,4,0c4.1,0,6.6,0.1,7.5,0.2c0.3,0,0.4,0,0.5,0c0.3,0,0.4-0.1,0.6-0.3c0.2-0.3,0.4-1.1,0.6-2.6c0.2-1.4,0.3-2.3,0.3-2.8
			C272.1,22.6,271.9,22.4,271.7,22.4z"/>
		
			<linearGradient id="SVGID_13_" gradientUnits="userSpaceOnUse" x1="274.4" y1="21.865" x2="295.34" y2="21.865" gradientTransform="matrix(1 0 0 -1 0 38)">
			<stop  offset="0" style="stop-color:#CCE0F4"/>
			<stop  offset="6.410000e-02" style="stop-color:#C3DCF2"/>
			<stop  offset="0.1706" style="stop-color:#A9D2EE"/>
			<stop  offset="0.3066" style="stop-color:#80C2E7"/>
			<stop  offset="0.4649" style="stop-color:#47ACDE"/>
			<stop  offset="0.5674" style="stop-color:#1E9CD7"/>
			<stop  offset="0.8652" style="stop-color:#0075BE"/>
			<stop  offset="0.9944" style="stop-color:#005B97"/>
		</linearGradient>
		<path class="st13" d="M291.1,19c0-0.2,0.1-0.3,0.4-0.5c1.3-1,2.2-2,2.7-3s0.7-2.4,0.7-4.1c0-2.6-1-4.5-2.9-5.9
			c-1.7-1.2-3.9-1.8-6.5-1.8c-1.3,0-3,0-5.2,0.1c-3.2,0.1-5,0.1-5.4,0.2s-0.6,0.2-0.5,0.4l0,0.3c0.2,2.8,0.3,6.6,0.3,11.6
			c0,1.3-0.1,3.3-0.2,5.9s-0.2,4.6-0.2,5.8c0,0.3,0.2,0.5,0.5,0.5s1.4,0.1,3,0.1c1.5,0,2.5,0,3.2-0.1c0.2,0,0.3,0,0.5,0
			c0.1,0,0.2-0.1,0.2-0.4c0-0.8-0.1-2-0.2-3.6s-0.2-2.8-0.2-3.6c0-0.6,0.1-0.9,0.3-0.9c1.3,0,1.9,0,1.9,0c0.7,0.1,1.2,0.3,1.4,0.7
			c1,2.3,1.7,4,2.1,5.2c0.3,0.9,0.6,1.6,0.8,2c0.1,0.2,0.2,0.3,0.3,0.4c0,0,0.2,0,0.4,0.1c0.5,0.1,1.6,0.1,3.1,0.1
			c1.8,0,2.9,0,3.4-0.1c0.2,0,0.4-0.1,0.4-0.2c0-0.3-0.7-1.9-2.1-4.9S291.1,19,291.1,19z M284.1,15.6c-0.8,0-1.5-0.1-2.3-0.2
			c-0.4-0.1-0.6-0.1-0.6-0.2c0-0.3,0-0.6,0-1.2s0-0.9,0-1.2c0-1.9,0-3.1,0.1-3.4c0.1-0.3,0.7-0.5,1.8-0.5c1.5,0,2.7,0.2,3.4,0.6
			c0.9,0.6,1.4,1.5,1.4,3C288,14.6,286.7,15.6,284.1,15.6z"/>
		
			<linearGradient id="SVGID_14_" gradientUnits="userSpaceOnUse" x1="296.4971" y1="21.775" x2="309.3373" y2="21.775" gradientTransform="matrix(1 0 0 -1 0 38)">
			<stop  offset="0" style="stop-color:#CCE0F4"/>
			<stop  offset="6.410000e-02" style="stop-color:#C3DCF2"/>
			<stop  offset="0.1706" style="stop-color:#A9D2EE"/>
			<stop  offset="0.3066" style="stop-color:#80C2E7"/>
			<stop  offset="0.4649" style="stop-color:#47ACDE"/>
			<stop  offset="0.5674" style="stop-color:#1E9CD7"/>
			<stop  offset="0.8652" style="stop-color:#0075BE"/>
			<stop  offset="0.9944" style="stop-color:#005B97"/>
		</linearGradient>
		<path class="st14" d="M308.1,16.5c-0.1-0.1-0.9-1.1-2.3-2.9c-0.8-1-1.3-1.9-1.3-2.6c0-0.8,0.4-1.4,1.1-1.9
			c0.6-0.4,1.4-0.6,2.2-0.6c0.1,0,0.3,0,0.5,0.1s0.4,0.1,0.5,0.1c0.2,0,0.3-0.1,0.3-0.3c0-0.1,0-0.1,0-0.2c-1.1-2.2-1.8-3.8-2.1-4.6
			c-0.1-0.3-0.3-0.4-0.4-0.4c-0.1,0-0.2,0-0.3,0c-2.4,0.3-4.3,1.1-6,2.3c-2,1.4-3,3.2-3,5.3c0,1.5,0.4,2.8,1.2,4
			c0.1,0.2,0.9,1.1,2.3,2.7c0.8,0.9,1.2,1.8,1.2,2.5c0,1.2-0.6,2.1-1.8,2.7c-0.5,0.3-1.7,0.6-3.4,1c-0.2,0-0.3,0.1-0.3,0.3
			c0,0.4,0.5,1.4,1.4,3s1.5,2.5,1.8,2.5c0.1,0,0.1,0,0.2,0c2.5-0.4,4.7-1.4,6.4-2.9c2-1.7,3-3.7,3-6.1
			C309.3,19.1,308.9,17.8,308.1,16.5z"/>
	</g>
</g>
</svg>
