<?xml version="1.0" encoding="utf-8"?>
<!-- Generator: Adobe Illustrator 23.0.5, SVG Export Plug-In . SVG Version: 6.00 Build 0)  -->
<svg version="1.1" id="Layer_1" xmlns="http://www.w3.org/2000/svg" xmlns:xlink="http://www.w3.org/1999/xlink" x="0px" y="0px"
	 viewBox="0 0 569.7 83.1" style="enable-background:new 0 0 569.7 83.1;" xml:space="preserve">
<style type="text/css">
	.st0{fill:#0000FF;}
	.st1{fill:#FFFFFF;}
	.st2{fill:#FF0000;}
	.st3{fill:url(#SVGID_1_);}
	.st4{fill:url(#SVGID_2_);}
	.st5{fill:url(#SVGID_3_);}
	.st6{fill:url(#SVGID_4_);}
	.st7{fill:url(#SVGID_5_);}
	.st8{fill:url(#SVGID_6_);}
	.st9{fill:url(#SVGID_7_);}
	.st10{fill:url(#SVGID_8_);}
	.st11{fill:url(#SVGID_9_);}
	.st12{fill:url(#SVGID_10_);}
	.st13{fill:url(#SVGID_11_);}
	.st14{fill:url(#SVGID_12_);}
	.st15{fill:url(#SVGID_13_);}
	.st16{fill:url(#SVGID_14_);}
</style>
<title>frenchie</title>
<g>
	<rect x="88.4" y="62.1" class="st0" width="131" height="21"/>
	<rect x="219.4" y="62.1" class="st1" width="131" height="21"/>
	<rect x="350.4" y="62.1" class="st2" width="131" height="21"/>
	<path d="M568,23.5l-0.7-2.4c-0.2-0.6-0.7-1-1.3-1h-1.1v-0.6c0-1.3-0.7-2.6-1.9-3.3c-2.3-1.4-5-2.1-7.7-2.1l-0.5-5.8
		c-0.1-0.6-0.4-1.1-0.9-1.2c-0.7-0.2-1.4,0.1-1.6,0.7l-2.6,5.6c-0.6,1.2-0.9,2.5-0.9,3.8l-3.5,2.7c-2,1.5-3.6,3.5-4.7,5.8
		c-2.1,4.3-6.2,7.1-10.9,7.6l-19,1.9c-2.9,0.3-5.7,1.2-8.3,2.6l-2.4-1.2c-1.4-0.7-3.3-0.3-4.2,0.9c-1.1,1.4-0.9,3.5,0.5,4.6l0.3,0.2
		c-2,2.3-3.6,5-4.5,8L488.8,61c-0.2,0.7-0.8,1.3-1.6,1.5l-1.8,0.4c-0.6,0.1-1,0.7-1,1.3l-0.5,12c0,1.1,0.3,2.1,1.1,2.9
		c0.8,0.9,1.9,1.3,3.1,1.3h2.3c0.3,0,0.6-0.1,0.8-0.3c0.5-0.4,0.7-1,0.5-1.5l-1.4-4.2l0.6-4.9c1.3-1,5.3-4.1,9.3-8
		c2.3-2.2,4.1-4.3,5.6-6.2c0.8-1.1,2.1-1.8,3.5-1.9c0.7,0,1.4,0.1,2.2,0.5c0.3,0.2,0.7,0.4,1.1,0.6c3.5,1.8,9.4,4.9,17.8,4.9
		c1.4,0,2.8-0.1,4.3-0.3l-0.7,8c-0.3,3.6,0.1,7.2,1.3,10.7c0.5,1.5,1.9,2.5,3.5,2.5h2.7c1.1,0,2.1-0.7,2.5-1.7
		c0.4-1.1,0-2.2-0.9-2.9l-1.8-1.4c0.1-2.9,0.5-5.7,1.3-8.4l2.9-9.8c0.9-0.6,1.8-1.4,2.7-2.3c2.5-2.7,4-6.4,4.3-10.3v-0.3
		c0.3-5.3,4.1-9.8,9.3-11l0.8-0.2c1.9-0.4,3.5-1.6,4.5-3.2C568.2,27.3,568.5,25.3,568,23.5z M497.9,39c0.2-0.2,0.5-0.3,0.8-0.2
		l1,0.5c-0.4,0.3-0.8,0.6-1.2,1l-0.5-0.4C497.7,39.7,497.7,39.3,497.9,39z M564.9,27.5c-0.6,1-1.5,1.7-2.7,1.9l-1,0.2
		c-6.3,1.4-11,7-11.4,13.5v0.3c-0.2,3.2-1.4,6.3-3.5,8.6c-0.8,0.9-1.6,1.6-2.5,2c-0.3,0.2-0.5,0.5-0.6,0.8l-3.1,10.3
		c-1,3.2-1.5,6.5-1.5,9.9c0,0.4,0.2,0.8,0.5,1.1l2,1.5h-2.3c-0.4,0-0.8-0.3-1-0.7c-1.1-3.1-1.5-6.3-1.2-9.6l1-12
		c0-0.5-0.2-1.1-0.7-1.3c0,0-2.7-1.6-2.1-6.5c0.1-0.7-0.4-1.4-1.2-1.5c-0.7-0.1-1.4,0.4-1.5,1.2c-0.6,5.1,1.5,7.6,2.7,8.7v0.4
		c-10,1.4-17-2.3-20.8-4.3c-0.4-0.2-0.8-0.4-1.1-0.6c-1.5-0.7-2.9-0.9-4.1-0.8c0.9-1.9,1.4-3.6,1.3-5.2c0-0.7-0.6-1.3-1.4-1.3
		c0,0,0,0-0.1,0c-0.7,0-1.3,0.7-1.3,1.4c0.3,6.7-13.3,18.2-18.5,22c-0.3,0.2-0.5,0.6-0.5,0.9l-0.7,5.8c0,0.2,0,0.4,0.1,0.6l0.9,2.7
		H488c-0.4,0-0.7-0.1-1-0.4s-0.4-0.6-0.4-1l0.4-11l0.8-0.2c1.7-0.4,3-1.7,3.5-3.3l3.3-10.7c0.9-3,2.6-5.7,4.8-7.9
		c3.1-3,7.1-4.9,11.4-5.3l19-1.9c5.7-0.6,10.6-3.9,13.1-9.1c0.9-1.9,2.3-3.5,3.9-4.8l2.3-1.7c0.1,0.5,0.3,0.9,0.5,1.3l1.2,2.6
		c0.2,0.5,0.7,0.8,1.2,0.8c0.2,0,0.4,0,0.6-0.1c0.7-0.3,1-1.1,0.7-1.8l-1.2-2.6c-0.9-1.9-0.9-4.1,0-6l0.5-1.1l0.5,4.9
		c0.1,0.7,0.7,1.3,1.5,1.2c0.7-0.1,1.3-0.7,1.2-1.5l-0.1-1.4c2.1,0,4.2,0.6,6,1.7c0.3,0.2,0.5,0.6,0.5,1V20h-0.7l0,0
		c-0.7,0-1.3,0.6-1.4,1.3c0,0.7,0.6,1.4,1.3,1.4h3.5l0.4,1.4C565.7,25.3,565.5,26.5,564.9,27.5z"/>
	<path d="M2.1,28.9c1,1.6,2.6,2.8,4.5,3.2l0.8,0.2c5.2,1.2,9,5.7,9.3,11v0.3c0.2,3.9,1.7,7.5,4.3,10.3c0.9,0.9,1.8,1.7,2.7,2.3
		l2.9,9.8c0.8,2.7,1.3,5.6,1.3,8.4l-1.8,1.4c-0.9,0.7-1.2,1.8-0.9,2.9c0.4,1,1.4,1.7,2.5,1.7h2.7c1.6,0,3-1,3.5-2.5
		c1.2-3.5,1.6-7.1,1.3-10.7l-0.7-8c1.5,0.2,2.9,0.3,4.3,0.3c8.4,0,14.4-3.1,17.8-4.9c0.4-0.2,0.8-0.4,1.1-0.6
		c0.8-0.4,1.6-0.5,2.2-0.5c1.4,0,2.7,0.8,3.5,1.9c1.5,1.9,3.4,4,5.6,6.2c4,3.9,8,7,9.3,8l0.6,4.9l-1.4,4.2c-0.2,0.5,0,1.2,0.5,1.5
		c0.2,0.2,0.5,0.3,0.8,0.3h2.3c1.2,0,2.3-0.5,3.1-1.3c0.7-0.8,1.1-1.8,1.1-2.9l-0.5-12c0-0.6-0.4-1.1-1-1.3L82,62.6
		c-0.7-0.2-1.4-0.8-1.6-1.5l-3.3-10.7c-0.9-2.9-2.5-5.7-4.5-8l0.3-0.2c1.4-1.1,1.6-3.2,0.5-4.6c-0.9-1.2-2.9-1.6-4.2-0.9L67,37.6
		c-2.5-1.4-5.4-2.3-8.3-2.6l-19-1.9c-4.7-0.5-8.8-3.3-10.9-7.6c-1.1-2.2-2.7-4.2-4.7-5.8L20.6,17c-0.1-1.3-0.4-2.6-0.9-3.8l-2.6-5.6
		c-0.3-0.6-1-0.9-1.6-0.7c-0.5,0.2-0.9,0.7-0.9,1.2L13.9,14c-2.7,0-5.4,0.7-7.7,2.1c-1.1,0.7-1.9,1.9-1.9,3.3V20h-1
		c-0.6,0-1.1,0.4-1.3,1l-0.7,2.4C0.8,25.3,1.1,27.3,2.1,28.9z M71.3,39.9l-0.5,0.4c-0.4-0.3-0.8-0.7-1.2-1l1-0.5
		c0.3-0.1,0.6-0.1,0.8,0.2C71.7,39.3,71.6,39.7,71.3,39.9z M3.9,24.2l0.4-1.4h3.5c0.7,0,1.3-0.6,1.3-1.4c0-0.7-0.6-1.3-1.4-1.3l0,0
		H7v-0.6c0-0.4,0.2-0.8,0.5-1c1.8-1.1,3.9-1.7,6-1.7l-0.1,1.4c-0.1,0.7,0.5,1.4,1.2,1.5s1.4-0.5,1.5-1.2l0.5-4.9l0.5,1.1
		c0.9,1.9,0.9,4.1,0,6l-1.2,2.6c-0.3,0.7,0,1.5,0.7,1.8c0.2,0.1,0.4,0.1,0.6,0.1c0.5,0,1-0.3,1.2-0.8l1.2-2.6
		c0.2-0.4,0.4-0.9,0.5-1.3l2.3,1.7c1.7,1.3,3,2.9,3.9,4.8c2.5,5.1,7.4,8.5,13.1,9.1l19,1.9c4.3,0.4,8.3,2.3,11.4,5.3
		c2.2,2.2,3.9,4.9,4.8,7.9L78,61.7c0.5,1.6,1.9,2.9,3.5,3.3l0.8,0.2l0.4,11c0,0.4-0.1,0.7-0.4,1s-0.6,0.4-1,0.4h-0.6l0.9-2.7
		c0.1-0.2,0.1-0.4,0.1-0.6L81,68.5c0-0.4-0.2-0.7-0.5-0.9c-5.2-3.9-18.8-15.3-18.5-22c0-0.7-0.6-1.4-1.3-1.4c0,0,0,0-0.1,0
		c-0.7,0-1.3,0.6-1.4,1.3c-0.1,1.5,0.4,3.3,1.3,5.2c-1.2-0.1-2.6,0-4.1,0.8c-0.3,0.2-0.7,0.4-1.1,0.6c-3.8,2-10.9,5.7-21.1,4.3V56
		c1.2-1,3.4-3.6,2.7-8.7c-0.1-0.7-0.8-1.3-1.5-1.2s-1.3,0.8-1.2,1.5c0.6,4.9-2.1,6.5-2.1,6.5c-0.5,0.3-0.8,0.8-0.7,1.3l1,12
		c0.3,3.3-0.1,6.5-1.2,9.6c-0.1,0.4-0.5,0.7-1,0.7h-2.3l2-1.5c0.3-0.3,0.5-0.7,0.5-1.1c0-3.4-0.5-6.7-1.5-9.9l-3.1-10.3
		c-0.1-0.3-0.3-0.6-0.6-0.8c-0.9-0.5-1.7-1.2-2.5-2c-2.1-2.3-3.4-5.3-3.5-8.6v-0.3c-0.4-6.5-5-12.1-11.4-13.5l-1-0.2
		c-1.1-0.3-2.1-0.9-2.7-1.9C3.8,26.5,3.6,25.3,3.9,24.2z"/>
	<path d="M2.1,28.9c1,1.6,2.6,2.8,4.5,3.2l0.8,0.2c5.2,1.2,9,5.7,9.3,11v0.3c0.2,3.9,1.7,7.5,4.3,10.3c0.9,0.9,1.8,1.7,2.7,2.3
		l2.9,9.8c0.8,2.7,1.3,5.6,1.3,8.4l-1.8,1.4c-0.9,0.7-1.2,1.8-0.9,2.9c0.4,1,1.4,1.7,2.5,1.7h2.7c1.6,0,3-1,3.5-2.5
		c1.2-3.5,1.6-7.1,1.3-10.7l-0.7-8c1.5,0.2,2.9,0.3,4.3,0.3c8.4,0,14.4-3.1,17.8-4.9c0.4-0.2,0.8-0.4,1.1-0.6
		c0.8-0.4,1.6-0.5,2.2-0.5c1.4,0,2.7,0.8,3.5,1.9c1.5,1.9,3.4,4,5.6,6.2c4,3.9,8,7,9.3,8l0.6,4.9l-1.4,4.2c-0.2,0.5,0,1.2,0.5,1.5
		c0.2,0.2,0.5,0.3,0.8,0.3h2.3c1.2,0,2.3-0.5,3.1-1.3c0.7-0.8,1.1-1.8,1.1-2.9l-0.5-12c0-0.6-0.4-1.1-1-1.3L82,62.6
		c-0.7-0.2-1.4-0.8-1.6-1.5l-3.3-10.7c-0.9-2.9-2.5-5.7-4.5-8l0.3-0.2c1.4-1.1,1.6-3.2,0.5-4.6c-0.9-1.2-2.9-1.6-4.2-0.9L67,37.6
		c-2.5-1.4-5.4-2.3-8.3-2.6l-19-1.9c-4.7-0.5-8.8-3.3-10.9-7.6c-1.1-2.2-2.7-4.2-4.7-5.8L20.6,17c-0.1-1.3-0.4-2.6-0.9-3.8l-2.6-5.6
		c-0.3-0.6-1-0.9-1.6-0.7c-0.5,0.2-0.9,0.7-0.9,1.2L13.9,14c-2.7,0-5.4,0.7-7.7,2.1c-1.1,0.7-1.9,1.9-1.9,3.3V20h-1
		c-0.6,0-1.1,0.4-1.3,1l-0.7,2.4C0.8,25.3,1.1,27.3,2.1,28.9z M71.3,39.9l-0.5,0.4c-0.4-0.3-0.8-0.7-1.2-1l1-0.5
		c0.3-0.1,0.6-0.1,0.8,0.2C71.7,39.3,71.6,39.7,71.3,39.9z M3.9,24.2l0.4-1.4h3.5c0.7,0,1.3-0.6,1.3-1.4c0-0.7-0.6-1.3-1.4-1.3l0,0
		H7v-0.6c0-0.4,0.2-0.8,0.5-1c1.8-1.1,3.9-1.7,6-1.7l-0.1,1.4c-0.1,0.7,0.5,1.4,1.2,1.5s1.4-0.5,1.5-1.2l0.5-4.9l0.5,1.1
		c0.9,1.9,0.9,4.1,0,6l-1.2,2.6c-0.3,0.7,0,1.5,0.7,1.8c0.2,0.1,0.4,0.1,0.6,0.1c0.5,0,1-0.3,1.2-0.8l1.2-2.6
		c0.2-0.4,0.4-0.9,0.5-1.3l2.3,1.7c1.7,1.3,3,2.9,3.9,4.8c2.5,5.1,7.4,8.5,13.1,9.1l19,1.9c4.3,0.4,8.3,2.3,11.4,5.3
		c2.2,2.2,3.9,4.9,4.8,7.9L78,61.7c0.5,1.6,1.9,2.9,3.5,3.3l0.8,0.2l0.4,11c0,0.4-0.1,0.7-0.4,1s-0.6,0.4-1,0.4h-0.6l0.9-2.7
		c0.1-0.2,0.1-0.4,0.1-0.6L81,68.5c0-0.4-0.2-0.7-0.5-0.9c-5.2-3.9-18.8-15.3-18.5-22c0-0.7-0.6-1.4-1.3-1.4c0,0,0,0-0.1,0
		c-0.7,0-1.3,0.6-1.4,1.3c-0.1,1.5,0.4,3.3,1.3,5.2c-1.2-0.1-2.6,0-4.1,0.8c-0.3,0.2-0.7,0.4-1.1,0.6c-3.8,2-10.9,5.7-21.1,4.3V56
		c1.2-1,3.4-3.6,2.7-8.7c-0.1-0.7-0.8-1.3-1.5-1.2s-1.3,0.8-1.2,1.5c0.6,4.9-2.1,6.5-2.1,6.5c-0.5,0.3-0.8,0.8-0.7,1.3l1,12
		c0.3,3.3-0.1,6.5-1.2,9.6c-0.1,0.4-0.5,0.7-1,0.7h-2.3l2-1.5c0.3-0.3,0.5-0.7,0.5-1.1c0-3.4-0.5-6.7-1.5-9.9l-3.1-10.3
		c-0.1-0.3-0.3-0.6-0.6-0.8c-0.9-0.5-1.7-1.2-2.5-2c-2.1-2.3-3.4-5.3-3.5-8.6v-0.3c-0.4-6.5-5-12.1-11.4-13.5l-1-0.2
		c-1.1-0.3-2.1-0.9-2.7-1.9C3.8,26.5,3.6,25.3,3.9,24.2z"/>
	<polygon points="138,45.4 137.8,43.5 137.8,42.9 138,42.4 139.8,43.4 141.8,43.4 141.8,45.4 139.8,45.4 	"/>
	<path d="M139.8,43.4L139.8,43.4L139.8,43.4z"/>
	<path d="M138.7,43.9L138.7,43.9L138.7,43.9z"/>
	<path d="M138.7,43.9L138.7,43.9L138.7,43.9z"/>
	<polygon points="190.4,29 190.3,28.1 190.9,26.3 192.3,26.3 194.3,26.3 194.3,28.4 190.3,28.4 192.3,28.4 190.6,29.4 	"/>
	<path d="M192.3,28.3C192.3,28.3,192.3,28.4,192.3,28.3L192.3,28.3z"/>
	<polygon points="297.4,28.9 297.4,28 298,26.3 299.5,26.3 301.5,26.3 301.5,28.4 297.5,28.4 299.5,28.4 297.7,29.4 	"/>
	<path d="M299.4,28.3C299.4,28.3,299.5,28.4,299.4,28.3C299.5,28.3,299.5,28.3,299.4,28.3z"/>
	<polygon points="397,28.9 397,28 397.5,26.3 399,26.3 401,26.3 401,28.4 397,28.4 399,28.4 397.3,29.4 	"/>
	<path d="M399,28.3C399,28.3,399,28.4,399,28.3L399,28.3z"/>
	<g>
		<path d="M300.4,41.8c0.5-0.4,0.7-1.1,0.7-1.7c0-0.9,0-1.7,0.1-2.6c0.2-1.7,0.2-2.3,0.3-2.5l0.1-0.2v-0.4c0-0.6-0.3-1.2-0.6-1.6
			c0.7-0.4,1.2-1.2,1.2-2.1c0-0.3,0-0.8-0.2-2.7c-0.2-1.9-0.3-2.4-0.3-2.7c-0.2-1.1-1.1-2.3-3-2.3c-0.9,0-2.2,0-3.9,0.1
			c-1.7,0-3,0.1-3.8,0.1c-0.9,0-2.1,0-3.9-0.1c-1.8,0-3.1-0.1-4-0.1c-1,0-1.6,0.5-1.8,0.8c-0.1,0.1-0.1,0.2-0.2,0.2
			c-0.4-0.6-1.1-1-2.1-1c-0.4,0-1,0-1.7,0.1c-0.7,0-1.2,0.1-1.5,0.1s-0.9,0-1.5-0.1c-0.8,0-1.4-0.1-1.7-0.1c-0.9,0-1.7,0.5-2.1,1.2
			c-0.4-0.7-1.2-1.2-2.2-1.2c-0.4,0-0.9,0-1.7,0.1c-0.7,0-1.1,0.1-1.5,0.1c-0.3,0-0.8,0-1.5-0.1c-0.7,0-1.3-0.1-1.7-0.1
			c-1.4,0-2.4,1.1-2.4,2.5c0,0.9,0,2.2,0.1,3.9c0,1,0.1,1.9,0.1,2.6c-0.6,0-1.5,0-2.8,0c-1.3,0-2.2,0-2.8,0c0-0.7,0.1-1.6,0.2-2.6
			c0.1-1.8,0.2-3.2,0.2-4.1c0-1.3-1-2.3-2.3-2.3c-0.4,0-1,0-1.8,0.1c-0.7,0-1.2,0.1-1.6,0.1c-0.3,0-0.9,0-1.5-0.1
			c-0.8,0-1.4-0.1-1.7-0.1c-1.4,0-2.4,1-2.4,2.4c0,0,0,0,0,0.1c-2.4-2-5.5-3-9.2-3c-4.1,0-7.5,1.5-10.1,4.6c-1.1,1.2-1.9,2.6-2.5,4
			c0.1-2.4,0.1-4.2,0.1-5.5c0-1.7-1.2-2.5-2.3-2.5c-0.7,0-1.8,0-3.3,0.1c-1.4,0.1-2.4,0.1-3.1,0.1c-1.1,0-2.4,0.8-2.4,2.7
			c0,1.3,0.1,3.2,0.2,5.7c0,0.5,0.1,1,0.1,1.4l-6.5-8.8c-0.3-0.4-1-1.4-2.3-1.4c-0.5,0-1,0.1-1.8,0.2c-0.6,0.1-1,0.2-1.2,0.2
			c-0.9,0.1-1.7,0.1-2.3,0.1c-1.2,0-2,0.6-2.4,1.3c-0.4-0.8-1.3-1.5-2.7-1.5c-0.9,0-2.2,0-3.9,0.1c-1.7,0-3,0.1-3.8,0.1
			c-0.9,0-2.1,0-3.9-0.1c-1.8,0-3.1-0.1-4-0.1c-1,0-1.6,0.5-1.8,0.8c-0.4,0.5-0.7,1.1-0.6,1.8V26c0,0.5,0.1,1,0.1,1.5
			c-0.6-0.8-1.3-1.6-2.2-2.2c-2-1.4-4.6-2.2-7.7-2.2c-1.3,0-3,0-5.2,0.1c-5,0.1-5.4,0.2-5.7,0.2c-0.6,0.1-1,0.3-1.4,0.6
			c-0.5-0.7-1.4-1.1-2.4-1.1s-2.4,0.1-4.4,0.2c-1.8,0.1-3.2,0.2-4.1,0.2c-0.9,0-2.2,0-3.9-0.1c-1.8,0-3.1-0.1-4-0.1
			c-1,0-1.5,0.4-1.9,0.7c-0.4,0.5-0.7,1.1-0.6,1.9v0.1c0,0.3,0.1,2.2,0.3,5.9c0.1,2.3,0.2,4.2,0.2,5.7c0,1.3,0,3.2-0.1,5.8
			s-0.1,4.6-0.1,5.9c0,1.2,0.8,2.2,2,2.5c0.5,0.1,1.6,0.3,4.7,0.3c0.1,0,0.2,0,0.2,0V52l1.5-0.1c2.6-0.2,2.9-1.9,2.9-2.4v-0.1v-0.2
			c0-0.2-0.1-1-0.2-2.5c-0.1-1.6-0.2-3.1-0.2-4.4c0.1,0,0.2,0,0.3,0c2.5,0,4.3,0.1,5.5,0.2c0.5,0,0.9,0.1,1,0.1l0.3-1.8v1.8v-1.9
			v1.9c1,0,1.9-0.6,2.2-1.4c0,0.6-0.1,1.3-0.1,2.1c-0.1,2.6-0.2,4.6-0.2,5.9c0,1.2,0.8,2.2,2.1,2.5c0.3,0.1,0.9,0.1,3.4,0.1
			c1.5,0,2.6,0,3.4-0.1l0.7-0.1l0.2-0.1c0.7-0.2,1.5-1,1.5-2.2c0-0.9-0.1-2.1-0.2-3.8c-0.1-0.7-0.1-1.4-0.2-1.9
			c0.8,1.8,1.4,3.3,1.7,4.2s0.6,1.6,0.8,2.1l0.1,0.1c0.2,0.4,0.5,0.9,1.1,1.2c0.4,0.2,0.7,0.3,1.2,0.3c0.6,0.1,1.7,0.1,3.4,0.1
			c2.5,0,3.3-0.1,3.7-0.1c0.4-0.1,0.8-0.2,1.1-0.4c0.4,0.3,0.9,0.4,1.5,0.4c0.9,0,2.2,0,4,0s3.1,0,4,0c5.3,0,6.8,0.1,7.2,0.2
			c0.4,0.1,0.6,0.1,0.8,0.1c0.9,0,1.7-0.4,2.3-1.3c0.4,0.6,1.2,1,2,1h6.1c1.2,0,2.5-0.9,2.5-2.6c0-1.4,0-3.4-0.1-6.2
			c0-0.3,0-0.5,0-0.8c0.1,0.2,0.3,0.4,0.4,0.5c2.9,3.9,4.8,6.4,5.7,7.6c0.7,0.9,1.5,1.4,2.4,1.4c0.3,0,0.7,0,1.2,0.1
			c0.7,0.1,1.2,0.1,1.5,0.1s0.8,0,1.4,0c0.5,0,0.9,0,1.2,0c1.5,0,2.5-1,2.5-2.5v-5.8c0.6,1.7,1.6,3.2,2.8,4.5
			c2.7,2.9,6.1,4.4,10.4,4.4c3.5,0,6.5-1.1,8.9-3.3V49c0,1.3,0.9,2.3,2.2,2.5c0.4,0.1,1.1,0.1,3.3,0.1c2.6,0,3.3-0.1,3.7-0.1
			c1.3-0.2,2.1-1.3,2.1-2.6c0-0.9,0-2.3-0.1-4.2c0-1.2-0.1-2.1-0.1-2.9c0.6,0,1.4,0,2.7,0c1.2,0,2.1,0,2.6,0c0,0.8-0.1,1.8-0.1,3
			c-0.1,1.9-0.1,3.3-0.1,4.3c0,1.2,0.8,2.2,2.1,2.4c0.4,0.1,0.9,0.2,3.7,0.2c1.4,0,2.4,0,3.2-0.1c0.5,0,1-0.1,1.5-0.4
			c0.2-0.1,0.4-0.3,0.6-0.6c0.4,0.5,0.9,0.9,1.7,1c0.4,0.1,1.2,0.2,3.7,0.2c1.4,0,2.5-0.1,3.3-0.2c0.5-0.1,0.8-0.1,1.2-0.3
			c0.2-0.1,0.6-0.4,0.9-0.9c0.4,0.7,1.2,1.2,2.2,1.2c0.9,0,2.2,0,4,0s3.1,0,4,0c5.3,0,6.8,0.1,7.2,0.2c0.4,0.1,0.6,0.1,0.8,0.1
			c0.9,0,1.8-0.5,2.3-1.3c0.3-0.5,0.5-1.2,0.8-3.3c0.2-1.5,0.3-2.5,0.3-3.1C302.7,42.7,301.6,41.8,300.4,41.8z M150.6,33.1
			c0.1,0,0.3,0,0.4-0.1c0,0.3,0,0.6,0,0.9C150.9,33.6,150.7,33.3,150.6,33.1z M162.3,35c-0.3,0-0.6,0-0.8,0c0-0.3,0-0.5,0-0.7
			c0-0.9,0-1.5,0-2c1.5,0,2.1,0.3,2.3,0.4c0.1,0.1,0.4,0.2,0.4,1.2C164.2,34.5,164.2,35,162.3,35z M171.7,40.8
			c1-0.8,1.7-1.7,2.2-2.5c0,1.2-0.1,2.9-0.2,5c0,0.5-0.1,1-0.1,1.4c-0.1-0.3-0.3-0.5-0.4-0.8C172.6,42.6,172.1,41.6,171.7,40.8z
			 M194.1,32.7c0,0.2,0,0.4,0,0.6c-0.1-0.2-0.2-0.3-0.3-0.4C194,32.8,194,32.7,194.1,32.7z M194.1,40.1c0-0.9,0-1.7,0.1-2.6
			c0-0.3,0.1-0.5,0.1-0.7c0,0.4,0,0.8,0,1.1c0,1,0,2.4-0.1,4.1c-0.3-0.1-0.5-0.2-0.8-0.2C193.8,41.3,194.1,40.7,194.1,40.1z
			 M240.1,39.3c-0.8,0-1.3,0.4-2.2,1.1c-0.5,0.4-1,0.7-1.4,1c-0.6,0.3-1.3,0.5-2,0.5c-1.1,0-1.9-0.4-2.6-1.2c-0.7-0.9-1-1.9-1-3.2
			s0.3-2.3,1-3.2c0.7-0.8,1.4-1.2,2.6-1.2c0.7,0,1.3,0.2,2,0.5c0.5,0.2,1,0.6,1.5,1c0.8,0.8,1.4,1.2,2.2,1.2c0.6,0,1.2-0.2,1.7-0.7
			c0.3-0.3,0.6-0.7,1.6-2.3c0.1,2.1,0.1,3.8,0.1,4.9c0,1,0,2.5-0.1,4.4c-1-1.4-1.3-1.9-1.5-2.1C241.4,39.6,240.7,39.3,240.1,39.3z
			 M270.7,49.3C270.7,49.3,270.7,49.2,270.7,49.3h0.9H270.7z"/>
		<path d="M437.9,36.8l-0.1-0.1c-0.1-0.1-0.9-1.1-2.4-3c-0.8-1-0.8-1.4-0.8-1.4s0,0,0.2-0.1c0.3-0.2,0.7-0.3,1.1-0.3
			c0.1,0,0.1,0,0.2,0c0.4,0.1,0.6,0.1,0.8,0.1c1.3,0,2.3-1,2.3-2.3c0-0.4-0.1-0.7-0.3-1.1c-1.3-2.7-1.8-3.9-2-4.5
			c-0.6-1.6-1.9-1.7-2.3-1.7c-0.1,0-0.3,0-0.5,0H434c-2.7,0.4-5,1.3-6.8,2.6c-1.4,1-2.4,2.2-3,3.5c-0.6-1.3-1.6-2.5-2.8-3.4
			c-2-1.4-4.6-2.2-7.7-2.2c-1.3,0-3,0-5.2,0.1c-5,0.1-5.4,0.2-5.7,0.2c-1,0.2-1.6,0.7-1.9,1.3c-0.4-0.8-1.3-1.5-2.7-1.5
			c-0.9,0-2.2,0-3.9,0.1c-1.7,0-3,0.1-3.8,0.1c-0.9,0-2.1,0-3.9-0.1c-1.8,0-3.1-0.1-4-0.1s-1.4,0.4-1.7,0.7
			c-0.4-0.4-1.1-0.7-1.8-0.7c-0.7,0-1.7,0-3,0.1s-2.2,0.1-2.8,0.1h-0.9l-0.3,0.1c-0.5,0.2-1.5,0.7-1.5,2.4c0,0.9,0,2.2,0,3.9
			c0,1.6,0,2.9,0,3.7c0,0.2-0.3,1-1.5,3.4c-0.1,0.3-0.3,0.5-0.4,0.8c-1.2-2.5-1.5-3.3-1.6-3.6c0-0.9,0.1-2.3,0.2-4
			c0.1-2,0.2-3.4,0.2-4.4c0-1.4-1-2.4-2.4-2.4c-0.7,0-1.7,0-3.1-0.1c-1.5-0.1-2.5-0.1-3.3-0.1c-1.1,0-2.4,0.8-2.4,2.7
			c0,0.9,0,2.3-0.1,4.1c0,0.1,0,0.1,0,0.1c-0.6-1.1-1.3-2.1-2.2-3.1c-2.8-2.9-6.3-4.4-10.5-4.4s-7.7,1.5-10.5,4.4
			c-2.7,2.9-4.1,6.4-4.1,10.6c0,1.6,0.2,3.1,0.6,4.5c-0.1,0-0.3,0-0.4,0c-1.1,0-2.7,0.1-4.8,0.2c-1.4,0.1-2.5,0.1-3.4,0.1
			c0-0.5,0-1.2,0-1.9v-4.6c0.2-4.4,0.3-7.7,0.5-9.9v-0.3c0-0.7-0.2-1.3-0.6-1.8c-0.4-0.4-1-0.7-1.6-0.7c-0.4,0-1,0-1.8,0.1
			c-0.7,0-1.3,0.1-1.6,0.1c-0.3,0-0.8,0-1.5-0.1c-0.7,0-1.3-0.1-1.7-0.1c-1.7,0-2.5,1.2-2.5,2.4c0,1.4,0,3.4,0.1,6.2
			c0.1,2.7,0.1,4.7,0.1,6s0,3.2-0.1,5.7c0,2.6-0.1,4.5-0.1,5.8s0.9,2.3,2.2,2.5h0.1h0.1c0.9,0.1,1.6,0.1,2.1,0.1h0.3l5.2,0.1
			l3.9,0.1c1.6,0,3,0.1,4,0.1c0.7,0,1,0,1.4-0.2c0.5-0.2,1.4-0.7,1.7-2c0.2-1.1,0.4-2.3,0.4-3.7c0.4,0.6,0.9,1.3,1.5,1.8
			c2.8,2.9,6.3,4.4,10.5,4.4s7.7-1.5,10.5-4.4c2.3-2.5,3.7-5.5,4-9c0.4,0.9,0.9,1.9,1.5,3.2c1.3,2.6,2.7,5.3,4,7.9
			c0.6,1.1,1.5,1.4,1.9,1.5c0.3,0.1,0.7,0.1,3.1,0.1c1.3,0,2.3,0,3-0.1c0.5,0,1-0.1,1.4-0.4c0.5-0.3,0.7-0.8,0.9-1.1
			c1.7-3.3,3-5.8,4-7.5c1.3-2.7,2.2-4.5,2.7-5.8c0,0.2,0,0.4,0,0.6c0,1.3-0.1,3.2-0.2,5.8c-0.1,2.7-0.2,4.7-0.2,6
			c0,1.5,1.1,2.5,2.6,2.5c0.9,0,2.2,0,4,0s3.1,0,4,0c5.3,0,6.8,0.1,7.2,0.2c0.4,0.1,0.6,0.1,0.8,0.1c0.9,0,1.7-0.5,2.3-1.3
			c0.4,0.5,0.9,0.9,1.6,1c0.3,0.1,0.9,0.1,3.4,0.1c1.5,0,2.6,0,3.4-0.1l0.7-0.1l0.2-0.1c0.7-0.2,1.5-1,1.5-2.2
			c0-0.9-0.1-2.1-0.2-3.8c-0.1-0.7-0.1-1.4-0.2-1.9c0.8,1.8,1.4,3.3,1.7,4.2c0.3,0.9,0.8,2.1,0.8,2.1v0.1c0.2,0.4,0.5,0.9,1.1,1.2
			c0.4,0.2,0.7,0.3,1.2,0.3c0.6,0.1,1.7,0.1,3.4,0.1c2.5,0,3.3-0.1,3.7-0.1c0.9-0.1,1.4-0.6,1.7-1.1c0.9,1.4,1.6,2,2.6,2
			c0.1,0,0.3,0,0.5,0c2.9-0.5,5.4-1.6,7.4-3.3c2.5-2.1,3.7-4.7,3.7-7.6C439.5,40.1,439,38.4,437.9,36.8z M346.3,40.6
			c-0.8,0.9-1.6,1.3-2.7,1.3c-1.2,0-2.1-0.4-2.8-1.2c-0.7-0.8-1.1-1.9-1.1-3.2c0-1.2,0.4-2.2,1.2-3.1c0.8-0.9,1.6-1.3,2.7-1.3
			c1.2,0,2,0.4,2.8,1.2c0.7,0.9,1.1,1.9,1.1,3.2C347.4,38.7,347.1,39.7,346.3,40.6z M400.9,32.6c0,0.3,0,0.6,0,0.8
			c-0.1-0.2-0.2-0.4-0.4-0.6C400.7,32.8,400.8,32.7,400.9,32.6z M400.7,40.1c0-0.9,0-1.7,0.1-2.6c0-0.3,0.1-0.6,0.1-0.8
			c0,0.3,0,0.6,0,1c0,1,0,2.5-0.1,4.3c-0.3-0.1-0.5-0.2-0.8-0.2C400.5,41.3,400.7,40.7,400.7,40.1z M412.3,35c-0.3,0-0.6,0-0.8,0
			c0-0.3,0-0.5,0-0.7c0-0.9,0-1.5,0-2c1.5,0,2.1,0.3,2.3,0.4c0.1,0.1,0.4,0.2,0.4,1.2C414.1,34.5,414.1,35,412.3,35z M427.4,42.3
			c-0.1,0.1-0.8,0.3-2.9,0.8c-0.6,0.1-1,0.4-1.4,0.8c-0.6-1.3-1.1-2.3-1.5-3.1c1.2-1,2-2,2.5-3.1c0.2-0.4,0.3-0.8,0.5-1.2
			c0.1,0.2,0.3,0.5,0.4,0.7s0.2,0.4,2.4,2.8c0.7,0.8,0.7,1.2,0.7,1.3C428.1,41.6,428.1,41.9,427.4,42.3z"/>
	</g>
	<g>
		<path d="M300.3,35.6c0.5-0.4,0.7-1.1,0.7-1.7c0-0.9,0-1.7,0.1-2.6c0.2-1.7,0.2-2.3,0.3-2.5l0.1-0.2v-0.4c0-0.6-0.3-1.2-0.6-1.6
			c0.7-0.4,1.2-1.2,1.2-2.1c0-0.3,0-0.8-0.2-2.7c-0.2-1.9-0.3-2.4-0.3-2.7c-0.2-1.1-1.1-2.3-3-2.3c-0.9,0-2.2,0-3.9,0.1
			c-1.7,0-3,0.1-3.8,0.1c-0.9,0-2.1,0-3.9-0.1c-1.8,0-3.1-0.1-4-0.1c-1,0-1.6,0.5-1.8,0.8c-0.1,0.1-0.1,0.2-0.2,0.2
			c-0.4-0.6-1.1-1-2.1-1c-0.4,0-1,0-1.7,0.1c-0.7,0-1.2,0.1-1.5,0.1s-0.9,0-1.5-0.1c-0.8,0-1.4-0.1-1.7-0.1c-0.9,0-1.7,0.5-2.1,1.2
			c-0.4-0.7-1.2-1.2-2.2-1.2c-0.4,0-0.9,0-1.7,0.1c-0.7,0-1.1,0.1-1.5,0.1c-0.3,0-0.8,0-1.5-0.1c-0.7,0-1.3-0.1-1.7-0.1
			c-1.4,0-2.4,1.1-2.4,2.5c0,0.9,0,2.2,0.1,3.9c0,1,0.1,1.9,0.1,2.6c-0.6,0-1.5,0-2.8,0c-1.3,0-2.2,0-2.8,0c0-0.7,0.1-1.6,0.2-2.6
			c0.1-1.8,0.2-3.2,0.2-4.1c0-1.3-1-2.3-2.3-2.3c-0.4,0-1,0-1.8,0.1c-0.7,0-1.2,0.1-1.6,0.1c-0.3,0-0.9,0-1.5-0.1
			c-0.8,0-1.4-0.1-1.7-0.1c-1.4,0-2.4,1-2.4,2.4c0,0,0,0,0,0.1c-2.4-2-5.5-3-9.2-3c-4.1,0-7.5,1.5-10.1,4.6c-1.1,1.2-1.9,2.6-2.5,4
			c0.1-2.4,0.1-4.2,0.1-5.5c0-1.7-1.2-2.5-2.3-2.5c-0.7,0-1.8,0-3.3,0.1c-1.4,0.1-2.4,0.1-3.1,0.1c-1.1,0-2.4,0.8-2.4,2.7
			c0,1.3,0.1,3.2,0.2,5.7c0,0.5,0.1,1,0.1,1.4l-6.5-8.8c-0.3-0.4-1-1.4-2.3-1.4c-0.5,0-1,0.1-1.8,0.2c-0.6,0.1-1,0.2-1.2,0.2
			c-0.9,0.1-1.7,0.1-2.3,0.1c-1.2,0-2,0.6-2.4,1.3c-0.4-0.8-1.3-1.5-2.7-1.5c-0.9,0-2.2,0-3.9,0.1c-1.7,0-3,0.1-3.8,0.1
			c-0.9,0-2.1,0-3.9-0.1c-1.8,0-3.1-0.1-4-0.1c-1,0-1.6,0.5-1.8,0.8c-0.4,0.5-0.7,1.1-0.6,1.8v0.2c0,0.5,0.1,1,0.1,1.5
			c-0.6-0.8-1.3-1.6-2.2-2.2c-2-1.4-4.6-2.2-7.7-2.2c-1.3,0-3,0-5.2,0.1c-5,0.1-5.4,0.2-5.7,0.2c-0.6,0.1-1,0.3-1.4,0.6
			c-0.5-0.7-1.4-1.1-2.4-1.1s-2.4,0.1-4.4,0.2c-1.8,0.1-3.2,0.2-4.1,0.2c-0.9,0-2.2,0-3.9-0.1c-1.8,0-3.1-0.1-4-0.1
			c-1,0-1.5,0.4-1.9,0.7c-0.4,0.5-0.7,1.1-0.6,1.9v0.1c0,0.3,0.1,2.2,0.3,5.9c0.1,2.3,0.2,4.2,0.2,5.7c0,1.3,0,3.2-0.1,5.8
			s-0.1,4.6-0.1,5.9c0,1.2,0.8,2.2,2,2.5c0.5,0.1,1.6,0.3,4.7,0.3c0.1,0,0.2,0,0.2,0v0.1l1.5-0.1c2.6-0.2,2.9-1.9,2.9-2.4v-0.1V43
			c0-0.2-0.1-1-0.2-2.5c-0.1-1.6-0.2-3.1-0.2-4.4c0.1,0,0.2,0,0.3,0c2.5,0,4.3,0.1,5.5,0.2c0.5,0,0.9,0.1,1,0.1l0.3-1.8v1.8v-1.9
			v1.9c1,0,1.9-0.6,2.2-1.4c0,0.6-0.1,1.3-0.1,2.1c-0.1,2.6-0.2,4.6-0.2,5.9c0,1.2,0.8,2.2,2.1,2.5c0.3,0.1,0.9,0.1,3.4,0.1
			c1.5,0,2.6,0,3.4-0.1l0.7-0.1l0.2-0.1c0.7-0.2,1.5-1,1.5-2.2c0-0.9-0.1-2.1-0.2-3.8c-0.1-0.7-0.1-1.4-0.2-1.9
			c0.8,1.8,1.4,3.3,1.7,4.2s0.6,1.6,0.8,2.1l0.1,0.1c0.2,0.4,0.5,0.9,1.1,1.2c0.4,0.2,0.7,0.3,1.2,0.3c0.6,0.1,1.7,0.1,3.4,0.1
			c2.5,0,3.3-0.1,3.7-0.1c0.4-0.1,0.8-0.2,1.1-0.4c0.4,0.3,0.9,0.4,1.5,0.4c0.9,0,2.2,0,4,0s3.1,0,4,0c5.3,0,6.8,0.1,7.2,0.2
			c0.4,0.1,0.6,0.1,0.8,0.1c0.9,0,1.7-0.4,2.3-1.3c0.4,0.6,1.2,1,2,1h6.1c1.2,0,2.5-0.9,2.5-2.6c0-1.4,0-3.4-0.1-6.2
			c0-0.3,0-0.5,0-0.8c0.1,0.2,0.3,0.4,0.4,0.5c2.9,3.9,4.8,6.4,5.7,7.6c0.7,0.9,1.5,1.4,2.4,1.4c0.3,0,0.7,0,1.2,0.1
			c0.7,0.1,1.2,0.1,1.5,0.1s0.8,0,1.4,0c0.5,0,0.9,0,1.2,0c1.5,0,2.5-1,2.5-2.5v-5.8c0.6,1.7,1.6,3.2,2.8,4.5
			c2.7,2.9,6.1,4.4,10.4,4.4c3.5,0,6.5-1.1,8.9-3.3v0.1c0,1.3,0.9,2.3,2.2,2.5c0.4,0.1,1.1,0.1,3.3,0.1c2.6,0,3.3-0.1,3.7-0.1
			c1.3-0.2,2.1-1.3,2.1-2.6c0-0.9,0-2.3-0.1-4.2c0-1.2-0.1-2.1-0.1-2.9c0.6,0,1.4,0,2.7,0c1.2,0,2.1,0,2.6,0c0,0.8-0.1,1.8-0.1,3
			c-0.1,1.9-0.1,3.3-0.1,4.3c0,1.2,0.8,2.2,2.1,2.4c0.4,0.1,0.9,0.2,3.7,0.2c1.4,0,2.4,0,3.2-0.1c0.5,0,1-0.1,1.5-0.4
			c0.2-0.1,0.4-0.3,0.6-0.6c0.4,0.5,0.9,0.9,1.7,1c0.4,0.1,1.2,0.2,3.7,0.2c1.4,0,2.5-0.1,3.3-0.2c0.5-0.1,0.8-0.1,1.2-0.3
			c0.2-0.1,0.6-0.4,0.9-0.9c0.4,0.7,1.2,1.2,2.2,1.2c0.9,0,2.2,0,4,0s3.1,0,4,0c5.3,0,6.8,0.1,7.2,0.2c0.4,0.1,0.6,0.1,0.8,0.1
			c0.9,0,1.8-0.5,2.3-1.3c0.3-0.5,0.5-1.2,0.8-3.3c0.2-1.5,0.3-2.5,0.3-3.1C302.5,36.5,301.4,35.6,300.3,35.6z M150.4,26.9
			c0.1,0,0.3,0,0.4-0.1c0,0.3,0,0.6,0,0.9C150.7,27.4,150.6,27.1,150.4,26.9z M162.2,28.8c-0.3,0-0.6,0-0.8,0c0-0.3,0-0.5,0-0.7
			c0-0.9,0-1.5,0-2c1.5,0,2.1,0.3,2.3,0.4c0.1,0.1,0.4,0.2,0.4,1.2C164,28.3,164,28.8,162.2,28.8z M171.6,34.6
			c1-0.8,1.7-1.7,2.2-2.5c0,1.2-0.1,2.9-0.2,5c0,0.5-0.1,1-0.1,1.4c-0.1-0.3-0.3-0.5-0.4-0.8C172.4,36.4,171.9,35.4,171.6,34.6z
			 M194,26.5c0,0.2,0,0.4,0,0.6c-0.1-0.2-0.2-0.3-0.3-0.4C193.8,26.6,193.9,26.5,194,26.5z M193.9,33.9c0-0.9,0-1.7,0.1-2.6
			c0-0.3,0.1-0.5,0.1-0.7c0,0.4,0,0.8,0,1.1c0,1,0,2.4-0.1,4.1c-0.3-0.1-0.5-0.2-0.8-0.2C193.6,35.1,193.9,34.5,193.9,33.9z
			 M239.9,33.1c-0.8,0-1.3,0.4-2.2,1.1c-0.5,0.4-1,0.7-1.4,1c-0.6,0.3-1.3,0.5-2,0.5c-1.1,0-1.9-0.4-2.6-1.2c-0.7-0.9-1-1.9-1-3.2
			s0.3-2.3,1-3.2c0.7-0.8,1.4-1.2,2.6-1.2c0.7,0,1.3,0.2,2,0.5c0.5,0.2,1,0.6,1.5,1c0.8,0.8,1.4,1.2,2.2,1.2c0.6,0,1.2-0.2,1.7-0.7
			c0.3-0.3,0.6-0.7,1.6-2.3c0.1,2.1,0.1,3.8,0.1,4.9c0,1,0,2.5-0.1,4.4c-1-1.4-1.3-1.9-1.5-2.1C241.2,33.4,240.6,33.1,239.9,33.1z
			 M270.6,43.1L270.6,43.1h0.9H270.6z"/>
		<path d="M437.8,30.6l-0.1-0.1c-0.1-0.1-0.9-1.1-2.4-3c-0.8-1-0.8-1.4-0.8-1.4s0,0,0.2-0.1c0.3-0.2,0.7-0.3,1.1-0.3
			c0.1,0,0.1,0,0.2,0c0.4,0.1,0.6,0.1,0.8,0.1c1.3,0,2.3-1,2.3-2.3c0-0.4-0.1-0.7-0.3-1.1c-1.3-2.7-1.8-3.9-2-4.5
			c-0.6-1.6-1.9-1.7-2.3-1.7c-0.1,0-0.3,0-0.5,0h-0.1c-2.7,0.4-5,1.3-6.8,2.6c-1.4,1-2.4,2.2-3,3.5c-0.6-1.3-1.6-2.5-2.8-3.4
			c-2-1.4-4.6-2.2-7.7-2.2c-1.3,0-3,0-5.2,0.1c-5,0.1-5.4,0.2-5.7,0.2c-1,0.2-1.6,0.7-1.9,1.3c-0.4-0.8-1.3-1.5-2.7-1.5
			c-0.9,0-2.2,0-3.9,0.1c-1.7,0-3,0.1-3.8,0.1c-0.9,0-2.1,0-3.9-0.1c-1.8,0-3.1-0.1-4-0.1s-1.4,0.4-1.7,0.7
			c-0.4-0.4-1.1-0.7-1.8-0.7c-0.7,0-1.7,0-3,0.1s-2.2,0.1-2.8,0.1h-0.9l-0.3,0.1c-0.5,0.2-1.5,0.7-1.5,2.4c0,0.9,0,2.2,0,3.9
			c0,1.6,0,2.9,0,3.7c0,0.2-0.3,1-1.5,3.4c-0.1,0.3-0.3,0.5-0.4,0.8c-1.2-2.5-1.5-3.3-1.6-3.6c0-0.9,0.1-2.3,0.2-4
			c0.1-2,0.2-3.4,0.2-4.4c0-1.4-1-2.4-2.4-2.4c-0.7,0-1.7,0-3.1-0.1c-1.5-0.1-2.5-0.1-3.3-0.1c-1.1,0-2.4,0.8-2.4,2.7
			c0,0.9,0,2.3-0.1,4.1c0,0.1,0,0.1,0,0.1c-0.6-1.1-1.3-2.1-2.2-3.1c-2.8-2.9-6.3-4.4-10.5-4.4s-7.7,1.5-10.5,4.4
			c-2.7,2.9-4.1,6.4-4.1,10.6c0,1.6,0.2,3.1,0.6,4.5c-0.1,0-0.3,0-0.4,0c-1.1,0-2.7,0.1-4.8,0.2c-1.4,0.1-2.5,0.1-3.4,0.1
			c0-0.5,0-1.2,0-1.9v-4.6c0.2-4.4,0.3-7.7,0.5-9.9v-0.3c0-0.7-0.2-1.3-0.6-1.8c-0.4-0.4-1-0.7-1.6-0.7c-0.4,0-1,0-1.8,0.1
			c-0.7,0-1.3,0.1-1.6,0.1c-0.3,0-0.8,0-1.5-0.1c-0.7,0-1.3-0.1-1.7-0.1c-1.7,0-2.5,1.2-2.5,2.4c0,1.4,0,3.4,0.1,6.2
			c0.1,2.7,0.1,4.7,0.1,6s0,3.2-0.1,5.7c0,2.6-0.1,4.5-0.1,5.8s0.9,2.3,2.2,2.5h0.1h0.1c0.9,0.1,1.6,0.1,2.1,0.1h0.3l5.2,0.1
			l3.9,0.1c1.6,0,3,0.1,4,0.1c0.7,0,1,0,1.4-0.2c0.5-0.2,1.4-0.7,1.7-2c0.2-1.1,0.4-2.3,0.4-3.7c0.4,0.6,0.9,1.3,1.5,1.8
			c2.8,2.9,6.3,4.4,10.5,4.4s7.7-1.5,10.5-4.4c2.3-2.5,3.7-5.5,4-9c0.4,0.9,0.9,1.9,1.5,3.2c1.3,2.6,2.7,5.3,4,7.9
			c0.6,1.1,1.5,1.4,1.9,1.5c0.3,0.1,0.7,0.1,3.1,0.1c1.3,0,2.3,0,3-0.1c0.5,0,1-0.1,1.4-0.4c0.5-0.3,0.7-0.8,0.9-1.1
			c1.7-3.3,3-5.8,4-7.5c1.3-2.7,2.2-4.5,2.7-5.8c0,0.2,0,0.4,0,0.6c0,1.3-0.1,3.2-0.2,5.8c-0.1,2.7-0.2,4.7-0.2,6
			c0,1.5,1.1,2.5,2.6,2.5c0.9,0,2.2,0,4,0s3.1,0,4,0c5.3,0,6.8,0.1,7.2,0.2c0.4,0.1,0.6,0.1,0.8,0.1c0.9,0,1.7-0.5,2.3-1.3
			c0.4,0.5,0.9,0.9,1.6,1c0.3,0.1,0.9,0.1,3.4,0.1c1.5,0,2.6,0,3.4-0.1l0.7-0.1l0.2-0.1c0.7-0.2,1.5-1,1.5-2.2
			c0-0.9-0.1-2.1-0.2-3.8c-0.1-0.7-0.1-1.4-0.2-1.9c0.8,1.8,1.4,3.3,1.7,4.2c0.3,0.9,0.8,2.1,0.8,2.1v0.1c0.2,0.4,0.5,0.9,1.1,1.2
			c0.4,0.2,0.7,0.3,1.2,0.3c0.6,0.1,1.7,0.1,3.4,0.1c2.5,0,3.3-0.1,3.7-0.1c0.9-0.1,1.4-0.6,1.7-1.1c0.9,1.4,1.6,2,2.6,2
			c0.1,0,0.3,0,0.5,0c2.9-0.5,5.4-1.6,7.4-3.3c2.5-2.1,3.7-4.7,3.7-7.6C439.3,33.9,438.8,32.2,437.8,30.6z M346.1,34.4
			c-0.8,0.9-1.6,1.3-2.7,1.3c-1.2,0-2.1-0.4-2.8-1.2c-0.7-0.8-1.1-1.9-1.1-3.2c0-1.2,0.4-2.2,1.2-3.1c0.8-0.9,1.6-1.3,2.7-1.3
			c1.2,0,2,0.4,2.8,1.2c0.7,0.9,1.1,1.9,1.1,3.2C347.3,32.5,346.9,33.5,346.1,34.4z M400.7,26.4c0,0.3,0,0.6,0,0.8
			c-0.1-0.2-0.2-0.4-0.4-0.6C400.5,26.6,400.6,26.5,400.7,26.4z M400.6,33.9c0-0.9,0-1.7,0.1-2.6c0-0.3,0.1-0.6,0.1-0.8
			c0,0.3,0,0.6,0,1c0,1,0,2.5-0.1,4.3c-0.3-0.1-0.5-0.2-0.8-0.2C400.3,35.1,400.6,34.5,400.6,33.9z M412.1,28.8c-0.3,0-0.6,0-0.8,0
			c0-0.3,0-0.5,0-0.7c0-0.9,0-1.5,0-2c1.5,0,2.1,0.3,2.3,0.4c0.1,0.1,0.4,0.2,0.4,1.2C414,28.3,414,28.8,412.1,28.8z M427.3,36.1
			c-0.1,0.1-0.8,0.3-2.9,0.8c-0.6,0.1-1,0.4-1.4,0.8c-0.6-1.3-1.1-2.3-1.5-3.1c1.2-1,2-2,2.5-3.1c0.2-0.4,0.3-0.8,0.5-1.2
			c0.1,0.2,0.3,0.5,0.4,0.7s0.2,0.4,2.4,2.8c0.7,0.8,0.7,1.2,0.7,1.3C428,35.4,428,35.7,427.3,36.1z"/>
	</g>
	<g>
		
			<linearGradient id="SVGID_1_" gradientUnits="userSpaceOnUse" x1="132.0738" y1="54.85" x2="150.3907" y2="54.85" gradientTransform="matrix(1 0 0 -1 0 86)">
			<stop  offset="0" style="stop-color:#00F02E"/>
			<stop  offset="1" style="stop-color:#FAFFC5"/>
		</linearGradient>
		<path class="st3" d="M150,21.7c0-1-0.1-1.8-0.1-2.3c-0.1-0.5-0.4-0.7-1-0.7c-0.9,0-2.3,0.1-4.2,0.2s-3.3,0.2-4.2,0.2
			s-2.2,0-3.9-0.1s-3.1-0.1-3.9-0.1c-0.4,0-0.5,0.1-0.5,0.4v0.2c0,0.3,0.1,2.2,0.3,5.8c0.1,2.3,0.2,4.3,0.2,5.8c0,1.3,0,3.3-0.1,5.9
			s-0.1,4.6-0.1,5.9c0,0.3,0.2,0.5,0.5,0.5c0.6,0.2,2,0.2,4.2,0.2c1.1,0,1.6,0,1.6,0c0.7-0.1,1.1-0.2,1.1-0.5c0-0.1-0.1-1-0.2-2.6
			c-0.1-2.2-0.2-4.1-0.2-5.7c0-0.4,0.3-0.7,0.9-0.8c0.1,0,0.6,0,1.4,0c2.5,0,4.4,0.1,5.7,0.2c0.9,0.1,1.3,0.1,1.1,0.1
			c0.2,0,0.4-0.1,0.5-0.3c0.1-0.3,0.2-1.3,0.2-3.1c0-2.1-0.2-3.1-0.6-3.1c-0.8,0-2,0-3.6,0.1s-2.8,0.1-3.6,0.1c-0.5,0-0.8,0-1.1-0.1
			c-0.6-0.2-0.8-0.8-0.8-1.9c0-0.9,0.2-1.5,0.7-1.7c0.2-0.1,0.8-0.1,2-0.1c0.9,0,2.2,0.1,4,0.2s3.1,0.2,4,0.2c0.2,0,0.4-0.1,0.4-0.2
			c0-0.4-0.1-0.8-0.2-1.5C150.1,22.5,150,22,150,21.7z"/>
		
			<linearGradient id="SVGID_2_" gradientUnits="userSpaceOnUse" x1="152.465" y1="54.7" x2="173.4181" y2="54.7" gradientTransform="matrix(1 0 0 -1 0 86)">
			<stop  offset="0" style="stop-color:#00F02E"/>
			<stop  offset="1" style="stop-color:#FAFFC5"/>
		</linearGradient>
		<path class="st4" d="M169.1,34.2c0-0.2,0.1-0.3,0.4-0.5c1.3-1,2.2-2,2.7-3s0.7-2.4,0.7-4.1c0-2.6-1-4.5-2.9-5.9
			c-1.7-1.2-3.9-1.8-6.5-1.8c-1.3,0-3,0-5.2,0.1c-3.2,0.1-5,0.1-5.4,0.2s-0.6,0.2-0.6,0.4v0.2c0.2,2.8,0.3,6.6,0.3,11.6
			c0,1.3-0.1,3.3-0.2,5.9s-0.2,4.5-0.2,5.8c0,0.3,0.2,0.5,0.5,0.5s1.3,0.1,3,0.1c1.5,0,2.5,0,3.2-0.1c0.2,0,0.3,0,0.5,0
			c0.1,0,0.2-0.2,0.2-0.4c0-0.8-0.1-2-0.2-3.6s-0.2-2.8-0.2-3.6c0-0.6,0.1-0.9,0.3-0.9c1.3,0,1.9,0,1.9,0c0.7,0.1,1.2,0.3,1.4,0.7
			c1,2.3,1.7,4,2.1,5.2c0.3,0.9,0.6,1.6,0.8,2c0.1,0.2,0.2,0.3,0.2,0.4c0,0,0.2,0.1,0.4,0.1c0.6,0.1,1.6,0.1,3.1,0.1
			c1.8,0,2.9,0,3.4-0.1c0.2,0,0.4-0.1,0.4-0.2c0-0.3-0.7-1.9-2.1-4.9S169.1,34.2,169.1,34.2z M162.2,30.8c-0.8,0-1.5-0.1-2.3-0.2
			c-0.4-0.1-0.6-0.1-0.6-0.2c0-0.3,0-0.7,0-1.2s0-0.9,0-1.2c0-1.9,0-3,0.1-3.4c0.1-0.3,0.7-0.5,1.8-0.5c1.5,0,2.7,0.2,3.4,0.6
			c0.9,0.6,1.4,1.5,1.4,3C166,29.8,164.8,30.8,162.2,30.8z"/>
		
			<linearGradient id="SVGID_3_" gradientUnits="userSpaceOnUse" x1="175.3341" y1="54.65" x2="193.4044" y2="54.65" gradientTransform="matrix(1 0 0 -1 0 86)">
			<stop  offset="0" style="stop-color:#00F02E"/>
			<stop  offset="1" style="stop-color:#FAFFC5"/>
		</linearGradient>
		<path class="st5" d="M193,37.6c-0.6,0-1.5,0.1-2.8,0.2s-2.1,0.2-2.8,0.2c-1.7,0-2.6,0-2.6,0c-1.3-0.1-2.1-0.3-2.3-0.8
			c-0.1-0.3-0.2-0.8-0.2-1.7c0-0.7,0-1,0-1.1c0.1-0.2,0.4-0.4,0.8-0.4h1.9c2.4,0,3.9,0,4.6,0.1l1.6,0.2c0.3,0,0.5-0.1,0.5-0.4
			c0-0.9,0-1.9,0.1-2.8c0.2-1.7,0.3-2.6,0.3-2.7c0-0.2-0.1-0.4-0.4-0.4c-0.2,0-0.6,0-0.9,0.1c-0.5,0-0.8,0.1-1,0.1
			c-1.5,0.1-3,0.1-4.5,0.1c-0.2,0-0.5,0-0.8,0s-0.6,0-0.7,0c-0.6,0-0.9-0.1-1.1-0.3c-0.2-0.3-0.4-0.8-0.4-1.6c0-0.8,0-1.2,0.1-1.4
			c0.1-0.3,0.5-0.4,1.1-0.4c2.5,0,5.3,0.1,8.4,0.4c0.2,0,0.3,0,0.4,0c0.2,0,0.4-0.1,0.4-0.4s-0.1-1.1-0.2-2.5s-0.2-2.2-0.3-2.5
			c-0.1-0.5-0.4-0.7-1.1-0.7c-0.9,0-2.1,0-3.9,0.1s-3,0.1-3.9,0.1s-2.2,0-3.9-0.1s-3-0.1-3.9-0.1c-0.3,0-0.5,0.1-0.4,0.4v0.2
			c0.1,1.9,0.2,3.3,0.2,4.2c0.1,3.6,0.2,6.1,0.2,7.5c0,1.3-0.1,3.3-0.2,5.9s-0.2,4.6-0.2,5.9c0,0.3,0.2,0.5,0.6,0.5c0.9,0,2.2,0,4,0
			s3.1,0,4,0c4.1,0,6.6,0.1,7.5,0.2c0.2,0,0.4,0.1,0.5,0.1c0.2,0,0.4-0.1,0.6-0.3c0.2-0.3,0.4-1.2,0.6-2.6c0.2-1.3,0.3-2.3,0.3-2.8
			C193.4,37.8,193.3,37.6,193,37.6z"/>
		
			<linearGradient id="SVGID_4_" gradientUnits="userSpaceOnUse" x1="195.7423" y1="54.7" x2="219.2618" y2="54.7" gradientTransform="matrix(1 0 0 -1 0 86)">
			<stop  offset="0" style="stop-color:#00F02E"/>
			<stop  offset="1" style="stop-color:#FAFFC5"/>
		</linearGradient>
		<path class="st6" d="M218.9,19c-0.7,0-1.8,0-3.2,0.1s-2.5,0.1-3.2,0.1c-0.2,0-0.4,0.2-0.4,0.7c0,1.2,0.1,3.1,0.2,5.6
			s0.2,4.3,0.2,5.6c0,0.9-0.1,1.4-0.2,1.4c-0.2,0-0.5-0.2-0.8-0.5c-1.2-1.6-2.1-2.7-2.7-3.6l-6.6-9c-0.3-0.4-0.5-0.6-0.7-0.6
			c-0.3,0-0.8,0.1-1.4,0.2c-0.7,0.1-1.2,0.2-1.4,0.2c-1,0.1-1.8,0.1-2.5,0.1c-0.5,0-0.7,0.1-0.7,0.4c0,1.3,0.1,3.3,0.2,6
			s0.2,4.7,0.2,6s-0.1,3.2-0.2,5.7s-0.2,4.5-0.2,5.7c0,0.4,0.2,0.5,0.5,0.5h6.1c0.3,0,0.5-0.2,0.5-0.6c0-1.4,0-3.4-0.1-6.1
			s-0.1-4.8-0.1-6.1c0-0.2,0-0.3,0.1-0.4c0.1,0.1,0.2,0.1,0.3,0.2c1.7,2.1,2.9,3.7,3.7,4.8c3,3.9,4.9,6.4,5.7,7.6
			c0.3,0.4,0.5,0.6,0.8,0.6s0.8,0,1.4,0.1s1.1,0.1,1.4,0.1c0.3,0,0.7,0,1.3,0s1,0,1.3,0s0.5-0.2,0.5-0.5V31.6c0-1.3,0.1-3.4,0.2-6
			s0.2-4.7,0.2-6C219.3,19.2,219.2,19,218.9,19z"/>
		
			<linearGradient id="SVGID_5_" gradientUnits="userSpaceOnUse" x1="221.9" y1="54.7" x2="243.1" y2="54.7" gradientTransform="matrix(1 0 0 -1 0 86)">
			<stop  offset="0" style="stop-color:#00F02E"/>
			<stop  offset="1" style="stop-color:#FAFFC5"/>
		</linearGradient>
		<path class="st7" d="M240.3,35.3c-0.1-0.1-0.2-0.2-0.4-0.2c-0.1,0-0.3,0.2-0.9,0.7c-0.6,0.5-1.2,0.9-1.8,1.2
			c-0.9,0.4-1.9,0.7-2.9,0.7c-1.7,0-3.1-0.7-4.1-2c-0.9-1.2-1.4-2.7-1.4-4.5s0.5-3.2,1.4-4.4c1-1.3,2.4-1.9,4.1-1.9
			c1,0,2,0.2,2.9,0.7c0.6,0.3,1.2,0.8,1.9,1.3c0.5,0.5,0.8,0.7,0.9,0.7c0.1,0,0.3,0,0.4-0.1c0.2-0.2,0.7-1,1.5-2.4s1.2-2.3,1.2-2.5
			s-0.1-0.4-0.4-0.7c-2.2-2.3-5.1-3.5-8.9-3.5c-3.5,0-6.4,1.3-8.6,3.9c-2.2,2.5-3.3,5.5-3.3,9.1c0,3.7,1.1,6.7,3.3,9.1
			c2.3,2.5,5.2,3.7,8.9,3.7c3.6,0,6.4-1.3,8.6-3.8c0.2-0.3,0.4-0.6,0.4-0.7c0-0.1-0.4-0.8-1.3-2.1C240.9,36.3,240.4,35.6,240.3,35.3
			z"/>
		
			<linearGradient id="SVGID_6_" gradientUnits="userSpaceOnUse" x1="244.961" y1="54.65" x2="268.5509" y2="54.65" gradientTransform="matrix(1 0 0 -1 0 86)">
			<stop  offset="0" style="stop-color:#00F02E"/>
			<stop  offset="1" style="stop-color:#FAFFC5"/>
		</linearGradient>
		<path class="st8" d="M268.2,31.6c0-1.4,0.1-3.4,0.2-6.1s0.2-4.8,0.2-6.1c0-0.3-0.2-0.4-0.5-0.4c-0.4,0-0.9,0-1.6,0.1
			s-1.2,0.1-1.6,0.1s-0.9,0-1.6-0.1s-1.2-0.1-1.6-0.1c-0.3,0-0.4,0.2-0.4,0.5c0,0.9,0,2.1,0.1,3.8s0.1,3,0.1,3.8
			c0,0.4-0.1,0.7-0.4,0.7c-0.4,0.1-1.9,0.1-4.4,0.1c-2.7,0-4.2,0-4.5-0.1c-0.2-0.1-0.3-0.3-0.3-0.7c0-0.9,0.1-2.2,0.2-3.9
			s0.2-3.1,0.2-3.9c0-0.2-0.1-0.3-0.3-0.3c-0.4,0-0.9,0-1.7,0.1s-1.3,0.1-1.7,0.1s-0.9,0-1.6-0.1s-1.3-0.1-1.6-0.1
			c-0.2,0-0.4,0.1-0.4,0.4c0,1.4,0.1,3.4,0.2,6.1s0.2,4.8,0.2,6.1s-0.1,3.2-0.2,5.7S245,41.8,245,43c0,0.3,0.2,0.5,0.5,0.5
			c0.4,0.1,1.4,0.1,3,0.1c1.8,0,2.9,0,3.3-0.1c0.3-0.1,0.5-0.3,0.5-0.6c0-0.9,0-2.3-0.1-4.1s-0.1-3.2-0.1-4.1c0-0.5,0.1-0.7,0.4-0.8
			c0.4-0.1,1.8-0.1,4.3-0.1c2.4,0,3.9,0,4.3,0.1c0.3,0.1,0.4,0.3,0.4,0.8c0,0.9,0,2.3-0.1,4.2s-0.1,3.2-0.1,4.2
			c0,0.2,0.2,0.4,0.5,0.5s1.4,0.1,3.2,0.1c1.3,0,2.3,0,3-0.1c0.3,0,0.4-0.1,0.5-0.1c0.1-0.1,0.2-0.2,0.2-0.5c0-1.3-0.1-3.2-0.2-5.7
			S268.2,32.9,268.2,31.6z"/>
		
			<linearGradient id="SVGID_7_" gradientUnits="userSpaceOnUse" x1="271.6798" y1="54.65" x2="279.3242" y2="54.65" gradientTransform="matrix(1 0 0 -1 0 86)">
			<stop  offset="0" style="stop-color:#00F02E"/>
			<stop  offset="1" style="stop-color:#FAFFC5"/>
		</linearGradient>
		<path class="st9" d="M279.3,19.4c0-0.3-0.2-0.4-0.5-0.4c-0.4,0-0.9,0-1.6,0.1s-1.2,0.1-1.6,0.1s-0.9,0-1.6-0.1s-1.3-0.1-1.6-0.1
			c-0.3,0-0.4,0.1-0.4,0.4c0,1.3,0,3.1,0.1,5.6s0.1,4.4,0.1,5.6c0,1.5-0.1,4.6-0.3,9.4c-0.1,2.3-0.2,3.3-0.2,3.1
			c0,0.3,0.2,0.5,0.5,0.5c0.5,0.1,1.6,0.1,3.3,0.1c1.3,0,2.3,0,3.1-0.1c0.3,0,0.4-0.1,0.5-0.1c0.1-0.1,0.2-0.2,0.2-0.4
			c0-1.4,0-3.5-0.1-6.2s-0.1-4.9-0.1-6.2c0-1.3,0.1-3.1,0.2-5.6S279.3,20.6,279.3,19.4z"/>
		
			<linearGradient id="SVGID_8_" gradientUnits="userSpaceOnUse" x1="282.4376" y1="54.65" x2="300.5084" y2="54.65" gradientTransform="matrix(1 0 0 -1 0 86)">
			<stop  offset="0" style="stop-color:#00F02E"/>
			<stop  offset="1" style="stop-color:#FAFFC5"/>
		</linearGradient>
		<path class="st10" d="M300.1,37.6c-0.6,0-1.5,0.1-2.8,0.2s-2.1,0.2-2.8,0.2c-1.7,0-2.6,0-2.6,0c-1.3-0.1-2.1-0.3-2.3-0.8
			c-0.1-0.3-0.2-0.8-0.2-1.7c0-0.7,0-1,0-1.1c0.1-0.2,0.4-0.4,0.8-0.4h1.9c2.4,0,3.9,0,4.6,0.1l1.6,0.2c0.3,0,0.5-0.1,0.5-0.4
			c0-0.9,0-1.9,0.1-2.8c0.2-1.7,0.3-2.6,0.3-2.7c0-0.2-0.1-0.4-0.4-0.4c-0.2,0-0.6,0-0.9,0.1c-0.5,0-0.8,0.1-1,0.1
			c-1.5,0.1-3,0.1-4.5,0.1c-0.2,0-0.5,0-0.8,0s-0.6,0-0.7,0c-0.6,0-0.9-0.1-1.1-0.3c-0.2-0.3-0.4-0.8-0.4-1.6c0-0.8,0-1.2,0.1-1.4
			c0.1-0.3,0.5-0.4,1.1-0.4c2.5,0,5.3,0.1,8.4,0.4c0.2,0,0.3,0,0.4,0c0.2,0,0.4-0.1,0.4-0.4s-0.1-1.1-0.2-2.5s-0.2-2.2-0.3-2.5
			c-0.1-0.5-0.4-0.7-1.1-0.7c-0.9,0-2.1,0-3.9,0.1s-3,0.1-3.9,0.1s-2.2,0-3.9-0.1s-3-0.1-3.9-0.1c-0.3,0-0.5,0.1-0.4,0.4v0.2
			c0.1,1.9,0.2,3.3,0.2,4.2c0.1,3.6,0.2,6.1,0.2,7.5c0,1.3-0.1,3.3-0.2,5.9s-0.2,4.6-0.2,5.9c0,0.3,0.2,0.5,0.6,0.5c0.9,0,2.2,0,4,0
			s3.1,0,4,0c4.1,0,6.6,0.1,7.5,0.2c0.2,0,0.4,0.1,0.5,0.1c0.2,0,0.4-0.1,0.6-0.3c0.2-0.3,0.4-1.2,0.6-2.6c0.2-1.3,0.3-2.3,0.3-2.8
			C300.5,37.8,300.4,37.6,300.1,37.6z"/>
		
			<linearGradient id="SVGID_9_" gradientUnits="userSpaceOnUse" x1="311.9694" y1="54.35" x2="329.5299" y2="54.35" gradientTransform="matrix(1 0 0 -1 0 86)">
			<stop  offset="0" style="stop-color:#00F02E"/>
			<stop  offset="1" style="stop-color:#FAFFC5"/>
		</linearGradient>
		<path class="st11" d="M329.1,37.8c-1.1,0-2.6,0.1-4.7,0.2s-3.7,0.2-4.7,0.2c-0.3,0-0.4,0-0.5,0c-0.2,0-0.3-0.1-0.3-0.3
			s0-0.3,0-0.4c0-0.7,0-1.8,0-3.3v-4.6c0.2-4.4,0.3-7.7,0.5-9.9v-0.2c0-0.2-0.1-0.3-0.2-0.3c-0.4,0-1,0-1.7,0.1s-1.3,0.1-1.7,0.1
			c-0.3,0-0.9,0-1.6-0.1s-1.2-0.1-1.6-0.1s-0.5,0.1-0.5,0.4c0,1.4,0,3.4,0.1,6.1s0.1,4.7,0.1,6.1c0,1.3,0,3.2-0.1,5.7
			s-0.1,4.5-0.1,5.7c0,0.3,0.2,0.5,0.5,0.5c1,0.1,1.7,0.1,2.3,0.1l5.3,0.1c0.5,0,1.8,0,3.9,0.1c1.6,0,2.9,0.1,3.9,0.1
			c0.4,0,0.7,0,0.7,0c0.2-0.1,0.3-0.2,0.4-0.5c0.3-1.5,0.4-3.2,0.4-5.2C329.5,37.9,329.4,37.8,329.1,37.8z"/>
		
			<linearGradient id="SVGID_10_" gradientUnits="userSpaceOnUse" x1="330.9" y1="54.7" x2="355.9664" y2="54.7" gradientTransform="matrix(1 0 0 -1 0 86)">
			<stop  offset="0" style="stop-color:#00F02E"/>
			<stop  offset="1" style="stop-color:#FAFFC5"/>
		</linearGradient>
		<path class="st12" d="M343.4,18.3c-3.6,0-6.6,1.3-9,3.8c-2.3,2.5-3.5,5.5-3.5,9.2c0,3.6,1.2,6.7,3.5,9.2c2.4,2.5,5.4,3.8,9,3.8
			s6.7-1.3,9-3.8s3.5-5.5,3.5-9.2c0-3.6-1.2-6.7-3.5-9.2C350,19.6,347,18.3,343.4,18.3z M347.6,35.7c-1.2,1.3-2.6,2-4.2,2
			c-1.8,0-3.2-0.6-4.3-1.9c-1-1.2-1.6-2.7-1.6-4.5c0-1.7,0.6-3.2,1.7-4.4c1.1-1.3,2.5-2,4.2-2s3.2,0.6,4.3,1.9
			c1.1,1.2,1.6,2.7,1.6,4.5C349.3,33,348.7,34.5,347.6,35.7z"/>
		
			<linearGradient id="SVGID_11_" gradientUnits="userSpaceOnUse" x1="358.024" y1="54.65" x2="379.4694" y2="54.65" gradientTransform="matrix(1 0 0 -1 0 86)">
			<stop  offset="0" style="stop-color:#00F02E"/>
			<stop  offset="1" style="stop-color:#FAFFC5"/>
		</linearGradient>
		<path class="st13" d="M378.9,19c-0.6,0-1.6,0-2.9,0.1s-2.3,0.1-2.9,0.1h-0.6c-0.1,0-0.2,0.2-0.2,0.5c0,0.9,0,2.1,0,3.9s0,3,0,3.9
			c0,0.5-0.6,1.9-1.7,4.2c-0.8,1.7-1.6,3.1-2.2,4.3c-2.4-4.5-3.6-7.1-3.6-7.8c0-0.9,0.1-2.4,0.2-4.3s0.2-3.3,0.2-4.3
			c0-0.2-0.1-0.4-0.4-0.4c-0.7,0-1.8,0-3.2-0.1s-2.5-0.1-3.2-0.1c-0.2,0-0.4,0.2-0.4,0.7c0,0.9,0,2.3-0.1,4.2s0.1,3.2,0.1,4.1
			c0,0.6,1.1,3,3.2,7.2c1.3,2.6,2.7,5.3,4,7.9c0.2,0.3,0.3,0.5,0.6,0.5s1.1,0.1,2.7,0.1c1.3,0,2.2,0,2.8-0.1c0.3,0,0.4,0,0.4-0.1
			s0.1-0.2,0.2-0.4c1.7-3.4,3-5.9,4-7.5c2.3-4.6,3.5-7.3,3.5-8c0-0.9,0-2.3,0-4.1s0-3.2,0-4.1C379.5,19.1,379.3,19,378.9,19z"/>
		
			<linearGradient id="SVGID_12_" gradientUnits="userSpaceOnUse" x1="382.0006" y1="54.65" x2="400.0709" y2="54.65" gradientTransform="matrix(1 0 0 -1 0 86)">
			<stop  offset="0" style="stop-color:#00F02E"/>
			<stop  offset="1" style="stop-color:#FAFFC5"/>
		</linearGradient>
		<path class="st14" d="M399.7,37.6c-0.6,0-1.5,0.1-2.8,0.2s-2.1,0.2-2.8,0.2c-1.7,0-2.6,0-2.6,0c-1.3-0.1-2.1-0.3-2.3-0.8
			c-0.1-0.3-0.2-0.8-0.2-1.7c0-0.7,0-1,0-1.1c0.1-0.2,0.4-0.4,0.8-0.4h1.9c2.4,0,3.9,0,4.6,0.1l1.6,0.2c0.3,0,0.5-0.1,0.5-0.4
			c0-0.9,0-1.9,0.1-2.8c0.2-1.7,0.3-2.6,0.3-2.7c0-0.2-0.1-0.4-0.4-0.4c-0.2,0-0.6,0-0.9,0.1c-0.5,0-0.8,0.1-1,0.1
			c-1.5,0.1-3,0.1-4.5,0.1c-0.2,0-0.5,0-0.8,0s-0.6,0-0.7,0c-0.6,0-0.9-0.1-1.1-0.3c-0.2-0.3-0.4-0.8-0.4-1.6c0-0.8,0-1.2,0.1-1.4
			c0.1-0.3,0.5-0.4,1.1-0.4c2.5,0,5.3,0.1,8.4,0.4c0.2,0,0.3,0,0.4,0c0.2,0,0.4-0.1,0.4-0.4s-0.1-1.1-0.2-2.5s-0.2-2.2-0.3-2.5
			c-0.1-0.5-0.4-0.7-1.1-0.7c-0.9,0-2.1,0-3.9,0.1s-3,0.1-3.9,0.1s-2.2,0-3.9-0.1s-3-0.1-3.9-0.1c-0.3,0-0.5,0.1-0.4,0.4v0.2
			c0.1,1.9,0.2,3.3,0.2,4.2c0.1,3.6,0.2,6.1,0.2,7.5c0,1.3-0.1,3.3-0.2,5.9s-0.2,4.6-0.2,5.9c0,0.3,0.2,0.5,0.6,0.5c0.9,0,2.2,0,4,0
			s3.1,0,4,0c4.1,0,6.6,0.1,7.5,0.2c0.2,0,0.4,0.1,0.5,0.1c0.2,0,0.4-0.1,0.6-0.3c0.2-0.3,0.4-1.2,0.6-2.6c0.2-1.3,0.3-2.3,0.3-2.8
			C400.1,37.8,399.9,37.6,399.7,37.6z"/>
		
			<linearGradient id="SVGID_13_" gradientUnits="userSpaceOnUse" x1="402.4088" y1="54.7" x2="423.3619" y2="54.7" gradientTransform="matrix(1 0 0 -1 0 86)">
			<stop  offset="0" style="stop-color:#00F02E"/>
			<stop  offset="1" style="stop-color:#FAFFC5"/>
		</linearGradient>
		<path class="st15" d="M419.1,34.2c0-0.2,0.1-0.3,0.4-0.5c1.3-1,2.2-2,2.7-3s0.7-2.4,0.7-4.1c0-2.6-1-4.5-2.9-5.9
			c-1.7-1.2-3.9-1.8-6.5-1.8c-1.3,0-3,0-5.2,0.1c-3.2,0.1-5,0.1-5.4,0.2s-0.6,0.2-0.6,0.4v0.2c0.2,2.8,0.3,6.6,0.3,11.6
			c0,1.3-0.1,3.3-0.2,5.9s-0.2,4.5-0.2,5.8c0,0.3,0.2,0.5,0.5,0.5s1.3,0.1,3,0.1c1.5,0,2.5,0,3.2-0.1c0.2,0,0.3,0,0.5,0
			c0.1,0,0.2-0.2,0.2-0.4c0-0.8-0.1-2-0.2-3.6s-0.2-2.8-0.2-3.6c0-0.6,0.1-0.9,0.3-0.9c1.3,0,1.9,0,1.9,0c0.7,0.1,1.2,0.3,1.4,0.7
			c1,2.3,1.7,4,2.1,5.2c0.3,0.9,0.6,1.6,0.8,2c0.1,0.2,0.2,0.3,0.2,0.4c0,0,0.2,0.1,0.4,0.1c0.6,0.1,1.6,0.1,3.1,0.1
			c1.8,0,2.9,0,3.4-0.1c0.2,0,0.4-0.1,0.4-0.2c0-0.3-0.7-1.9-2.1-4.9S419.1,34.2,419.1,34.2z M412.1,30.8c-0.8,0-1.5-0.1-2.3-0.2
			c-0.4-0.1-0.6-0.1-0.6-0.2c0-0.3,0-0.7,0-1.2s0-0.9,0-1.2c0-1.9,0-3,0.1-3.4c0.1-0.3,0.7-0.5,1.8-0.5c1.5,0,2.7,0.2,3.4,0.6
			c0.9,0.6,1.4,1.5,1.4,3C416,29.8,414.7,30.8,412.1,30.8z"/>
		
			<linearGradient id="SVGID_14_" gradientUnits="userSpaceOnUse" x1="424.5045" y1="54.6" x2="437.3365" y2="54.6" gradientTransform="matrix(1 0 0 -1 0 86)">
			<stop  offset="0" style="stop-color:#00F02E"/>
			<stop  offset="1" style="stop-color:#FAFFC5"/>
		</linearGradient>
		<path class="st16" d="M436.1,31.7c-0.1-0.1-0.8-1.1-2.3-3c-0.8-1-1.3-1.9-1.3-2.6c0-0.8,0.4-1.4,1.1-1.9c0.6-0.4,1.4-0.6,2.2-0.6
			c0.1,0,0.3,0,0.5,0.1s0.4,0.1,0.5,0.1c0.2,0,0.3-0.1,0.3-0.3c0,0,0-0.1-0.1-0.2c-1.1-2.2-1.8-3.8-2.1-4.6
			c-0.1-0.3-0.2-0.4-0.4-0.4c-0.1,0-0.2,0-0.3,0c-2.4,0.4-4.3,1.1-6,2.3c-2,1.4-3,3.2-3,5.3c0,1.5,0.4,2.8,1.2,4
			c0.1,0.2,0.9,1.1,2.3,2.7c0.8,0.9,1.2,1.8,1.2,2.5c0,1.2-0.6,2.1-1.8,2.7c-0.6,0.3-1.7,0.6-3.4,1c-0.2,0-0.3,0.1-0.3,0.2
			c0,0.4,0.5,1.4,1.4,3s1.5,2.5,1.8,2.5c0.1,0,0.1,0,0.2,0c2.5-0.4,4.7-1.4,6.4-2.9c2-1.7,3-3.7,3-6.1
			C437.3,34.3,436.9,33,436.1,31.7z"/>
	</g>
</g>
</svg>
